<mxfile host="Electron" agent="Mozilla/5.0 (Macintosh; Intel Mac OS X 10_15_7) AppleWebKit/537.36 (KHTML, like Gecko) draw.io/25.0.2 Chrome/128.0.6613.186 Electron/32.2.5 Safari/537.36" version="25.0.2">
  <diagram name="DF" id="BleSmaJVXqo2yb7Co1eL">
    <mxGraphModel dx="14227" dy="5993" grid="1" gridSize="10" guides="0" tooltips="0" connect="1" arrows="1" fold="1" page="0" pageScale="1" pageWidth="827" pageHeight="1169" math="0" shadow="0">
      <root>
        <mxCell id="0" />
        <mxCell id="1" parent="0" />
        <mxCell id="b1pBMNL9U5uMwUAju9zj-843" value="" style="rounded=0;whiteSpace=wrap;html=1;fillColor=#dae8fc;strokeColor=#6c8ebf;" vertex="1" parent="1">
          <mxGeometry x="-3740" y="280" width="4290" height="3240" as="geometry" />
        </mxCell>
        <mxCell id="b1pBMNL9U5uMwUAju9zj-715" value="" style="rounded=0;whiteSpace=wrap;html=1;fillColor=#e1d5e7;strokeColor=#9673a6;movable=1;resizable=1;rotatable=1;deletable=1;editable=1;locked=0;connectable=1;" vertex="1" parent="1">
          <mxGeometry x="-3740" y="-310" width="4270" height="400" as="geometry" />
        </mxCell>
        <mxCell id="b1pBMNL9U5uMwUAju9zj-714" style="edgeStyle=orthogonalEdgeStyle;rounded=0;orthogonalLoop=1;jettySize=auto;html=1;entryX=-0.006;entryY=0.533;entryDx=0;entryDy=0;exitX=1;exitY=0.5;exitDx=0;exitDy=0;strokeColor=#FF0000;entryPerimeter=0;" edge="1" parent="1" source="b1pBMNL9U5uMwUAju9zj-668" target="b1pBMNL9U5uMwUAju9zj-576">
          <mxGeometry relative="1" as="geometry">
            <Array as="points">
              <mxPoint x="-2590" y="1340" />
              <mxPoint x="-2590" y="2101" />
            </Array>
          </mxGeometry>
        </mxCell>
        <mxCell id="b1pBMNL9U5uMwUAju9zj-764" style="edgeStyle=orthogonalEdgeStyle;rounded=0;orthogonalLoop=1;jettySize=auto;html=1;strokeColor=#FF0000;" edge="1" parent="1" source="b1pBMNL9U5uMwUAju9zj-834" target="b1pBMNL9U5uMwUAju9zj-576">
          <mxGeometry relative="1" as="geometry" />
        </mxCell>
        <mxCell id="b1pBMNL9U5uMwUAju9zj-770" style="edgeStyle=orthogonalEdgeStyle;rounded=0;orthogonalLoop=1;jettySize=auto;html=1;strokeColor=#FF0000;exitX=0.5;exitY=1;exitDx=0;exitDy=0;" edge="1" parent="1" source="b1pBMNL9U5uMwUAju9zj-832" target="b1pBMNL9U5uMwUAju9zj-598">
          <mxGeometry relative="1" as="geometry" />
        </mxCell>
        <mxCell id="b1pBMNL9U5uMwUAju9zj-778" style="edgeStyle=orthogonalEdgeStyle;rounded=0;orthogonalLoop=1;jettySize=auto;html=1;entryX=0.5;entryY=0;entryDx=0;entryDy=0;exitX=1;exitY=0.75;exitDx=0;exitDy=0;strokeColor=#FF0000;" edge="1" parent="1" source="b1pBMNL9U5uMwUAju9zj-840" target="b1pBMNL9U5uMwUAju9zj-621">
          <mxGeometry relative="1" as="geometry" />
        </mxCell>
        <mxCell id="b1pBMNL9U5uMwUAju9zj-598" value="" style="rounded=1;whiteSpace=wrap;html=1;arcSize=3;movable=1;resizable=1;rotatable=1;deletable=1;editable=1;locked=0;connectable=1;fillColor=#f5f5f5;strokeColor=#1C57CD;strokeWidth=3;fontColor=#333333;" vertex="1" parent="1">
          <mxGeometry x="-2040" y="1050" width="860" height="470" as="geometry" />
        </mxCell>
        <mxCell id="b1pBMNL9U5uMwUAju9zj-617" value="" style="strokeWidth=2;html=1;shape=mxgraph.flowchart.database;whiteSpace=wrap;rounded=1;movable=1;resizable=1;rotatable=1;deletable=1;editable=1;locked=0;connectable=1;" vertex="1" parent="1">
          <mxGeometry x="-1610" y="1080" width="360" height="400" as="geometry" />
        </mxCell>
        <mxCell id="b1pBMNL9U5uMwUAju9zj-635" value="" style="rounded=1;whiteSpace=wrap;html=1;arcSize=3;movable=1;resizable=1;rotatable=1;deletable=1;editable=1;locked=0;connectable=1;fillColor=#f5f5f5;strokeColor=#1C57CD;strokeWidth=3;fontColor=#333333;" vertex="1" parent="1">
          <mxGeometry x="-2590" y="430" width="860" height="470" as="geometry" />
        </mxCell>
        <mxCell id="b1pBMNL9U5uMwUAju9zj-769" style="edgeStyle=orthogonalEdgeStyle;rounded=0;orthogonalLoop=1;jettySize=auto;html=1;entryX=0.75;entryY=0;entryDx=0;entryDy=0;strokeColor=#FF0000;" edge="1" parent="1" source="b1pBMNL9U5uMwUAju9zj-629" target="b1pBMNL9U5uMwUAju9zj-581">
          <mxGeometry relative="1" as="geometry" />
        </mxCell>
        <mxCell id="b1pBMNL9U5uMwUAju9zj-629" value="" style="rounded=1;whiteSpace=wrap;html=1;arcSize=3;movable=1;resizable=1;rotatable=1;deletable=1;editable=1;locked=0;connectable=1;fillColor=#f5f5f5;strokeColor=#1C57CD;strokeWidth=3;fontColor=#333333;" vertex="1" parent="1">
          <mxGeometry x="-2020" y="2520" width="860" height="470" as="geometry" />
        </mxCell>
        <mxCell id="b1pBMNL9U5uMwUAju9zj-623" value="" style="rounded=1;whiteSpace=wrap;html=1;arcSize=3;movable=1;resizable=1;rotatable=1;deletable=1;editable=1;locked=0;connectable=1;fillColor=#f5f5f5;strokeColor=#1C57CD;strokeWidth=3;fontColor=#333333;" vertex="1" parent="1">
          <mxGeometry x="-1140" y="430" width="860" height="470" as="geometry" />
        </mxCell>
        <mxCell id="b1pBMNL9U5uMwUAju9zj-621" value="у" style="rounded=1;whiteSpace=wrap;html=1;arcSize=3;movable=1;resizable=1;rotatable=1;deletable=1;editable=1;locked=0;connectable=1;fillColor=#f5f5f5;strokeColor=#1C57CD;strokeWidth=3;fontColor=#333333;" vertex="1" parent="1">
          <mxGeometry x="-450" y="2080" width="390" height="250" as="geometry" />
        </mxCell>
        <mxCell id="b1pBMNL9U5uMwUAju9zj-596" value="" style="rounded=1;whiteSpace=wrap;html=1;arcSize=3;movable=1;resizable=1;rotatable=1;deletable=1;editable=1;locked=0;connectable=1;fillColor=#f5f5f5;strokeColor=#1C57CD;strokeWidth=3;fontColor=#333333;" vertex="1" parent="1">
          <mxGeometry x="-1670" y="430" width="390" height="260" as="geometry" />
        </mxCell>
        <mxCell id="b1pBMNL9U5uMwUAju9zj-774" style="edgeStyle=orthogonalEdgeStyle;rounded=0;orthogonalLoop=1;jettySize=auto;html=1;exitX=0.5;exitY=1;exitDx=0;exitDy=0;entryX=0;entryY=0.5;entryDx=0;entryDy=0;strokeColor=#FF0000;" edge="1" parent="1" source="b1pBMNL9U5uMwUAju9zj-668" target="b1pBMNL9U5uMwUAju9zj-581">
          <mxGeometry relative="1" as="geometry" />
        </mxCell>
        <mxCell id="b1pBMNL9U5uMwUAju9zj-581" value="" style="rounded=1;whiteSpace=wrap;html=1;arcSize=3;movable=1;resizable=1;rotatable=1;deletable=1;editable=1;locked=0;connectable=1;fillColor=#f5f5f5;strokeColor=#1C57CD;strokeWidth=3;fontColor=#333333;" vertex="1" parent="1">
          <mxGeometry x="-2780" y="3090" width="390" height="260" as="geometry" />
        </mxCell>
        <mxCell id="b1pBMNL9U5uMwUAju9zj-768" style="edgeStyle=orthogonalEdgeStyle;rounded=0;orthogonalLoop=1;jettySize=auto;html=1;entryX=0.25;entryY=0;entryDx=0;entryDy=0;strokeColor=#FF0000;" edge="1" parent="1" source="b1pBMNL9U5uMwUAju9zj-578" target="b1pBMNL9U5uMwUAju9zj-581">
          <mxGeometry relative="1" as="geometry" />
        </mxCell>
        <mxCell id="b1pBMNL9U5uMwUAju9zj-578" value="" style="rounded=1;whiteSpace=wrap;html=1;arcSize=3;movable=1;resizable=1;rotatable=1;deletable=1;editable=1;locked=0;connectable=1;fillColor=#f5f5f5;strokeColor=#1C57CD;strokeWidth=3;fontColor=#333333;" vertex="1" parent="1">
          <mxGeometry x="-3640" y="430" width="850" height="520" as="geometry" />
        </mxCell>
        <mxCell id="b1pBMNL9U5uMwUAju9zj-767" style="edgeStyle=orthogonalEdgeStyle;rounded=0;orthogonalLoop=1;jettySize=auto;html=1;entryX=0.5;entryY=0;entryDx=0;entryDy=0;exitX=0;exitY=0.75;exitDx=0;exitDy=0;strokeColor=#FF0000;" edge="1" parent="1" source="b1pBMNL9U5uMwUAju9zj-576" target="b1pBMNL9U5uMwUAju9zj-581">
          <mxGeometry relative="1" as="geometry" />
        </mxCell>
        <mxCell id="b1pBMNL9U5uMwUAju9zj-772" style="edgeStyle=orthogonalEdgeStyle;rounded=0;orthogonalLoop=1;jettySize=auto;html=1;strokeColor=#FF0000;exitX=1;exitY=0.75;exitDx=0;exitDy=0;" edge="1" parent="1" source="b1pBMNL9U5uMwUAju9zj-576" target="b1pBMNL9U5uMwUAju9zj-621">
          <mxGeometry relative="1" as="geometry" />
        </mxCell>
        <mxCell id="b1pBMNL9U5uMwUAju9zj-576" value="" style="rounded=1;whiteSpace=wrap;html=1;arcSize=3;movable=1;resizable=1;rotatable=1;deletable=1;editable=1;locked=0;connectable=1;fillColor=#f5f5f5;strokeColor=#1C57CD;strokeWidth=3;fontColor=#333333;" vertex="1" parent="1">
          <mxGeometry x="-2060" y="1840" width="900" height="490" as="geometry" />
        </mxCell>
        <mxCell id="cKbgiC5qh_IXnBO1eU4K-84" value="&lt;p style=&quot;margin: 0px 0px 0px 13px; text-indent: -13px; font-variant-numeric: normal; font-variant-east-asian: normal; font-variant-alternates: normal; font-kerning: auto; font-optical-sizing: auto; font-feature-settings: normal; font-variation-settings: normal; font-variant-position: normal; font-stretch: normal; font-size: 14px; line-height: normal; color: rgb(14, 14, 14); text-align: start;&quot; class=&quot;p1&quot;&gt;&lt;font face=&quot;Times New Roman&quot;&gt;Услуга.ID&lt;/font&gt;&lt;/p&gt;" style="rounded=1;whiteSpace=wrap;html=1;fillColor=#b1ddf0;strokeColor=#10739e;" parent="1" vertex="1">
          <mxGeometry x="-1570" y="1340" width="87" height="21" as="geometry" />
        </mxCell>
        <mxCell id="cKbgiC5qh_IXnBO1eU4K-85" value="&lt;p style=&quot;margin: 0px 0px 0px 13px; text-indent: -13px; font-variant-numeric: normal; font-variant-east-asian: normal; font-variant-alternates: normal; font-kerning: auto; font-optical-sizing: auto; font-feature-settings: normal; font-variation-settings: normal; font-variant-position: normal; font-stretch: normal; font-size: 14px; line-height: normal; color: rgb(14, 14, 14); text-align: start;&quot; class=&quot;p1&quot;&gt;&lt;font face=&quot;Times New Roman&quot;&gt;Услуга.Название&lt;/font&gt;&lt;/p&gt;" style="rounded=1;whiteSpace=wrap;html=1;fillColor=#b1ddf0;strokeColor=#10739e;" parent="1" vertex="1">
          <mxGeometry x="-1570" y="1370" width="110" height="21" as="geometry" />
        </mxCell>
        <mxCell id="cKbgiC5qh_IXnBO1eU4K-86" value="&lt;p style=&quot;margin: 0px 0px 0px 13px; text-indent: -13px; font-variant-numeric: normal; font-variant-east-asian: normal; font-variant-alternates: normal; font-kerning: auto; font-optical-sizing: auto; font-feature-settings: normal; font-variation-settings: normal; font-variant-position: normal; font-stretch: normal; font-size: 14px; line-height: normal; color: rgb(14, 14, 14); text-align: start;&quot; class=&quot;p1&quot;&gt;&lt;font face=&quot;Times New Roman&quot;&gt;Услуга. Описание&lt;/font&gt;&lt;/p&gt;" style="rounded=1;whiteSpace=wrap;html=1;fillColor=#b1ddf0;strokeColor=#10739e;" parent="1" vertex="1">
          <mxGeometry x="-1570" y="1400" width="112" height="21" as="geometry" />
        </mxCell>
        <mxCell id="cKbgiC5qh_IXnBO1eU4K-87" value="&lt;p style=&quot;margin: 0px 0px 0px 13px; text-indent: -13px; font-variant-numeric: normal; font-variant-east-asian: normal; font-variant-alternates: normal; font-kerning: auto; font-optical-sizing: auto; font-feature-settings: normal; font-variation-settings: normal; font-variant-position: normal; font-stretch: normal; font-size: 14px; line-height: normal; color: rgb(14, 14, 14); text-align: start;&quot; class=&quot;p1&quot;&gt;&lt;font face=&quot;Times New Roman&quot;&gt;Товар.ID&lt;/font&gt;&lt;/p&gt;" style="rounded=1;whiteSpace=wrap;html=1;fillColor=#b1ddf0;strokeColor=#10739e;" parent="1" vertex="1">
          <mxGeometry x="-1570" y="1220" width="78" height="21" as="geometry" />
        </mxCell>
        <mxCell id="cKbgiC5qh_IXnBO1eU4K-88" value="&lt;p style=&quot;margin: 0px 0px 0px 13px; text-indent: -13px; font-variant-numeric: normal; font-variant-east-asian: normal; font-variant-alternates: normal; font-kerning: auto; font-optical-sizing: auto; font-feature-settings: normal; font-variation-settings: normal; font-variant-position: normal; font-stretch: normal; font-size: 14px; line-height: normal; color: rgb(14, 14, 14); text-align: start;&quot; class=&quot;p1&quot;&gt;&lt;font face=&quot;Times New Roman&quot;&gt;Товар.Название&lt;/font&gt;&lt;/p&gt;" style="rounded=1;whiteSpace=wrap;html=1;fillColor=#b1ddf0;strokeColor=#10739e;" parent="1" vertex="1">
          <mxGeometry x="-1570" y="1250" width="111" height="21" as="geometry" />
        </mxCell>
        <mxCell id="cKbgiC5qh_IXnBO1eU4K-89" value="&lt;p style=&quot;margin: 0px 0px 0px 13px; text-indent: -13px; font-variant-numeric: normal; font-variant-east-asian: normal; font-variant-alternates: normal; font-kerning: auto; font-optical-sizing: auto; font-feature-settings: normal; font-variation-settings: normal; font-variant-position: normal; font-stretch: normal; font-size: 14px; line-height: normal; color: rgb(14, 14, 14); text-align: start;&quot; class=&quot;p1&quot;&gt;&lt;font face=&quot;Times New Roman&quot;&gt;Товар.Описание&lt;/font&gt;&lt;/p&gt;" style="rounded=1;whiteSpace=wrap;html=1;fillColor=#b1ddf0;strokeColor=#10739e;" parent="1" vertex="1">
          <mxGeometry x="-1570" y="1280" width="107" height="21" as="geometry" />
        </mxCell>
        <mxCell id="d3r_7VUgfL_-Ddzbqp2A-3" value="&lt;h1 style=&quot;margin-top: 0px;&quot;&gt;&lt;p class=&quot;p1&quot; style=&quot;margin: 0px 0px 0px 21px; text-indent: -21px; font-variant-numeric: normal; font-variant-east-asian: normal; font-variant-alternates: normal; font-kerning: auto; font-optical-sizing: auto; font-feature-settings: normal; font-variation-settings: normal; font-variant-position: normal; font-stretch: normal; line-height: normal;&quot;&gt;&lt;font face=&quot;Times New Roman&quot; color=&quot;#0e0e0e&quot;&gt;&lt;span style=&quot;font-size: 15px; font-weight: 400;&quot;&gt;1. Пользователь передает в сервис регистраци логин и пароль. Использует их для логина в систему. Получает от сервиса токен, с которым выполняет дальнейшие запросы.&lt;/span&gt;&lt;/font&gt;&lt;/p&gt;&lt;p class=&quot;p1&quot; style=&quot;margin: 0px 0px 0px 21px; text-indent: -21px; font-variant-numeric: normal; font-variant-east-asian: normal; font-variant-alternates: normal; font-kerning: auto; font-optical-sizing: auto; font-feature-settings: normal; font-variation-settings: normal; font-variant-position: normal; font-stretch: normal; line-height: normal;&quot;&gt;&lt;font face=&quot;Times New Roman&quot; color=&quot;#0e0e0e&quot;&gt;&lt;span style=&quot;font-size: 15px; font-weight: 400;&quot;&gt;2. Сервис регистрации передает запрос в сервис нотификаций. Запрос содержит почту пользователя. На нее уходит сообщение об успешной регистрации.&lt;/span&gt;&lt;/font&gt;&lt;/p&gt;&lt;p class=&quot;p1&quot; style=&quot;margin: 0px 0px 0px 21px; text-indent: -21px; font-variant-numeric: normal; font-variant-east-asian: normal; font-variant-alternates: normal; font-kerning: auto; font-optical-sizing: auto; font-feature-settings: normal; font-variation-settings: normal; font-variant-position: normal; font-stretch: normal; line-height: normal;&quot;&gt;&lt;font face=&quot;Times New Roman&quot; color=&quot;#0e0e0e&quot;&gt;&lt;span style=&quot;font-size: 15px; font-weight: 400;&quot;&gt;3. Сервис нотификаций отправляет сообщение в профиль пользователя с идентификатором пользователя и получает email (или телефон), на который будет отправлять сообщение.&lt;/span&gt;&lt;/font&gt;&lt;/p&gt;&lt;p class=&quot;p1&quot; style=&quot;margin: 0px 0px 0px 21px; text-indent: -21px; font-variant-numeric: normal; font-variant-east-asian: normal; font-variant-alternates: normal; font-kerning: auto; font-optical-sizing: auto; font-feature-settings: normal; font-variation-settings: normal; font-variant-position: normal; font-stretch: normal; line-height: normal;&quot;&gt;&lt;font face=&quot;Times New Roman&quot; color=&quot;#0e0e0e&quot;&gt;&lt;span style=&quot;font-size: 15px; font-weight: 400;&quot;&gt;4. При смене заказа в сервис нотификаций уходит сообщение с идентификатором заказа, статусом и идентификатором пользователя.&lt;/span&gt;&lt;/font&gt;&lt;/p&gt;&lt;p class=&quot;p1&quot; style=&quot;margin: 0px 0px 0px 21px; text-indent: -21px; font-variant-numeric: normal; font-variant-east-asian: normal; font-variant-alternates: normal; font-kerning: auto; font-optical-sizing: auto; font-feature-settings: normal; font-variation-settings: normal; font-variant-position: normal; font-stretch: normal; line-height: normal;&quot;&gt;&lt;font face=&quot;Times New Roman&quot; color=&quot;#0e0e0e&quot;&gt;&lt;span style=&quot;font-size: 15px; font-weight: 400;&quot;&gt;5. При изменении состояния аукциона в сервис нотификаций уходит сообщение с идентификатором заказа, статусом и идентификатором пользователя.&lt;/span&gt;&lt;/font&gt;&lt;/p&gt;&lt;p class=&quot;p1&quot; style=&quot;margin: 0px 0px 0px 21px; text-indent: -21px; font-variant-numeric: normal; font-variant-east-asian: normal; font-variant-alternates: normal; font-kerning: auto; font-optical-sizing: auto; font-feature-settings: normal; font-variation-settings: normal; font-variant-position: normal; font-stretch: normal; line-height: normal;&quot;&gt;&lt;font face=&quot;Times New Roman&quot; color=&quot;#0e0e0e&quot;&gt;&lt;span style=&quot;font-size: 15px; font-weight: 400;&quot;&gt;6. При создании заказа идет запрос в сервис профиля пользователя, чтобы получить информацияю для офррмления заказа: ФИО, адрес и номере телефона.&lt;/span&gt;&lt;/font&gt;&lt;/p&gt;&lt;p class=&quot;p1&quot; style=&quot;margin: 0px 0px 0px 21px; text-indent: -21px; font-variant-numeric: normal; font-variant-east-asian: normal; font-variant-alternates: normal; font-kerning: auto; font-optical-sizing: auto; font-feature-settings: normal; font-variation-settings: normal; font-variant-position: normal; font-stretch: normal; line-height: normal;&quot;&gt;&lt;font face=&quot;Times New Roman&quot; color=&quot;#0e0e0e&quot;&gt;&lt;span style=&quot;font-size: 15px; font-weight: 400;&quot;&gt;7. Пользователь обращается в поддержку, указывает свой емейл.&lt;/span&gt;&lt;/font&gt;&lt;/p&gt;&lt;p class=&quot;p1&quot; style=&quot;margin: 0px 0px 0px 21px; text-indent: -21px; font-variant-numeric: normal; font-variant-east-asian: normal; font-variant-alternates: normal; font-kerning: auto; font-optical-sizing: auto; font-feature-settings: normal; font-variation-settings: normal; font-variant-position: normal; font-stretch: normal; line-height: normal;&quot;&gt;&lt;font face=&quot;Times New Roman&quot; color=&quot;#0e0e0e&quot;&gt;&lt;span style=&quot;font-size: 15px; font-weight: 400;&quot;&gt;8. Сервис товаров и услуг формирует поисковый запрос и получает от сервиса поиска соответствующие резльтаты.&lt;/span&gt;&lt;/font&gt;&lt;/p&gt;&lt;p class=&quot;p1&quot; style=&quot;margin: 0px 0px 0px 21px; text-indent: -21px; font-variant-numeric: normal; font-variant-east-asian: normal; font-variant-alternates: normal; font-kerning: auto; font-optical-sizing: auto; font-feature-settings: normal; font-variation-settings: normal; font-variant-position: normal; font-stretch: normal; line-height: normal;&quot;&gt;&lt;font face=&quot;Times New Roman&quot; color=&quot;#0e0e0e&quot;&gt;&lt;span style=&quot;font-size: 15px; font-weight: 400;&quot;&gt;9. При создании заказа отправляется запрос в сервис товаров и услуг, для получения метаданных.&lt;/span&gt;&lt;/font&gt;&lt;/p&gt;&lt;p class=&quot;p1&quot; style=&quot;margin: 0px 0px 0px 21px; text-indent: -21px; font-variant-numeric: normal; font-variant-east-asian: normal; font-variant-alternates: normal; font-kerning: auto; font-optical-sizing: auto; font-feature-settings: normal; font-variation-settings: normal; font-variant-position: normal; font-stretch: normal; line-height: normal;&quot;&gt;&lt;font face=&quot;Times New Roman&quot; color=&quot;#0e0e0e&quot;&gt;&lt;span style=&quot;font-size: 15px; font-weight: 400;&quot;&gt;10. При создании аукциона и добавления позиций идет запрос в сервис товаров и услуг для получения актуальной информации.&lt;/span&gt;&lt;/font&gt;&lt;/p&gt;&lt;p class=&quot;p1&quot; style=&quot;margin: 0px 0px 0px 21px; text-indent: -21px; font-variant-numeric: normal; font-variant-east-asian: normal; font-variant-alternates: normal; font-kerning: auto; font-optical-sizing: auto; font-feature-settings: normal; font-variation-settings: normal; font-variant-position: normal; font-stretch: normal; line-height: normal;&quot;&gt;&lt;font face=&quot;Times New Roman&quot; color=&quot;#0e0e0e&quot;&gt;&lt;span style=&quot;font-size: 15px; font-weight: 400;&quot;&gt;11. При формировании заявки идет запрос в платежный сервис для оплаты.&lt;/span&gt;&lt;/font&gt;&lt;/p&gt;&lt;p class=&quot;p1&quot; style=&quot;margin: 0px 0px 0px 21px; text-indent: -21px; font-variant-numeric: normal; font-variant-east-asian: normal; font-variant-alternates: normal; font-kerning: auto; font-optical-sizing: auto; font-feature-settings: normal; font-variation-settings: normal; font-variant-position: normal; font-stretch: normal; line-height: normal;&quot;&gt;&lt;font face=&quot;Times New Roman&quot; color=&quot;#0e0e0e&quot;&gt;&lt;span style=&quot;font-size: 15px; font-weight: 400;&quot;&gt;12, 13. Сервис отчетов запрашивает информацию из смежных сервисов для формирования актуальных отчетов.&lt;/span&gt;&lt;/font&gt;&lt;/p&gt;&lt;/h1&gt;" style="text;html=1;whiteSpace=wrap;overflow=hidden;rounded=0;fontSize=15;fillColor=#60a917;fontColor=#ffffff;strokeColor=#2D7600;" parent="1" vertex="1">
          <mxGeometry x="-3700" y="3669" width="1290" height="481" as="geometry" />
        </mxCell>
        <mxCell id="ro2GFgqDV0QlA6Vm-lQV-1" value="&lt;font style=&quot;font-size: 20px;&quot;&gt;Описание взаимодействий&lt;/font&gt;" style="text;html=1;align=center;verticalAlign=middle;whiteSpace=wrap;rounded=0;" parent="1" vertex="1">
          <mxGeometry x="-3430" y="3630" width="310" height="30" as="geometry" />
        </mxCell>
        <mxCell id="2AGFnVR7y4NEZtL3Teil-1" value="" style="group" parent="1" vertex="1" connectable="0">
          <mxGeometry x="-3590" y="520" width="309" height="39" as="geometry" />
        </mxCell>
        <mxCell id="BZBJQn5B5M7l6MrAMs_o-7" value="" style="group" parent="2AGFnVR7y4NEZtL3Teil-1" vertex="1" connectable="0">
          <mxGeometry width="309" height="39" as="geometry" />
        </mxCell>
        <mxCell id="aNh6FEuhw9lsT8rE3H5J-122" value="" style="rounded=1;whiteSpace=wrap;html=1;gradientColor=none;fillColor=#1C57CD;strokeColor=none;movable=1;resizable=1;rotatable=1;deletable=1;editable=1;locked=0;connectable=1;" parent="BZBJQn5B5M7l6MrAMs_o-7" vertex="1">
          <mxGeometry width="309" height="39" as="geometry" />
        </mxCell>
        <mxCell id="aNh6FEuhw9lsT8rE3H5J-123" value="" style="sketch=0;outlineConnect=0;dashed=0;verticalLabelPosition=bottom;verticalAlign=top;align=center;html=1;fontSize=12;fontStyle=0;aspect=fixed;pointerEvents=1;shape=mxgraph.aws4.gear;rounded=1;strokeColor=none;fillColor=default;" parent="BZBJQn5B5M7l6MrAMs_o-7" vertex="1">
          <mxGeometry x="280" y="11" width="17" height="17" as="geometry" />
        </mxCell>
        <mxCell id="aNh6FEuhw9lsT8rE3H5J-93" value="Регистрация пользователя" style="text;html=1;align=center;verticalAlign=middle;whiteSpace=wrap;rounded=1;fontSize=13;fontColor=#FFFFFF;strokeColor=none;movable=1;resizable=1;rotatable=1;deletable=1;editable=1;locked=0;connectable=1;" parent="BZBJQn5B5M7l6MrAMs_o-7" vertex="1">
          <mxGeometry x="3" y="4.5" width="172" height="30" as="geometry" />
        </mxCell>
        <mxCell id="BZBJQn5B5M7l6MrAMs_o-8" value="" style="group" parent="1" vertex="1" connectable="0">
          <mxGeometry x="-3590" y="570" width="309" height="39" as="geometry" />
        </mxCell>
        <mxCell id="Tz6aEU4ManMyac2rpAqn-42" value="" style="rounded=1;whiteSpace=wrap;html=1;fillColor=#1C57CD;strokeColor=none;" parent="BZBJQn5B5M7l6MrAMs_o-8" vertex="1">
          <mxGeometry width="309" height="39" as="geometry" />
        </mxCell>
        <mxCell id="Tz6aEU4ManMyac2rpAqn-43" value="" style="sketch=0;outlineConnect=0;fontColor=#232F3E;gradientColor=none;fillColor=default;strokeColor=none;dashed=0;verticalLabelPosition=bottom;verticalAlign=top;align=center;html=1;fontSize=12;fontStyle=0;aspect=fixed;pointerEvents=1;shape=mxgraph.aws4.gear;rounded=1;" parent="BZBJQn5B5M7l6MrAMs_o-8" vertex="1">
          <mxGeometry x="280" y="11" width="17" height="17" as="geometry" />
        </mxCell>
        <mxCell id="Tz6aEU4ManMyac2rpAqn-44" value="Аутентификация" style="text;html=1;align=center;verticalAlign=middle;whiteSpace=wrap;rounded=1;fontSize=13;fontColor=#FFFFFF;strokeColor=none;" parent="BZBJQn5B5M7l6MrAMs_o-8" vertex="1">
          <mxGeometry x="2" y="4.5" width="114" height="30" as="geometry" />
        </mxCell>
        <mxCell id="BZBJQn5B5M7l6MrAMs_o-9" value="" style="group" parent="1" vertex="1" connectable="0">
          <mxGeometry x="-3590" y="620" width="309" height="39" as="geometry" />
        </mxCell>
        <mxCell id="Tz6aEU4ManMyac2rpAqn-45" value="" style="rounded=1;whiteSpace=wrap;html=1;fillColor=#1C57CD;strokeColor=none;" parent="BZBJQn5B5M7l6MrAMs_o-9" vertex="1">
          <mxGeometry width="309" height="39" as="geometry" />
        </mxCell>
        <mxCell id="Tz6aEU4ManMyac2rpAqn-46" value="" style="sketch=0;outlineConnect=0;fontColor=#232F3E;gradientColor=none;fillColor=default;strokeColor=none;dashed=0;verticalLabelPosition=bottom;verticalAlign=top;align=center;html=1;fontSize=12;fontStyle=0;aspect=fixed;pointerEvents=1;shape=mxgraph.aws4.gear;rounded=1;" parent="BZBJQn5B5M7l6MrAMs_o-9" vertex="1">
          <mxGeometry x="280" y="11" width="17" height="17" as="geometry" />
        </mxCell>
        <mxCell id="Tz6aEU4ManMyac2rpAqn-47" value="Присвоение ролей" style="text;html=1;align=center;verticalAlign=middle;whiteSpace=wrap;rounded=1;fontSize=13;fontColor=#FFFFFF;strokeColor=none;" parent="BZBJQn5B5M7l6MrAMs_o-9" vertex="1">
          <mxGeometry x="3" y="5" width="122" height="30" as="geometry" />
        </mxCell>
        <mxCell id="BZBJQn5B5M7l6MrAMs_o-10" value="" style="group;movable=1;resizable=1;rotatable=1;deletable=1;editable=1;locked=0;connectable=1;" parent="1" vertex="1" connectable="0">
          <mxGeometry x="-2750" y="3170" width="309" height="39" as="geometry" />
        </mxCell>
        <mxCell id="Tz6aEU4ManMyac2rpAqn-72" value="" style="rounded=1;whiteSpace=wrap;html=1;fillColor=#1C57CD;strokeColor=none;movable=1;resizable=1;rotatable=1;deletable=1;editable=1;locked=0;connectable=1;" parent="BZBJQn5B5M7l6MrAMs_o-10" vertex="1">
          <mxGeometry width="309" height="39" as="geometry" />
        </mxCell>
        <mxCell id="Tz6aEU4ManMyac2rpAqn-73" value="" style="sketch=0;outlineConnect=0;fontColor=#232F3E;gradientColor=none;fillColor=default;strokeColor=none;dashed=0;verticalLabelPosition=bottom;verticalAlign=top;align=center;html=1;fontSize=12;fontStyle=0;aspect=fixed;pointerEvents=1;shape=mxgraph.aws4.gear;rounded=1;movable=1;resizable=1;rotatable=1;deletable=1;editable=1;locked=0;connectable=1;" parent="BZBJQn5B5M7l6MrAMs_o-10" vertex="1">
          <mxGeometry x="280" y="11" width="17" height="17" as="geometry" />
        </mxCell>
        <mxCell id="Tz6aEU4ManMyac2rpAqn-74" value="Нотификация нового пользователя" style="text;html=1;align=center;verticalAlign=middle;whiteSpace=wrap;rounded=1;fontSize=13;fontColor=#FFFFFF;strokeColor=none;movable=1;resizable=1;rotatable=1;deletable=1;editable=1;locked=0;connectable=1;" parent="BZBJQn5B5M7l6MrAMs_o-10" vertex="1">
          <mxGeometry x="3" y="4.5" width="227" height="30" as="geometry" />
        </mxCell>
        <mxCell id="BZBJQn5B5M7l6MrAMs_o-11" value="" style="group" parent="1" vertex="1" connectable="0">
          <mxGeometry x="-3590" y="670" width="309" height="39" as="geometry" />
        </mxCell>
        <mxCell id="Tz6aEU4ManMyac2rpAqn-48" value="" style="rounded=1;whiteSpace=wrap;html=1;fillColor=#1C57CD;strokeColor=none;" parent="BZBJQn5B5M7l6MrAMs_o-11" vertex="1">
          <mxGeometry width="309" height="39" as="geometry" />
        </mxCell>
        <mxCell id="Tz6aEU4ManMyac2rpAqn-49" value="" style="sketch=0;outlineConnect=0;fontColor=#232F3E;gradientColor=none;fillColor=default;strokeColor=none;dashed=0;verticalLabelPosition=bottom;verticalAlign=top;align=center;html=1;fontSize=12;fontStyle=0;aspect=fixed;pointerEvents=1;shape=mxgraph.aws4.gear;rounded=1;" parent="BZBJQn5B5M7l6MrAMs_o-11" vertex="1">
          <mxGeometry x="280" y="11" width="17" height="17" as="geometry" />
        </mxCell>
        <mxCell id="Tz6aEU4ManMyac2rpAqn-50" value="Валидация токена безопасности" style="text;html=1;align=center;verticalAlign=middle;whiteSpace=wrap;rounded=1;fontSize=13;fontColor=#FFFFFF;strokeColor=none;" parent="BZBJQn5B5M7l6MrAMs_o-11" vertex="1">
          <mxGeometry x="3" y="4.5" width="209" height="30" as="geometry" />
        </mxCell>
        <mxCell id="BZBJQn5B5M7l6MrAMs_o-12" value="" style="group" parent="1" vertex="1" connectable="0">
          <mxGeometry x="-1980" y="1340" width="309" height="39" as="geometry" />
        </mxCell>
        <mxCell id="Tz6aEU4ManMyac2rpAqn-66" value="" style="rounded=1;whiteSpace=wrap;html=1;fillColor=#1C57CD;strokeColor=none;" parent="BZBJQn5B5M7l6MrAMs_o-12" vertex="1">
          <mxGeometry width="309" height="39" as="geometry" />
        </mxCell>
        <mxCell id="Tz6aEU4ManMyac2rpAqn-67" value="" style="sketch=0;outlineConnect=0;fontColor=#232F3E;gradientColor=none;fillColor=default;strokeColor=none;dashed=0;verticalLabelPosition=bottom;verticalAlign=top;align=center;html=1;fontSize=12;fontStyle=0;aspect=fixed;pointerEvents=1;shape=mxgraph.aws4.gear;rounded=1;" parent="BZBJQn5B5M7l6MrAMs_o-12" vertex="1">
          <mxGeometry x="282" y="11" width="17" height="17" as="geometry" />
        </mxCell>
        <mxCell id="Tz6aEU4ManMyac2rpAqn-68" value="Удалить услугу пользователя" style="text;html=1;align=center;verticalAlign=middle;whiteSpace=wrap;rounded=1;fontSize=13;fontColor=#FFFFFF;strokeColor=none;" parent="BZBJQn5B5M7l6MrAMs_o-12" vertex="1">
          <mxGeometry x="3" y="4.5" width="189" height="30" as="geometry" />
        </mxCell>
        <mxCell id="BZBJQn5B5M7l6MrAMs_o-13" value="" style="group" parent="1" vertex="1" connectable="0">
          <mxGeometry x="-1980" y="1190" width="309" height="39" as="geometry" />
        </mxCell>
        <mxCell id="Tz6aEU4ManMyac2rpAqn-69" value="" style="rounded=1;whiteSpace=wrap;html=1;fillColor=#1C57CD;strokeColor=none;" parent="BZBJQn5B5M7l6MrAMs_o-13" vertex="1">
          <mxGeometry width="309" height="39" as="geometry" />
        </mxCell>
        <mxCell id="Tz6aEU4ManMyac2rpAqn-70" value="" style="sketch=0;outlineConnect=0;fontColor=#232F3E;gradientColor=none;fillColor=default;strokeColor=none;dashed=0;verticalLabelPosition=bottom;verticalAlign=top;align=center;html=1;fontSize=12;fontStyle=0;aspect=fixed;pointerEvents=1;shape=mxgraph.aws4.gear;rounded=1;" parent="BZBJQn5B5M7l6MrAMs_o-13" vertex="1">
          <mxGeometry x="282" y="11" width="17" height="17" as="geometry" />
        </mxCell>
        <mxCell id="Tz6aEU4ManMyac2rpAqn-71" value="Удалить товар пользователя" style="text;html=1;align=center;verticalAlign=middle;whiteSpace=wrap;rounded=1;fontSize=13;fontColor=#FFFFFF;strokeColor=none;" parent="BZBJQn5B5M7l6MrAMs_o-13" vertex="1">
          <mxGeometry x="2" y="4.5" width="188" height="30" as="geometry" />
        </mxCell>
        <mxCell id="BZBJQn5B5M7l6MrAMs_o-21" value="" style="group;movable=1;resizable=1;rotatable=1;deletable=1;editable=1;locked=0;connectable=1;" parent="1" vertex="1" connectable="0">
          <mxGeometry x="-2750" y="3220" width="309" height="39" as="geometry" />
        </mxCell>
        <mxCell id="Tz6aEU4ManMyac2rpAqn-96" value="" style="rounded=1;whiteSpace=wrap;html=1;fillColor=#1C57CD;strokeColor=none;movable=1;resizable=1;rotatable=1;deletable=1;editable=1;locked=0;connectable=1;" parent="BZBJQn5B5M7l6MrAMs_o-21" vertex="1">
          <mxGeometry width="309" height="39" as="geometry" />
        </mxCell>
        <mxCell id="Tz6aEU4ManMyac2rpAqn-97" value="" style="sketch=0;outlineConnect=0;fontColor=#232F3E;gradientColor=none;fillColor=default;strokeColor=none;dashed=0;verticalLabelPosition=bottom;verticalAlign=top;align=center;html=1;fontSize=12;fontStyle=0;aspect=fixed;pointerEvents=1;shape=mxgraph.aws4.gear;rounded=1;movable=1;resizable=1;rotatable=1;deletable=1;editable=1;locked=0;connectable=1;" parent="BZBJQn5B5M7l6MrAMs_o-21" vertex="1">
          <mxGeometry x="282" y="11" width="17" height="17" as="geometry" />
        </mxCell>
        <mxCell id="Tz6aEU4ManMyac2rpAqn-98" value="Нотификация об изменении состояния заказа" style="text;html=1;align=center;verticalAlign=middle;whiteSpace=wrap;rounded=1;fontSize=13;fontColor=#FFFFFF;strokeColor=none;movable=1;resizable=1;rotatable=1;deletable=1;editable=1;locked=0;connectable=1;" parent="BZBJQn5B5M7l6MrAMs_o-21" vertex="1">
          <mxGeometry x="6" y="4.5" width="247" height="30" as="geometry" />
        </mxCell>
        <mxCell id="BZBJQn5B5M7l6MrAMs_o-22" value="" style="group" parent="1" vertex="1" connectable="0">
          <mxGeometry x="-1070" y="830" width="309" height="39" as="geometry" />
        </mxCell>
        <mxCell id="Tz6aEU4ManMyac2rpAqn-106" value="" style="rounded=1;whiteSpace=wrap;html=1;fillColor=#1C57CD;strokeColor=none;" parent="BZBJQn5B5M7l6MrAMs_o-22" vertex="1">
          <mxGeometry width="309" height="39" as="geometry" />
        </mxCell>
        <mxCell id="Tz6aEU4ManMyac2rpAqn-107" value="" style="sketch=0;outlineConnect=0;fontColor=#232F3E;gradientColor=none;fillColor=#FFFFFF;strokeColor=none;dashed=0;verticalLabelPosition=bottom;verticalAlign=top;align=center;html=1;fontSize=12;fontStyle=0;aspect=fixed;pointerEvents=1;shape=mxgraph.aws4.gear;rounded=1;" parent="BZBJQn5B5M7l6MrAMs_o-22" vertex="1">
          <mxGeometry x="286" y="11" width="17" height="17" as="geometry" />
        </mxCell>
        <mxCell id="Tz6aEU4ManMyac2rpAqn-108" value="Определить способ оплаты" style="text;html=1;align=center;verticalAlign=middle;whiteSpace=wrap;rounded=1;fontSize=13;fontColor=#FFFFFF;strokeColor=none;" parent="BZBJQn5B5M7l6MrAMs_o-22" vertex="1">
          <mxGeometry x="7" y="4.5" width="173" height="30" as="geometry" />
        </mxCell>
        <mxCell id="BZBJQn5B5M7l6MrAMs_o-23" value="" style="group" parent="1" vertex="1" connectable="0">
          <mxGeometry x="-1980" y="1240" width="309" height="39" as="geometry" />
        </mxCell>
        <mxCell id="Tz6aEU4ManMyac2rpAqn-54" value="" style="rounded=1;whiteSpace=wrap;html=1;fillColor=#1C57CD;strokeColor=none;" parent="BZBJQn5B5M7l6MrAMs_o-23" vertex="1">
          <mxGeometry width="309" height="39" as="geometry" />
        </mxCell>
        <mxCell id="Tz6aEU4ManMyac2rpAqn-55" value="" style="sketch=0;outlineConnect=0;fontColor=#232F3E;gradientColor=none;fillColor=#FFFFFF;strokeColor=none;dashed=0;verticalLabelPosition=bottom;verticalAlign=top;align=center;html=1;fontSize=12;fontStyle=0;aspect=fixed;pointerEvents=1;shape=mxgraph.aws4.gear;rounded=1;" parent="BZBJQn5B5M7l6MrAMs_o-23" vertex="1">
          <mxGeometry x="286" y="11" width="17" height="17" as="geometry" />
        </mxCell>
        <mxCell id="Tz6aEU4ManMyac2rpAqn-56" value="Добавить товар в профиль пользователя" style="text;html=1;align=center;verticalAlign=middle;whiteSpace=wrap;rounded=1;fontSize=13;fontColor=#FFFFFF;strokeColor=none;" parent="BZBJQn5B5M7l6MrAMs_o-23" vertex="1">
          <mxGeometry x="8" y="4" width="262" height="30" as="geometry" />
        </mxCell>
        <mxCell id="BZBJQn5B5M7l6MrAMs_o-24" value="" style="group" parent="1" vertex="1" connectable="0">
          <mxGeometry x="-1980" y="1287" width="309" height="39" as="geometry" />
        </mxCell>
        <mxCell id="Tz6aEU4ManMyac2rpAqn-57" value="" style="rounded=1;whiteSpace=wrap;html=1;fillColor=#1C57CD;strokeColor=none;" parent="BZBJQn5B5M7l6MrAMs_o-24" vertex="1">
          <mxGeometry width="309" height="39" as="geometry" />
        </mxCell>
        <mxCell id="Tz6aEU4ManMyac2rpAqn-58" value="" style="sketch=0;outlineConnect=0;fontColor=#232F3E;gradientColor=none;fillColor=#FFFFFF;strokeColor=none;dashed=0;verticalLabelPosition=bottom;verticalAlign=top;align=center;html=1;fontSize=12;fontStyle=0;aspect=fixed;pointerEvents=1;shape=mxgraph.aws4.gear;rounded=1;" parent="BZBJQn5B5M7l6MrAMs_o-24" vertex="1">
          <mxGeometry x="286" y="10" width="17" height="17" as="geometry" />
        </mxCell>
        <mxCell id="Tz6aEU4ManMyac2rpAqn-59" value="Добавить услугу в профиль пользователя" style="text;html=1;align=center;verticalAlign=middle;whiteSpace=wrap;rounded=1;fontSize=13;fontColor=#FFFFFF;strokeColor=none;" parent="BZBJQn5B5M7l6MrAMs_o-24" vertex="1">
          <mxGeometry x="2" y="5" width="273" height="30" as="geometry" />
        </mxCell>
        <mxCell id="BZBJQn5B5M7l6MrAMs_o-25" value="" style="group" parent="1" vertex="1" connectable="0">
          <mxGeometry x="-1980" y="1140" width="309" height="39" as="geometry" />
        </mxCell>
        <mxCell id="Tz6aEU4ManMyac2rpAqn-60" value="" style="rounded=1;whiteSpace=wrap;html=1;fillColor=#1C57CD;strokeColor=none;" parent="BZBJQn5B5M7l6MrAMs_o-25" vertex="1">
          <mxGeometry width="309" height="39" as="geometry" />
        </mxCell>
        <mxCell id="Tz6aEU4ManMyac2rpAqn-61" value="" style="sketch=0;outlineConnect=0;fontColor=#232F3E;gradientColor=none;fillColor=#FFFFFF;strokeColor=none;dashed=0;verticalLabelPosition=bottom;verticalAlign=top;align=center;html=1;fontSize=12;fontStyle=0;aspect=fixed;pointerEvents=1;shape=mxgraph.aws4.gear;rounded=1;" parent="BZBJQn5B5M7l6MrAMs_o-25" vertex="1">
          <mxGeometry x="286" y="11" width="17" height="17" as="geometry" />
        </mxCell>
        <mxCell id="Tz6aEU4ManMyac2rpAqn-62" value="Изменить товар пользователя" style="text;html=1;align=center;verticalAlign=middle;whiteSpace=wrap;rounded=1;fontSize=13;fontColor=#FFFFFF;strokeColor=none;" parent="BZBJQn5B5M7l6MrAMs_o-25" vertex="1">
          <mxGeometry x="7" y="3" width="195" height="30" as="geometry" />
        </mxCell>
        <mxCell id="BZBJQn5B5M7l6MrAMs_o-26" value="" style="group" parent="1" vertex="1" connectable="0">
          <mxGeometry x="-1980" y="1390" width="309" height="39" as="geometry" />
        </mxCell>
        <mxCell id="Tz6aEU4ManMyac2rpAqn-63" value="" style="rounded=1;whiteSpace=wrap;html=1;fillColor=#1C57CD;strokeColor=none;" parent="BZBJQn5B5M7l6MrAMs_o-26" vertex="1">
          <mxGeometry width="309" height="39" as="geometry" />
        </mxCell>
        <mxCell id="Tz6aEU4ManMyac2rpAqn-64" value="" style="sketch=0;outlineConnect=0;fontColor=#232F3E;gradientColor=none;fillColor=#FFFFFF;strokeColor=none;dashed=0;verticalLabelPosition=bottom;verticalAlign=top;align=center;html=1;fontSize=12;fontStyle=0;aspect=fixed;pointerEvents=1;shape=mxgraph.aws4.gear;rounded=1;" parent="BZBJQn5B5M7l6MrAMs_o-26" vertex="1">
          <mxGeometry x="286" y="11" width="17" height="17" as="geometry" />
        </mxCell>
        <mxCell id="Tz6aEU4ManMyac2rpAqn-65" value="Изменить услугу пользователя" style="text;html=1;align=center;verticalAlign=middle;whiteSpace=wrap;rounded=1;fontSize=13;fontColor=#FFFFFF;strokeColor=none;" parent="BZBJQn5B5M7l6MrAMs_o-26" vertex="1">
          <mxGeometry x="4" y="4.5" width="195" height="30" as="geometry" />
        </mxCell>
        <mxCell id="BZBJQn5B5M7l6MrAMs_o-27" value="" style="group" parent="1" vertex="1" connectable="0">
          <mxGeometry x="-1970" y="2710" width="309" height="39" as="geometry" />
        </mxCell>
        <mxCell id="Tz6aEU4ManMyac2rpAqn-135" value="" style="rounded=1;whiteSpace=wrap;html=1;fillColor=#1C57CD;strokeColor=none;" parent="BZBJQn5B5M7l6MrAMs_o-27" vertex="1">
          <mxGeometry width="309" height="39" as="geometry" />
        </mxCell>
        <mxCell id="Tz6aEU4ManMyac2rpAqn-136" value="" style="sketch=0;outlineConnect=0;fontColor=#232F3E;gradientColor=none;fillColor=#FFFFFF;strokeColor=none;dashed=0;verticalLabelPosition=bottom;verticalAlign=top;align=center;html=1;fontSize=12;fontStyle=0;aspect=fixed;pointerEvents=1;shape=mxgraph.aws4.gear;rounded=1;" parent="BZBJQn5B5M7l6MrAMs_o-27" vertex="1">
          <mxGeometry x="286" y="11" width="17" height="17" as="geometry" />
        </mxCell>
        <mxCell id="Tz6aEU4ManMyac2rpAqn-137" value="Создать аукцион" style="text;html=1;align=center;verticalAlign=middle;whiteSpace=wrap;rounded=1;fontSize=13;fontColor=#FFFFFF;strokeColor=none;" parent="BZBJQn5B5M7l6MrAMs_o-27" vertex="1">
          <mxGeometry x="3" y="4.5" width="113" height="30" as="geometry" />
        </mxCell>
        <mxCell id="BZBJQn5B5M7l6MrAMs_o-28" value="" style="group" parent="1" vertex="1" connectable="0">
          <mxGeometry x="-1970" y="2757.5" width="309" height="39" as="geometry" />
        </mxCell>
        <mxCell id="Tz6aEU4ManMyac2rpAqn-140" value="" style="rounded=1;whiteSpace=wrap;html=1;fillColor=#1C57CD;strokeColor=none;" parent="BZBJQn5B5M7l6MrAMs_o-28" vertex="1">
          <mxGeometry width="309" height="39" as="geometry" />
        </mxCell>
        <mxCell id="Tz6aEU4ManMyac2rpAqn-141" value="" style="sketch=0;outlineConnect=0;fontColor=#232F3E;gradientColor=none;fillColor=#FFFFFF;strokeColor=none;dashed=0;verticalLabelPosition=bottom;verticalAlign=top;align=center;html=1;fontSize=12;fontStyle=0;aspect=fixed;pointerEvents=1;shape=mxgraph.aws4.gear;rounded=1;" parent="BZBJQn5B5M7l6MrAMs_o-28" vertex="1">
          <mxGeometry x="286" y="11" width="17" height="17" as="geometry" />
        </mxCell>
        <mxCell id="Tz6aEU4ManMyac2rpAqn-142" value="Редактировать аукцион" style="text;html=1;align=center;verticalAlign=middle;whiteSpace=wrap;rounded=1;fontSize=13;fontColor=#FFFFFF;strokeColor=none;" parent="BZBJQn5B5M7l6MrAMs_o-28" vertex="1">
          <mxGeometry x="3" y="4.5" width="160" height="30" as="geometry" />
        </mxCell>
        <mxCell id="BZBJQn5B5M7l6MrAMs_o-29" value="" style="group" parent="1" vertex="1" connectable="0">
          <mxGeometry x="-1970" y="2805" width="309" height="39" as="geometry" />
        </mxCell>
        <mxCell id="Tz6aEU4ManMyac2rpAqn-143" value="" style="rounded=1;whiteSpace=wrap;html=1;fillColor=#1C57CD;strokeColor=none;" parent="BZBJQn5B5M7l6MrAMs_o-29" vertex="1">
          <mxGeometry width="309" height="39" as="geometry" />
        </mxCell>
        <mxCell id="Tz6aEU4ManMyac2rpAqn-144" value="" style="sketch=0;outlineConnect=0;fontColor=#232F3E;gradientColor=none;fillColor=#FFFFFF;strokeColor=none;dashed=0;verticalLabelPosition=bottom;verticalAlign=top;align=center;html=1;fontSize=12;fontStyle=0;aspect=fixed;pointerEvents=1;shape=mxgraph.aws4.gear;rounded=1;" parent="BZBJQn5B5M7l6MrAMs_o-29" vertex="1">
          <mxGeometry x="286" y="11" width="17" height="17" as="geometry" />
        </mxCell>
        <mxCell id="Tz6aEU4ManMyac2rpAqn-145" value="Обработать новую заявку на аукцион" style="text;html=1;align=center;verticalAlign=middle;whiteSpace=wrap;rounded=1;fontSize=13;fontColor=#FFFFFF;strokeColor=none;" parent="BZBJQn5B5M7l6MrAMs_o-29" vertex="1">
          <mxGeometry x="3" y="4.5" width="241" height="30" as="geometry" />
        </mxCell>
        <mxCell id="BZBJQn5B5M7l6MrAMs_o-30" value="" style="group" parent="1" vertex="1" connectable="0">
          <mxGeometry x="-1970" y="2853" width="309" height="39" as="geometry" />
        </mxCell>
        <mxCell id="Tz6aEU4ManMyac2rpAqn-146" value="" style="rounded=1;whiteSpace=wrap;html=1;fillColor=#1C57CD;strokeColor=none;" parent="BZBJQn5B5M7l6MrAMs_o-30" vertex="1">
          <mxGeometry width="309" height="39" as="geometry" />
        </mxCell>
        <mxCell id="Tz6aEU4ManMyac2rpAqn-147" value="" style="sketch=0;outlineConnect=0;fontColor=#232F3E;gradientColor=none;fillColor=#FFFFFF;strokeColor=none;dashed=0;verticalLabelPosition=bottom;verticalAlign=top;align=center;html=1;fontSize=12;fontStyle=0;aspect=fixed;pointerEvents=1;shape=mxgraph.aws4.gear;rounded=1;" parent="BZBJQn5B5M7l6MrAMs_o-30" vertex="1">
          <mxGeometry x="286" y="11" width="17" height="17" as="geometry" />
        </mxCell>
        <mxCell id="Tz6aEU4ManMyac2rpAqn-148" value="Обновление ставок аукциона" style="text;html=1;align=center;verticalAlign=middle;whiteSpace=wrap;rounded=1;fontSize=13;fontColor=#FFFFFF;strokeColor=none;" parent="BZBJQn5B5M7l6MrAMs_o-30" vertex="1">
          <mxGeometry x="4" y="4.5" width="189" height="30" as="geometry" />
        </mxCell>
        <mxCell id="BZBJQn5B5M7l6MrAMs_o-31" value="" style="group;movable=1;resizable=1;rotatable=1;deletable=1;editable=1;locked=0;connectable=1;" parent="1" vertex="1" connectable="0">
          <mxGeometry x="-2750" y="3270" width="309" height="39" as="geometry" />
        </mxCell>
        <mxCell id="Tz6aEU4ManMyac2rpAqn-149" value="" style="rounded=1;whiteSpace=wrap;html=1;fillColor=#1C57CD;strokeColor=none;movable=1;resizable=1;rotatable=1;deletable=1;editable=1;locked=0;connectable=1;" parent="BZBJQn5B5M7l6MrAMs_o-31" vertex="1">
          <mxGeometry width="309" height="39" as="geometry" />
        </mxCell>
        <mxCell id="Tz6aEU4ManMyac2rpAqn-150" value="" style="sketch=0;outlineConnect=0;fontColor=#232F3E;gradientColor=none;fillColor=#FFFFFF;strokeColor=none;dashed=0;verticalLabelPosition=bottom;verticalAlign=top;align=center;html=1;fontSize=12;fontStyle=0;aspect=fixed;pointerEvents=1;shape=mxgraph.aws4.gear;rounded=1;movable=1;resizable=1;rotatable=1;deletable=1;editable=1;locked=0;connectable=1;" parent="BZBJQn5B5M7l6MrAMs_o-31" vertex="1">
          <mxGeometry x="286" y="11" width="17" height="17" as="geometry" />
        </mxCell>
        <mxCell id="Tz6aEU4ManMyac2rpAqn-151" value="Нотификация участника аукциона" style="text;html=1;align=center;verticalAlign=middle;whiteSpace=wrap;rounded=1;fontSize=13;fontColor=#FFFFFF;strokeColor=none;movable=1;resizable=1;rotatable=1;deletable=1;editable=1;locked=0;connectable=1;" parent="BZBJQn5B5M7l6MrAMs_o-31" vertex="1">
          <mxGeometry x="3" y="4.5" width="218" height="30" as="geometry" />
        </mxCell>
        <mxCell id="BZBJQn5B5M7l6MrAMs_o-32" value="" style="group" parent="1" vertex="1" connectable="0">
          <mxGeometry x="-1640" y="510" width="309" height="39" as="geometry" />
        </mxCell>
        <mxCell id="cKbgiC5qh_IXnBO1eU4K-1" value="" style="rounded=1;whiteSpace=wrap;html=1;fillColor=#1C57CD;strokeColor=none;" parent="BZBJQn5B5M7l6MrAMs_o-32" vertex="1">
          <mxGeometry width="309" height="39" as="geometry" />
        </mxCell>
        <mxCell id="cKbgiC5qh_IXnBO1eU4K-2" value="" style="sketch=0;outlineConnect=0;fontColor=#232F3E;gradientColor=none;fillColor=#FFFFFF;strokeColor=none;dashed=0;verticalLabelPosition=bottom;verticalAlign=top;align=center;html=1;fontSize=12;fontStyle=0;aspect=fixed;pointerEvents=1;shape=mxgraph.aws4.gear;rounded=1;" parent="BZBJQn5B5M7l6MrAMs_o-32" vertex="1">
          <mxGeometry x="286" y="11" width="17" height="17" as="geometry" />
        </mxCell>
        <mxCell id="cKbgiC5qh_IXnBO1eU4K-3" value="Поиск товаров" style="text;html=1;align=center;verticalAlign=middle;whiteSpace=wrap;rounded=1;fontSize=13;fontColor=#FFFFFF;strokeColor=none;" parent="BZBJQn5B5M7l6MrAMs_o-32" vertex="1">
          <mxGeometry x="3" y="4.5" width="99" height="30" as="geometry" />
        </mxCell>
        <mxCell id="BZBJQn5B5M7l6MrAMs_o-33" value="" style="group" parent="1" vertex="1" connectable="0">
          <mxGeometry x="-1640" y="560" width="309" height="39" as="geometry" />
        </mxCell>
        <mxCell id="cKbgiC5qh_IXnBO1eU4K-4" value="" style="rounded=1;whiteSpace=wrap;html=1;fillColor=#1C57CD;strokeColor=none;" parent="BZBJQn5B5M7l6MrAMs_o-33" vertex="1">
          <mxGeometry width="309" height="39" as="geometry" />
        </mxCell>
        <mxCell id="cKbgiC5qh_IXnBO1eU4K-5" value="" style="sketch=0;outlineConnect=0;fontColor=#232F3E;gradientColor=none;fillColor=#FFFFFF;strokeColor=none;dashed=0;verticalLabelPosition=bottom;verticalAlign=top;align=center;html=1;fontSize=12;fontStyle=0;aspect=fixed;pointerEvents=1;shape=mxgraph.aws4.gear;rounded=1;" parent="BZBJQn5B5M7l6MrAMs_o-33" vertex="1">
          <mxGeometry x="286" y="11" width="17" height="17" as="geometry" />
        </mxCell>
        <mxCell id="cKbgiC5qh_IXnBO1eU4K-6" value="Поиск услуг" style="text;html=1;align=center;verticalAlign=middle;whiteSpace=wrap;rounded=1;fontSize=13;fontColor=#FFFFFF;strokeColor=none;" parent="BZBJQn5B5M7l6MrAMs_o-33" vertex="1">
          <mxGeometry x="4" y="4" width="81" height="30" as="geometry" />
        </mxCell>
        <mxCell id="BZBJQn5B5M7l6MrAMs_o-34" value="" style="group" parent="1" vertex="1" connectable="0">
          <mxGeometry x="-1640" y="610" width="309" height="39" as="geometry" />
        </mxCell>
        <mxCell id="cKbgiC5qh_IXnBO1eU4K-7" value="" style="rounded=1;whiteSpace=wrap;html=1;fillColor=#1C57CD;strokeColor=none;" parent="BZBJQn5B5M7l6MrAMs_o-34" vertex="1">
          <mxGeometry width="309" height="39" as="geometry" />
        </mxCell>
        <mxCell id="cKbgiC5qh_IXnBO1eU4K-8" value="" style="sketch=0;outlineConnect=0;fontColor=#232F3E;gradientColor=none;fillColor=#FFFFFF;strokeColor=none;dashed=0;verticalLabelPosition=bottom;verticalAlign=top;align=center;html=1;fontSize=12;fontStyle=0;aspect=fixed;pointerEvents=1;shape=mxgraph.aws4.gear;rounded=1;" parent="BZBJQn5B5M7l6MrAMs_o-34" vertex="1">
          <mxGeometry x="286" y="11" width="17" height="17" as="geometry" />
        </mxCell>
        <mxCell id="cKbgiC5qh_IXnBO1eU4K-9" value="Фильтрация и сортировка результатов" style="text;html=1;align=center;verticalAlign=middle;whiteSpace=wrap;rounded=1;fontSize=13;fontColor=#FFFFFF;strokeColor=none;" parent="BZBJQn5B5M7l6MrAMs_o-34" vertex="1">
          <mxGeometry x="5" y="4.5" width="248" height="30" as="geometry" />
        </mxCell>
        <mxCell id="BZBJQn5B5M7l6MrAMs_o-35" value="" style="group" parent="1" vertex="1" connectable="0">
          <mxGeometry x="-420" y="2210" width="309" height="39" as="geometry" />
        </mxCell>
        <mxCell id="cKbgiC5qh_IXnBO1eU4K-10" value="" style="rounded=1;whiteSpace=wrap;html=1;fillColor=#1C57CD;strokeColor=none;" parent="BZBJQn5B5M7l6MrAMs_o-35" vertex="1">
          <mxGeometry width="309" height="39" as="geometry" />
        </mxCell>
        <mxCell id="cKbgiC5qh_IXnBO1eU4K-11" value="" style="sketch=0;outlineConnect=0;fontColor=#232F3E;gradientColor=none;fillColor=#FFFFFF;strokeColor=none;dashed=0;verticalLabelPosition=bottom;verticalAlign=top;align=center;html=1;fontSize=12;fontStyle=0;aspect=fixed;pointerEvents=1;shape=mxgraph.aws4.gear;rounded=1;" parent="BZBJQn5B5M7l6MrAMs_o-35" vertex="1">
          <mxGeometry x="286" y="11" width="17" height="17" as="geometry" />
        </mxCell>
        <mxCell id="cKbgiC5qh_IXnBO1eU4K-12" value="Сгенерировать отчёт по продажам" style="text;html=1;align=center;verticalAlign=middle;whiteSpace=wrap;rounded=1;fontSize=13;fontColor=#FFFFFF;strokeColor=none;" parent="BZBJQn5B5M7l6MrAMs_o-35" vertex="1">
          <mxGeometry x="6" y="4.5" width="226" height="30" as="geometry" />
        </mxCell>
        <mxCell id="BZBJQn5B5M7l6MrAMs_o-36" value="" style="group" parent="1" vertex="1" connectable="0">
          <mxGeometry x="-420" y="2260" width="309" height="39" as="geometry" />
        </mxCell>
        <mxCell id="cKbgiC5qh_IXnBO1eU4K-13" value="" style="rounded=1;whiteSpace=wrap;html=1;fillColor=#1C57CD;strokeColor=none;" parent="BZBJQn5B5M7l6MrAMs_o-36" vertex="1">
          <mxGeometry width="309" height="39" as="geometry" />
        </mxCell>
        <mxCell id="cKbgiC5qh_IXnBO1eU4K-14" value="" style="sketch=0;outlineConnect=0;fontColor=#232F3E;gradientColor=none;fillColor=#FFFFFF;strokeColor=none;dashed=0;verticalLabelPosition=bottom;verticalAlign=top;align=center;html=1;fontSize=12;fontStyle=0;aspect=fixed;pointerEvents=1;shape=mxgraph.aws4.gear;rounded=1;" parent="BZBJQn5B5M7l6MrAMs_o-36" vertex="1">
          <mxGeometry x="286" y="11" width="17" height="17" as="geometry" />
        </mxCell>
        <mxCell id="cKbgiC5qh_IXnBO1eU4K-15" value="Отобразить статистику заказов" style="text;html=1;align=center;verticalAlign=middle;whiteSpace=wrap;rounded=1;fontSize=13;fontColor=#FFFFFF;strokeColor=none;" parent="BZBJQn5B5M7l6MrAMs_o-36" vertex="1">
          <mxGeometry x="6.5" y="4.5" width="202" height="30" as="geometry" />
        </mxCell>
        <mxCell id="BZBJQn5B5M7l6MrAMs_o-37" value="" style="group" parent="1" vertex="1" connectable="0">
          <mxGeometry x="-1970" y="2666" width="309" height="39" as="geometry" />
        </mxCell>
        <mxCell id="cKbgiC5qh_IXnBO1eU4K-37" value="" style="rounded=1;whiteSpace=wrap;html=1;fillColor=#1C57CD;strokeColor=none;" parent="BZBJQn5B5M7l6MrAMs_o-37" vertex="1">
          <mxGeometry width="309" height="39" as="geometry" />
        </mxCell>
        <mxCell id="cKbgiC5qh_IXnBO1eU4K-38" value="" style="sketch=0;outlineConnect=0;fontColor=#232F3E;gradientColor=none;fillColor=#FFFFFF;strokeColor=none;dashed=0;verticalLabelPosition=bottom;verticalAlign=top;align=center;html=1;fontSize=12;fontStyle=0;aspect=fixed;pointerEvents=1;shape=mxgraph.aws4.gear;rounded=1;" parent="BZBJQn5B5M7l6MrAMs_o-37" vertex="1">
          <mxGeometry x="280" y="11" width="17" height="17" as="geometry" />
        </mxCell>
        <mxCell id="cKbgiC5qh_IXnBO1eU4K-39" value="Обновление статуса аукциона" style="text;html=1;align=center;verticalAlign=middle;whiteSpace=wrap;rounded=1;fontSize=13;fontColor=#FFFFFF;strokeColor=none;" parent="BZBJQn5B5M7l6MrAMs_o-37" vertex="1">
          <mxGeometry y="4.5" width="202" height="30" as="geometry" />
        </mxCell>
        <mxCell id="BZBJQn5B5M7l6MrAMs_o-38" value="" style="group" parent="1" vertex="1" connectable="0">
          <mxGeometry x="-1970" y="2620" width="309" height="39" as="geometry" />
        </mxCell>
        <mxCell id="cKbgiC5qh_IXnBO1eU4K-19" value="" style="rounded=1;whiteSpace=wrap;html=1;fillColor=#1C57CD;strokeColor=none;" parent="BZBJQn5B5M7l6MrAMs_o-38" vertex="1">
          <mxGeometry width="309" height="39" as="geometry" />
        </mxCell>
        <mxCell id="cKbgiC5qh_IXnBO1eU4K-20" value="" style="sketch=0;outlineConnect=0;fontColor=#232F3E;gradientColor=none;fillColor=#FFFFFF;strokeColor=none;dashed=0;verticalLabelPosition=bottom;verticalAlign=top;align=center;html=1;fontSize=12;fontStyle=0;aspect=fixed;pointerEvents=1;shape=mxgraph.aws4.gear;rounded=1;" parent="BZBJQn5B5M7l6MrAMs_o-38" vertex="1">
          <mxGeometry x="280" y="11" width="17" height="17" as="geometry" />
        </mxCell>
        <mxCell id="cKbgiC5qh_IXnBO1eU4K-21" value="Обновление ставок аукциона" style="text;html=1;align=center;verticalAlign=middle;whiteSpace=wrap;rounded=1;fontSize=13;fontColor=#FFFFFF;strokeColor=none;" parent="BZBJQn5B5M7l6MrAMs_o-38" vertex="1">
          <mxGeometry y="4.5" width="202" height="30" as="geometry" />
        </mxCell>
        <mxCell id="BZBJQn5B5M7l6MrAMs_o-39" value="" style="group" parent="1" vertex="1" connectable="0">
          <mxGeometry x="-420" y="2160" width="309" height="39" as="geometry" />
        </mxCell>
        <mxCell id="cKbgiC5qh_IXnBO1eU4K-16" value="" style="rounded=1;whiteSpace=wrap;html=1;fillColor=#1C57CD;strokeColor=none;" parent="BZBJQn5B5M7l6MrAMs_o-39" vertex="1">
          <mxGeometry width="309" height="39" as="geometry" />
        </mxCell>
        <mxCell id="cKbgiC5qh_IXnBO1eU4K-17" value="" style="sketch=0;outlineConnect=0;fontColor=#232F3E;gradientColor=none;fillColor=#FFFFFF;strokeColor=none;dashed=0;verticalLabelPosition=bottom;verticalAlign=top;align=center;html=1;fontSize=12;fontStyle=0;aspect=fixed;pointerEvents=1;shape=mxgraph.aws4.gear;rounded=1;" parent="BZBJQn5B5M7l6MrAMs_o-39" vertex="1">
          <mxGeometry x="280" y="11" width="17" height="17" as="geometry" />
        </mxCell>
        <mxCell id="cKbgiC5qh_IXnBO1eU4K-18" value="Сгенерировать отчёт активности пользователей" style="text;html=1;align=center;verticalAlign=middle;whiteSpace=wrap;rounded=1;fontSize=13;fontColor=#FFFFFF;strokeColor=none;" parent="BZBJQn5B5M7l6MrAMs_o-39" vertex="1">
          <mxGeometry x="5" y="6" width="215" height="30" as="geometry" />
        </mxCell>
        <mxCell id="BZBJQn5B5M7l6MrAMs_o-40" value="" style="group" parent="1" vertex="1" connectable="0">
          <mxGeometry x="-2550" y="747" width="309" height="39" as="geometry" />
        </mxCell>
        <mxCell id="cKbgiC5qh_IXnBO1eU4K-40" value="" style="rounded=1;whiteSpace=wrap;html=1;fillColor=#1C57CD;strokeColor=none;" parent="BZBJQn5B5M7l6MrAMs_o-40" vertex="1">
          <mxGeometry width="309" height="39" as="geometry" />
        </mxCell>
        <mxCell id="cKbgiC5qh_IXnBO1eU4K-41" value="" style="sketch=0;outlineConnect=0;fontColor=#232F3E;gradientColor=none;fillColor=#FFFFFF;strokeColor=none;dashed=0;verticalLabelPosition=bottom;verticalAlign=top;align=center;html=1;fontSize=12;fontStyle=0;aspect=fixed;pointerEvents=1;shape=mxgraph.aws4.gear;rounded=1;" parent="BZBJQn5B5M7l6MrAMs_o-40" vertex="1">
          <mxGeometry x="280" y="11" width="17" height="17" as="geometry" />
        </mxCell>
        <mxCell id="cKbgiC5qh_IXnBO1eU4K-42" value="Обновление статуса заявки" style="text;html=1;align=center;verticalAlign=middle;whiteSpace=wrap;rounded=1;fontSize=13;fontColor=#FFFFFF;strokeColor=none;" parent="BZBJQn5B5M7l6MrAMs_o-40" vertex="1">
          <mxGeometry x="8" y="4" width="176" height="30" as="geometry" />
        </mxCell>
        <mxCell id="BZBJQn5B5M7l6MrAMs_o-41" value="" style="group" parent="1" vertex="1" connectable="0">
          <mxGeometry x="-2550" y="702" width="309" height="39" as="geometry" />
        </mxCell>
        <mxCell id="cKbgiC5qh_IXnBO1eU4K-34" value="" style="rounded=1;whiteSpace=wrap;html=1;fillColor=#1C57CD;strokeColor=none;" parent="BZBJQn5B5M7l6MrAMs_o-41" vertex="1">
          <mxGeometry width="309" height="39" as="geometry" />
        </mxCell>
        <mxCell id="cKbgiC5qh_IXnBO1eU4K-35" value="" style="sketch=0;outlineConnect=0;fontColor=#232F3E;gradientColor=none;fillColor=#FFFFFF;strokeColor=none;dashed=0;verticalLabelPosition=bottom;verticalAlign=top;align=center;html=1;fontSize=12;fontStyle=0;aspect=fixed;pointerEvents=1;shape=mxgraph.aws4.gear;rounded=1;" parent="BZBJQn5B5M7l6MrAMs_o-41" vertex="1">
          <mxGeometry x="280" y="11" width="17" height="17" as="geometry" />
        </mxCell>
        <mxCell id="cKbgiC5qh_IXnBO1eU4K-36" value="Регистрация заявки на техподдержку" style="text;html=1;align=center;verticalAlign=middle;whiteSpace=wrap;rounded=1;fontSize=13;fontColor=#FFFFFF;strokeColor=none;" parent="BZBJQn5B5M7l6MrAMs_o-41" vertex="1">
          <mxGeometry x="4" y="4.5" width="249" height="30" as="geometry" />
        </mxCell>
        <mxCell id="BZBJQn5B5M7l6MrAMs_o-42" value="" style="group" parent="1" vertex="1" connectable="0">
          <mxGeometry x="-2550" y="656" width="309" height="39" as="geometry" />
        </mxCell>
        <mxCell id="cKbgiC5qh_IXnBO1eU4K-31" value="" style="rounded=1;whiteSpace=wrap;html=1;fillColor=#1C57CD;strokeColor=none;" parent="BZBJQn5B5M7l6MrAMs_o-42" vertex="1">
          <mxGeometry width="309" height="39" as="geometry" />
        </mxCell>
        <mxCell id="cKbgiC5qh_IXnBO1eU4K-32" value="" style="sketch=0;outlineConnect=0;fontColor=#232F3E;gradientColor=none;fillColor=#FFFFFF;strokeColor=none;dashed=0;verticalLabelPosition=bottom;verticalAlign=top;align=center;html=1;fontSize=12;fontStyle=0;aspect=fixed;pointerEvents=1;shape=mxgraph.aws4.gear;rounded=1;" parent="BZBJQn5B5M7l6MrAMs_o-42" vertex="1">
          <mxGeometry x="280" y="11" width="17" height="17" as="geometry" />
        </mxCell>
        <mxCell id="cKbgiC5qh_IXnBO1eU4K-33" value="Создать заявку на техподдержку" style="text;html=1;align=center;verticalAlign=middle;whiteSpace=wrap;rounded=1;fontSize=13;fontColor=#FFFFFF;strokeColor=none;" parent="BZBJQn5B5M7l6MrAMs_o-42" vertex="1">
          <mxGeometry y="4.5" width="230" height="30" as="geometry" />
        </mxCell>
        <mxCell id="BZBJQn5B5M7l6MrAMs_o-43" value="" style="group" parent="1" vertex="1" connectable="0">
          <mxGeometry x="-2550" y="612" width="309" height="39" as="geometry" />
        </mxCell>
        <mxCell id="cKbgiC5qh_IXnBO1eU4K-28" value="" style="rounded=1;whiteSpace=wrap;html=1;fillColor=#1C57CD;strokeColor=none;" parent="BZBJQn5B5M7l6MrAMs_o-43" vertex="1">
          <mxGeometry width="309" height="39" as="geometry" />
        </mxCell>
        <mxCell id="cKbgiC5qh_IXnBO1eU4K-29" value="" style="sketch=0;outlineConnect=0;fontColor=#232F3E;gradientColor=none;fillColor=#FFFFFF;strokeColor=none;dashed=0;verticalLabelPosition=bottom;verticalAlign=top;align=center;html=1;fontSize=12;fontStyle=0;aspect=fixed;pointerEvents=1;shape=mxgraph.aws4.gear;rounded=1;" parent="BZBJQn5B5M7l6MrAMs_o-43" vertex="1">
          <mxGeometry x="280" y="11" width="17" height="17" as="geometry" />
        </mxCell>
        <mxCell id="cKbgiC5qh_IXnBO1eU4K-30" value="Обновить статус заявки на апелляцию" style="text;html=1;align=center;verticalAlign=middle;whiteSpace=wrap;rounded=1;fontSize=13;fontColor=#FFFFFF;strokeColor=none;" parent="BZBJQn5B5M7l6MrAMs_o-43" vertex="1">
          <mxGeometry x="3" y="4.5" width="250" height="30" as="geometry" />
        </mxCell>
        <mxCell id="BZBJQn5B5M7l6MrAMs_o-44" value="" style="group" parent="1" vertex="1" connectable="0">
          <mxGeometry x="-2550" y="567" width="309" height="39" as="geometry" />
        </mxCell>
        <mxCell id="cKbgiC5qh_IXnBO1eU4K-25" value="" style="rounded=1;whiteSpace=wrap;html=1;fillColor=#1C57CD;strokeColor=none;" parent="BZBJQn5B5M7l6MrAMs_o-44" vertex="1">
          <mxGeometry width="309" height="39" as="geometry" />
        </mxCell>
        <mxCell id="cKbgiC5qh_IXnBO1eU4K-26" value="" style="sketch=0;outlineConnect=0;fontColor=#232F3E;gradientColor=none;fillColor=#FFFFFF;strokeColor=none;dashed=0;verticalLabelPosition=bottom;verticalAlign=top;align=center;html=1;fontSize=12;fontStyle=0;aspect=fixed;pointerEvents=1;shape=mxgraph.aws4.gear;rounded=1;" parent="BZBJQn5B5M7l6MrAMs_o-44" vertex="1">
          <mxGeometry x="280" y="11" width="17" height="17" as="geometry" />
        </mxCell>
        <mxCell id="cKbgiC5qh_IXnBO1eU4K-27" value="Регистрация заявки на апелляцию" style="text;html=1;align=center;verticalAlign=middle;whiteSpace=wrap;rounded=1;fontSize=13;fontColor=#FFFFFF;strokeColor=none;" parent="BZBJQn5B5M7l6MrAMs_o-44" vertex="1">
          <mxGeometry x="1" y="4.5" width="227" height="30" as="geometry" />
        </mxCell>
        <mxCell id="BZBJQn5B5M7l6MrAMs_o-45" value="" style="group" parent="1" vertex="1" connectable="0">
          <mxGeometry x="-2550" y="520" width="309" height="39" as="geometry" />
        </mxCell>
        <mxCell id="cKbgiC5qh_IXnBO1eU4K-22" value="" style="rounded=1;whiteSpace=wrap;html=1;fillColor=#1C57CD;strokeColor=none;" parent="BZBJQn5B5M7l6MrAMs_o-45" vertex="1">
          <mxGeometry width="309" height="39" as="geometry" />
        </mxCell>
        <mxCell id="cKbgiC5qh_IXnBO1eU4K-23" value="" style="sketch=0;outlineConnect=0;fontColor=#232F3E;gradientColor=none;fillColor=#FFFFFF;strokeColor=none;dashed=0;verticalLabelPosition=bottom;verticalAlign=top;align=center;html=1;fontSize=12;fontStyle=0;aspect=fixed;pointerEvents=1;shape=mxgraph.aws4.gear;rounded=1;" parent="BZBJQn5B5M7l6MrAMs_o-45" vertex="1">
          <mxGeometry x="280" y="11" width="17" height="17" as="geometry" />
        </mxCell>
        <mxCell id="cKbgiC5qh_IXnBO1eU4K-24" value="Создать заявку на апелляцию&amp;nbsp;" style="text;html=1;align=center;verticalAlign=middle;whiteSpace=wrap;rounded=1;fontSize=13;fontColor=#FFFFFF;strokeColor=none;" parent="BZBJQn5B5M7l6MrAMs_o-45" vertex="1">
          <mxGeometry x="4" y="4.5" width="202" height="30" as="geometry" />
        </mxCell>
        <mxCell id="BZBJQn5B5M7l6MrAMs_o-46" value="" style="group" parent="1" vertex="1" connectable="0">
          <mxGeometry x="-1073" y="778" width="309" height="39" as="geometry" />
        </mxCell>
        <mxCell id="Tz6aEU4ManMyac2rpAqn-130" value="" style="rounded=1;whiteSpace=wrap;html=1;fillColor=#1C57CD;strokeColor=none;" parent="BZBJQn5B5M7l6MrAMs_o-46" vertex="1">
          <mxGeometry width="309" height="39" as="geometry" />
        </mxCell>
        <mxCell id="Tz6aEU4ManMyac2rpAqn-131" value="" style="sketch=0;outlineConnect=0;fontColor=#232F3E;gradientColor=none;fillColor=#FFFFFF;strokeColor=none;dashed=0;verticalLabelPosition=bottom;verticalAlign=top;align=center;html=1;fontSize=12;fontStyle=0;aspect=fixed;pointerEvents=1;shape=mxgraph.aws4.gear;rounded=1;" parent="BZBJQn5B5M7l6MrAMs_o-46" vertex="1">
          <mxGeometry x="280" y="11" width="17" height="17" as="geometry" />
        </mxCell>
        <mxCell id="Tz6aEU4ManMyac2rpAqn-132" value="Предоставить статус операции" style="text;html=1;align=center;verticalAlign=middle;whiteSpace=wrap;rounded=1;fontSize=13;fontColor=#FFFFFF;strokeColor=none;" parent="BZBJQn5B5M7l6MrAMs_o-46" vertex="1">
          <mxGeometry y="4.5" width="207" height="30" as="geometry" />
        </mxCell>
        <mxCell id="BZBJQn5B5M7l6MrAMs_o-47" value="" style="group" parent="1" vertex="1" connectable="0">
          <mxGeometry x="-1073" y="728" width="309" height="39" as="geometry" />
        </mxCell>
        <mxCell id="Tz6aEU4ManMyac2rpAqn-127" value="" style="rounded=1;whiteSpace=wrap;html=1;fillColor=#1C57CD;strokeColor=none;" parent="BZBJQn5B5M7l6MrAMs_o-47" vertex="1">
          <mxGeometry width="309" height="39" as="geometry" />
        </mxCell>
        <mxCell id="Tz6aEU4ManMyac2rpAqn-128" value="" style="sketch=0;outlineConnect=0;fontColor=#232F3E;gradientColor=none;fillColor=#FFFFFF;strokeColor=none;dashed=0;verticalLabelPosition=bottom;verticalAlign=top;align=center;html=1;fontSize=12;fontStyle=0;aspect=fixed;pointerEvents=1;shape=mxgraph.aws4.gear;rounded=1;" parent="BZBJQn5B5M7l6MrAMs_o-47" vertex="1">
          <mxGeometry x="280" y="11" width="17" height="17" as="geometry" />
        </mxCell>
        <mxCell id="Tz6aEU4ManMyac2rpAqn-129" value="Запросить статус операции" style="text;html=1;align=center;verticalAlign=middle;whiteSpace=wrap;rounded=1;fontSize=13;fontColor=#FFFFFF;strokeColor=none;" parent="BZBJQn5B5M7l6MrAMs_o-47" vertex="1">
          <mxGeometry x="3" y="6" width="179" height="30" as="geometry" />
        </mxCell>
        <mxCell id="BZBJQn5B5M7l6MrAMs_o-48" value="" style="group" parent="1" vertex="1" connectable="0">
          <mxGeometry x="-1073" y="682" width="309" height="39" as="geometry" />
        </mxCell>
        <mxCell id="Tz6aEU4ManMyac2rpAqn-124" value="" style="rounded=1;whiteSpace=wrap;html=1;fillColor=#1C57CD;strokeColor=none;" parent="BZBJQn5B5M7l6MrAMs_o-48" vertex="1">
          <mxGeometry width="309" height="39" as="geometry" />
        </mxCell>
        <mxCell id="Tz6aEU4ManMyac2rpAqn-125" value="" style="sketch=0;outlineConnect=0;fontColor=#232F3E;gradientColor=none;fillColor=#FFFFFF;strokeColor=none;dashed=0;verticalLabelPosition=bottom;verticalAlign=top;align=center;html=1;fontSize=12;fontStyle=0;aspect=fixed;pointerEvents=1;shape=mxgraph.aws4.gear;rounded=1;" parent="BZBJQn5B5M7l6MrAMs_o-48" vertex="1">
          <mxGeometry x="280" y="11" width="17" height="17" as="geometry" />
        </mxCell>
        <mxCell id="Tz6aEU4ManMyac2rpAqn-126" value="Инициировать отмену транзакции" style="text;html=1;align=center;verticalAlign=middle;whiteSpace=wrap;rounded=1;fontSize=13;fontColor=#FFFFFF;strokeColor=none;" parent="BZBJQn5B5M7l6MrAMs_o-48" vertex="1">
          <mxGeometry x="2" y="4" width="223" height="30" as="geometry" />
        </mxCell>
        <mxCell id="BZBJQn5B5M7l6MrAMs_o-49" value="" style="group" parent="1" vertex="1" connectable="0">
          <mxGeometry x="-1073" y="635" width="309" height="39" as="geometry" />
        </mxCell>
        <mxCell id="Tz6aEU4ManMyac2rpAqn-121" value="" style="rounded=1;whiteSpace=wrap;html=1;fillColor=#1C57CD;strokeColor=none;" parent="BZBJQn5B5M7l6MrAMs_o-49" vertex="1">
          <mxGeometry width="309" height="39" as="geometry" />
        </mxCell>
        <mxCell id="Tz6aEU4ManMyac2rpAqn-122" value="" style="sketch=0;outlineConnect=0;fontColor=#232F3E;gradientColor=none;fillColor=#FFFFFF;strokeColor=none;dashed=0;verticalLabelPosition=bottom;verticalAlign=top;align=center;html=1;fontSize=12;fontStyle=0;aspect=fixed;pointerEvents=1;shape=mxgraph.aws4.gear;rounded=1;" parent="BZBJQn5B5M7l6MrAMs_o-49" vertex="1">
          <mxGeometry x="280" y="11" width="17" height="17" as="geometry" />
        </mxCell>
        <mxCell id="Tz6aEU4ManMyac2rpAqn-123" value="Предоставить список и статус операций" style="text;html=1;align=center;verticalAlign=middle;whiteSpace=wrap;rounded=1;fontSize=13;fontColor=#FFFFFF;strokeColor=none;" parent="BZBJQn5B5M7l6MrAMs_o-49" vertex="1">
          <mxGeometry y="4.5" width="263" height="30" as="geometry" />
        </mxCell>
        <mxCell id="BZBJQn5B5M7l6MrAMs_o-50" value="" style="group" parent="1" vertex="1" connectable="0">
          <mxGeometry x="-1080" y="589" width="316" height="39" as="geometry" />
        </mxCell>
        <mxCell id="Tz6aEU4ManMyac2rpAqn-118" value="" style="rounded=1;whiteSpace=wrap;html=1;fillColor=#1C57CD;strokeColor=none;" parent="BZBJQn5B5M7l6MrAMs_o-50" vertex="1">
          <mxGeometry x="7" width="309" height="39" as="geometry" />
        </mxCell>
        <mxCell id="Tz6aEU4ManMyac2rpAqn-119" value="" style="sketch=0;outlineConnect=0;fontColor=#232F3E;gradientColor=none;fillColor=#FFFFFF;strokeColor=none;dashed=0;verticalLabelPosition=bottom;verticalAlign=top;align=center;html=1;fontSize=12;fontStyle=0;aspect=fixed;pointerEvents=1;shape=mxgraph.aws4.gear;rounded=1;" parent="BZBJQn5B5M7l6MrAMs_o-50" vertex="1">
          <mxGeometry x="287" y="11" width="17" height="17" as="geometry" />
        </mxCell>
        <mxCell id="Tz6aEU4ManMyac2rpAqn-120" value="Авторизация платёжной операции" style="text;html=1;align=center;verticalAlign=middle;whiteSpace=wrap;rounded=1;fontSize=13;fontColor=#FFFFFF;strokeColor=none;" parent="BZBJQn5B5M7l6MrAMs_o-50" vertex="1">
          <mxGeometry y="4.5" width="243" height="30" as="geometry" />
        </mxCell>
        <mxCell id="BZBJQn5B5M7l6MrAMs_o-51" value="" style="group" parent="1" vertex="1" connectable="0">
          <mxGeometry x="-1073" y="545" width="309" height="39" as="geometry" />
        </mxCell>
        <mxCell id="Tz6aEU4ManMyac2rpAqn-115" value="" style="rounded=1;whiteSpace=wrap;html=1;fillColor=#1C57CD;strokeColor=none;" parent="BZBJQn5B5M7l6MrAMs_o-51" vertex="1">
          <mxGeometry width="309" height="39" as="geometry" />
        </mxCell>
        <mxCell id="Tz6aEU4ManMyac2rpAqn-116" value="" style="sketch=0;outlineConnect=0;fontColor=#232F3E;gradientColor=none;fillColor=#FFFFFF;strokeColor=none;dashed=0;verticalLabelPosition=bottom;verticalAlign=top;align=center;html=1;fontSize=12;fontStyle=0;aspect=fixed;pointerEvents=1;shape=mxgraph.aws4.gear;rounded=1;" parent="BZBJQn5B5M7l6MrAMs_o-51" vertex="1">
          <mxGeometry x="280" y="11" width="17" height="17" as="geometry" />
        </mxCell>
        <mxCell id="Tz6aEU4ManMyac2rpAqn-117" value="Учёт платёжной операции" style="text;html=1;align=center;verticalAlign=middle;whiteSpace=wrap;rounded=1;fontSize=13;fontColor=#FFFFFF;strokeColor=none;" parent="BZBJQn5B5M7l6MrAMs_o-51" vertex="1">
          <mxGeometry x="5" y="4.5" width="173" height="30" as="geometry" />
        </mxCell>
        <mxCell id="BZBJQn5B5M7l6MrAMs_o-52" value="" style="group" parent="1" vertex="1" connectable="0">
          <mxGeometry x="-1069.5" y="500" width="309" height="39" as="geometry" />
        </mxCell>
        <mxCell id="Tz6aEU4ManMyac2rpAqn-109" value="" style="rounded=1;whiteSpace=wrap;html=1;fillColor=#1C57CD;strokeColor=none;" parent="BZBJQn5B5M7l6MrAMs_o-52" vertex="1">
          <mxGeometry x="-3.5" width="309" height="39" as="geometry" />
        </mxCell>
        <mxCell id="Tz6aEU4ManMyac2rpAqn-110" value="" style="sketch=0;outlineConnect=0;fontColor=#232F3E;gradientColor=none;fillColor=#FFFFFF;strokeColor=none;dashed=0;verticalLabelPosition=bottom;verticalAlign=top;align=center;html=1;fontSize=12;fontStyle=0;aspect=fixed;pointerEvents=1;shape=mxgraph.aws4.gear;rounded=1;" parent="BZBJQn5B5M7l6MrAMs_o-52" vertex="1">
          <mxGeometry x="280" y="11" width="17" height="17" as="geometry" />
        </mxCell>
        <mxCell id="Tz6aEU4ManMyac2rpAqn-111" value="Инициировать платёжную операцию" style="text;html=1;align=center;verticalAlign=middle;whiteSpace=wrap;rounded=1;fontSize=13;fontColor=#FFFFFF;strokeColor=none;" parent="BZBJQn5B5M7l6MrAMs_o-52" vertex="1">
          <mxGeometry y="4.5" width="243" height="30" as="geometry" />
        </mxCell>
        <mxCell id="b1pBMNL9U5uMwUAju9zj-232" value="" style="group" vertex="1" connectable="0" parent="1">
          <mxGeometry x="-2010" y="1950" width="309" height="39" as="geometry" />
        </mxCell>
        <mxCell id="b1pBMNL9U5uMwUAju9zj-233" value="" style="rounded=1;whiteSpace=wrap;html=1;fillColor=#1C57CD;strokeColor=none;" vertex="1" parent="b1pBMNL9U5uMwUAju9zj-232">
          <mxGeometry width="309" height="39" as="geometry" />
        </mxCell>
        <mxCell id="b1pBMNL9U5uMwUAju9zj-234" value="" style="sketch=0;outlineConnect=0;fontColor=#232F3E;gradientColor=none;fillColor=default;strokeColor=none;dashed=0;verticalLabelPosition=bottom;verticalAlign=top;align=center;html=1;fontSize=12;fontStyle=0;aspect=fixed;pointerEvents=1;shape=mxgraph.aws4.gear;rounded=1;" vertex="1" parent="b1pBMNL9U5uMwUAju9zj-232">
          <mxGeometry x="282" y="11" width="17" height="17" as="geometry" />
        </mxCell>
        <mxCell id="b1pBMNL9U5uMwUAju9zj-235" value="Создание заказа" style="text;html=1;align=center;verticalAlign=middle;whiteSpace=wrap;rounded=1;fontSize=13;fontColor=#FFFFFF;strokeColor=none;" vertex="1" parent="b1pBMNL9U5uMwUAju9zj-232">
          <mxGeometry x="5" y="4.5" width="110" height="30" as="geometry" />
        </mxCell>
        <mxCell id="b1pBMNL9U5uMwUAju9zj-236" value="" style="group" vertex="1" connectable="0" parent="1">
          <mxGeometry x="-2010" y="1998" width="309" height="39" as="geometry" />
        </mxCell>
        <mxCell id="b1pBMNL9U5uMwUAju9zj-237" value="" style="rounded=1;whiteSpace=wrap;html=1;fillColor=#1C57CD;strokeColor=none;" vertex="1" parent="b1pBMNL9U5uMwUAju9zj-236">
          <mxGeometry width="309" height="39" as="geometry" />
        </mxCell>
        <mxCell id="b1pBMNL9U5uMwUAju9zj-238" value="" style="sketch=0;outlineConnect=0;fontColor=#232F3E;gradientColor=none;fillColor=default;strokeColor=none;dashed=0;verticalLabelPosition=bottom;verticalAlign=top;align=center;html=1;fontSize=12;fontStyle=0;aspect=fixed;pointerEvents=1;shape=mxgraph.aws4.gear;rounded=1;" vertex="1" parent="b1pBMNL9U5uMwUAju9zj-236">
          <mxGeometry x="282" y="11" width="17" height="17" as="geometry" />
        </mxCell>
        <mxCell id="b1pBMNL9U5uMwUAju9zj-239" value="Редактирование заказа" style="text;html=1;align=center;verticalAlign=middle;whiteSpace=wrap;rounded=1;fontSize=13;fontColor=#FFFFFF;strokeColor=none;" vertex="1" parent="b1pBMNL9U5uMwUAju9zj-236">
          <mxGeometry x="3" y="4.5" width="154" height="30" as="geometry" />
        </mxCell>
        <mxCell id="b1pBMNL9U5uMwUAju9zj-240" value="" style="group" vertex="1" connectable="0" parent="1">
          <mxGeometry x="-2010" y="2046" width="309" height="39" as="geometry" />
        </mxCell>
        <mxCell id="b1pBMNL9U5uMwUAju9zj-241" value="" style="rounded=1;whiteSpace=wrap;html=1;fillColor=#1C57CD;strokeColor=none;" vertex="1" parent="b1pBMNL9U5uMwUAju9zj-240">
          <mxGeometry width="309" height="39" as="geometry" />
        </mxCell>
        <mxCell id="b1pBMNL9U5uMwUAju9zj-242" value="" style="sketch=0;outlineConnect=0;fontColor=#232F3E;gradientColor=none;fillColor=default;strokeColor=none;dashed=0;verticalLabelPosition=bottom;verticalAlign=top;align=center;html=1;fontSize=12;fontStyle=0;aspect=fixed;pointerEvents=1;shape=mxgraph.aws4.gear;rounded=1;" vertex="1" parent="b1pBMNL9U5uMwUAju9zj-240">
          <mxGeometry x="282" y="11" width="17" height="17" as="geometry" />
        </mxCell>
        <mxCell id="b1pBMNL9U5uMwUAju9zj-243" value="Сохранение заказа" style="text;html=1;align=center;verticalAlign=middle;whiteSpace=wrap;rounded=1;fontSize=13;fontColor=#FFFFFF;strokeColor=none;" vertex="1" parent="b1pBMNL9U5uMwUAju9zj-240">
          <mxGeometry x="4" y="4" width="126" height="30" as="geometry" />
        </mxCell>
        <mxCell id="b1pBMNL9U5uMwUAju9zj-244" value="" style="group" vertex="1" connectable="0" parent="1">
          <mxGeometry x="-2010" y="2095" width="309" height="39" as="geometry" />
        </mxCell>
        <mxCell id="b1pBMNL9U5uMwUAju9zj-245" value="" style="rounded=1;whiteSpace=wrap;html=1;fillColor=#1C57CD;strokeColor=none;" vertex="1" parent="b1pBMNL9U5uMwUAju9zj-244">
          <mxGeometry width="309" height="39" as="geometry" />
        </mxCell>
        <mxCell id="b1pBMNL9U5uMwUAju9zj-246" value="" style="sketch=0;outlineConnect=0;fontColor=#232F3E;gradientColor=none;fillColor=default;strokeColor=none;dashed=0;verticalLabelPosition=bottom;verticalAlign=top;align=center;html=1;fontSize=12;fontStyle=0;aspect=fixed;pointerEvents=1;shape=mxgraph.aws4.gear;rounded=1;" vertex="1" parent="b1pBMNL9U5uMwUAju9zj-244">
          <mxGeometry x="281.5" y="11" width="17" height="17" as="geometry" />
        </mxCell>
        <mxCell id="b1pBMNL9U5uMwUAju9zj-247" value="Подтверждение заказа" style="text;html=1;align=center;verticalAlign=middle;whiteSpace=wrap;rounded=1;fontSize=13;fontColor=#FFFFFF;strokeColor=none;" vertex="1" parent="b1pBMNL9U5uMwUAju9zj-244">
          <mxGeometry x="4" y="4.5" width="152" height="30" as="geometry" />
        </mxCell>
        <mxCell id="b1pBMNL9U5uMwUAju9zj-248" value="" style="group" vertex="1" connectable="0" parent="1">
          <mxGeometry x="-2010" y="2143" width="309" height="39" as="geometry" />
        </mxCell>
        <mxCell id="b1pBMNL9U5uMwUAju9zj-249" value="" style="rounded=1;whiteSpace=wrap;html=1;fillColor=#1C57CD;strokeColor=none;" vertex="1" parent="b1pBMNL9U5uMwUAju9zj-248">
          <mxGeometry width="309" height="39" as="geometry" />
        </mxCell>
        <mxCell id="b1pBMNL9U5uMwUAju9zj-250" value="" style="sketch=0;outlineConnect=0;fontColor=#232F3E;gradientColor=none;fillColor=default;strokeColor=none;dashed=0;verticalLabelPosition=bottom;verticalAlign=top;align=center;html=1;fontSize=12;fontStyle=0;aspect=fixed;pointerEvents=1;shape=mxgraph.aws4.gear;rounded=1;" vertex="1" parent="b1pBMNL9U5uMwUAju9zj-248">
          <mxGeometry x="281.5" y="11" width="17" height="17" as="geometry" />
        </mxCell>
        <mxCell id="b1pBMNL9U5uMwUAju9zj-251" value="Размещение заказа" style="text;html=1;align=center;verticalAlign=middle;whiteSpace=wrap;rounded=1;fontSize=13;fontColor=#FFFFFF;strokeColor=none;" vertex="1" parent="b1pBMNL9U5uMwUAju9zj-248">
          <mxGeometry x="3" y="4.5" width="130.5" height="30" as="geometry" />
        </mxCell>
        <mxCell id="b1pBMNL9U5uMwUAju9zj-252" value="" style="group" vertex="1" connectable="0" parent="1">
          <mxGeometry x="-2010" y="2192" width="309" height="39" as="geometry" />
        </mxCell>
        <mxCell id="b1pBMNL9U5uMwUAju9zj-253" value="" style="rounded=1;whiteSpace=wrap;html=1;fillColor=#1C57CD;strokeColor=none;" vertex="1" parent="b1pBMNL9U5uMwUAju9zj-252">
          <mxGeometry width="309" height="39" as="geometry" />
        </mxCell>
        <mxCell id="b1pBMNL9U5uMwUAju9zj-254" value="" style="sketch=0;outlineConnect=0;fontColor=#232F3E;gradientColor=none;fillColor=default;strokeColor=none;dashed=0;verticalLabelPosition=bottom;verticalAlign=top;align=center;html=1;fontSize=12;fontStyle=0;aspect=fixed;pointerEvents=1;shape=mxgraph.aws4.gear;rounded=1;" vertex="1" parent="b1pBMNL9U5uMwUAju9zj-252">
          <mxGeometry x="281.5" y="11" width="17" height="17" as="geometry" />
        </mxCell>
        <mxCell id="b1pBMNL9U5uMwUAju9zj-255" value="Отобразить все заказы" style="text;html=1;align=center;verticalAlign=middle;whiteSpace=wrap;rounded=1;fontSize=13;fontColor=#FFFFFF;strokeColor=none;" vertex="1" parent="b1pBMNL9U5uMwUAju9zj-252">
          <mxGeometry x="3" y="4.5" width="152" height="30" as="geometry" />
        </mxCell>
        <mxCell id="b1pBMNL9U5uMwUAju9zj-256" value="" style="group" vertex="1" connectable="0" parent="1">
          <mxGeometry x="-2010" y="2242" width="309" height="39" as="geometry" />
        </mxCell>
        <mxCell id="b1pBMNL9U5uMwUAju9zj-257" value="" style="rounded=1;whiteSpace=wrap;html=1;fillColor=#1C57CD;strokeColor=none;" vertex="1" parent="b1pBMNL9U5uMwUAju9zj-256">
          <mxGeometry width="309" height="39" as="geometry" />
        </mxCell>
        <mxCell id="b1pBMNL9U5uMwUAju9zj-258" value="" style="sketch=0;outlineConnect=0;fontColor=#232F3E;gradientColor=none;fillColor=default;strokeColor=none;dashed=0;verticalLabelPosition=bottom;verticalAlign=top;align=center;html=1;fontSize=12;fontStyle=0;aspect=fixed;pointerEvents=1;shape=mxgraph.aws4.gear;rounded=1;" vertex="1" parent="b1pBMNL9U5uMwUAju9zj-256">
          <mxGeometry x="282" y="11" width="17" height="17" as="geometry" />
        </mxCell>
        <mxCell id="b1pBMNL9U5uMwUAju9zj-259" value="Отобразить детали заказа" style="text;html=1;align=center;verticalAlign=middle;whiteSpace=wrap;rounded=1;fontSize=13;fontColor=#FFFFFF;strokeColor=none;" vertex="1" parent="b1pBMNL9U5uMwUAju9zj-256">
          <mxGeometry x="5" y="5" width="169" height="30" as="geometry" />
        </mxCell>
        <mxCell id="b1pBMNL9U5uMwUAju9zj-577" value="Сервис управления заказами" style="text;html=1;align=center;verticalAlign=middle;whiteSpace=wrap;rounded=1;shadow=0;fontSize=23;fontStyle=1" vertex="1" parent="1">
          <mxGeometry x="-2020" y="1860" width="390" height="49" as="geometry" />
        </mxCell>
        <mxCell id="b1pBMNL9U5uMwUAju9zj-579" value="Сервис авторизации" style="text;html=1;align=center;verticalAlign=middle;whiteSpace=wrap;rounded=1;shadow=0;fontSize=23;fontStyle=1" vertex="1" parent="1">
          <mxGeometry x="-3670" y="450" width="390" height="49" as="geometry" />
        </mxCell>
        <mxCell id="b1pBMNL9U5uMwUAju9zj-582" value="Сервис нотификаций" style="text;html=1;align=center;verticalAlign=middle;whiteSpace=wrap;rounded=1;shadow=0;fontSize=23;fontStyle=1;movable=1;resizable=1;rotatable=1;deletable=1;editable=1;locked=0;connectable=1;" vertex="1" parent="1">
          <mxGeometry x="-2820" y="3110" width="390" height="49" as="geometry" />
        </mxCell>
        <mxCell id="b1pBMNL9U5uMwUAju9zj-583" value="" style="strokeWidth=2;html=1;shape=mxgraph.flowchart.database;whiteSpace=wrap;rounded=1;movable=1;resizable=1;rotatable=1;deletable=1;editable=1;locked=0;connectable=1;" vertex="1" parent="1">
          <mxGeometry x="-1550" y="1900" width="360" height="400" as="geometry" />
        </mxCell>
        <mxCell id="b1pBMNL9U5uMwUAju9zj-584" value="" style="group" vertex="1" connectable="0" parent="1">
          <mxGeometry x="-1454" y="1944" width="151" height="49" as="geometry" />
        </mxCell>
        <mxCell id="b1pBMNL9U5uMwUAju9zj-585" value="&lt;p style=&quot;margin: 0px 0px 0px 13px; text-indent: -13px; font-variant-numeric: normal; font-variant-east-asian: normal; font-variant-alternates: normal; font-kerning: auto; font-optical-sizing: auto; font-feature-settings: normal; font-variation-settings: normal; font-variant-position: normal; font-stretch: normal; font-size: 14px; line-height: normal; color: rgb(14, 14, 14); text-align: start;&quot; class=&quot;p1&quot;&gt;&lt;br&gt;&lt;/p&gt;" style="rounded=1;whiteSpace=wrap;html=1;fillColor=#FF77BF;strokeColor=none;arcSize=50;" vertex="1" parent="b1pBMNL9U5uMwUAju9zj-584">
          <mxGeometry y="9" width="151" height="33" as="geometry" />
        </mxCell>
        <mxCell id="b1pBMNL9U5uMwUAju9zj-586" value="&lt;font style=&quot;font-size: 18px;&quot;&gt;&lt;i&gt;PostgreSQL&lt;/i&gt;&lt;/font&gt;" style="text;html=1;align=center;verticalAlign=middle;whiteSpace=wrap;rounded=1;shadow=0;fontSize=23;fontStyle=1" vertex="1" parent="b1pBMNL9U5uMwUAju9zj-584">
          <mxGeometry x="31" width="89" height="49" as="geometry" />
        </mxCell>
        <mxCell id="b1pBMNL9U5uMwUAju9zj-587" value="" style="strokeWidth=2;html=1;shape=mxgraph.flowchart.database;whiteSpace=wrap;rounded=1;movable=1;resizable=1;rotatable=1;deletable=1;editable=1;locked=0;connectable=1;" vertex="1" parent="1">
          <mxGeometry x="-3220" y="460" width="360" height="460" as="geometry" />
        </mxCell>
        <mxCell id="b1pBMNL9U5uMwUAju9zj-588" value="" style="group" vertex="1" connectable="0" parent="1">
          <mxGeometry x="-3124" y="504" width="151" height="49" as="geometry" />
        </mxCell>
        <mxCell id="b1pBMNL9U5uMwUAju9zj-589" value="&lt;p style=&quot;margin: 0px 0px 0px 13px; text-indent: -13px; font-variant-numeric: normal; font-variant-east-asian: normal; font-variant-alternates: normal; font-kerning: auto; font-optical-sizing: auto; font-feature-settings: normal; font-variation-settings: normal; font-variant-position: normal; font-stretch: normal; font-size: 14px; line-height: normal; color: rgb(14, 14, 14); text-align: start;&quot; class=&quot;p1&quot;&gt;&lt;br&gt;&lt;/p&gt;" style="rounded=1;whiteSpace=wrap;html=1;fillColor=#FF77BF;strokeColor=none;arcSize=50;" vertex="1" parent="b1pBMNL9U5uMwUAju9zj-588">
          <mxGeometry y="9" width="151" height="33" as="geometry" />
        </mxCell>
        <mxCell id="b1pBMNL9U5uMwUAju9zj-590" value="&lt;font style=&quot;font-size: 18px;&quot;&gt;&lt;i&gt;PostgreSQL&lt;/i&gt;&lt;/font&gt;" style="text;html=1;align=center;verticalAlign=middle;whiteSpace=wrap;rounded=1;shadow=0;fontSize=23;fontStyle=1" vertex="1" parent="b1pBMNL9U5uMwUAju9zj-588">
          <mxGeometry x="31" width="89" height="49" as="geometry" />
        </mxCell>
        <mxCell id="b1pBMNL9U5uMwUAju9zj-597" value="Сервис поиска" style="text;html=1;align=center;verticalAlign=middle;whiteSpace=wrap;rounded=1;shadow=0;fontSize=23;fontStyle=1;movable=1;resizable=1;rotatable=1;deletable=1;editable=1;locked=0;connectable=1;" vertex="1" parent="1">
          <mxGeometry x="-1690" y="450" width="270" height="49" as="geometry" />
        </mxCell>
        <mxCell id="b1pBMNL9U5uMwUAju9zj-616" value="Сервис товаров и услуг" style="text;html=1;align=center;verticalAlign=middle;whiteSpace=wrap;rounded=1;shadow=0;fontSize=23;fontStyle=1" vertex="1" parent="1">
          <mxGeometry x="-2030" y="1070" width="390" height="49" as="geometry" />
        </mxCell>
        <mxCell id="b1pBMNL9U5uMwUAju9zj-618" value="" style="group" vertex="1" connectable="0" parent="1">
          <mxGeometry x="-1514" y="1124" width="151" height="49" as="geometry" />
        </mxCell>
        <mxCell id="b1pBMNL9U5uMwUAju9zj-619" value="&lt;p style=&quot;margin: 0px 0px 0px 13px; text-indent: -13px; font-variant-numeric: normal; font-variant-east-asian: normal; font-variant-alternates: normal; font-kerning: auto; font-optical-sizing: auto; font-feature-settings: normal; font-variation-settings: normal; font-variant-position: normal; font-stretch: normal; font-size: 14px; line-height: normal; color: rgb(14, 14, 14); text-align: start;&quot; class=&quot;p1&quot;&gt;&lt;br&gt;&lt;/p&gt;" style="rounded=1;whiteSpace=wrap;html=1;fillColor=#FF77BF;strokeColor=none;arcSize=50;" vertex="1" parent="b1pBMNL9U5uMwUAju9zj-618">
          <mxGeometry y="9" width="151" height="33" as="geometry" />
        </mxCell>
        <mxCell id="b1pBMNL9U5uMwUAju9zj-620" value="&lt;font style=&quot;font-size: 18px;&quot;&gt;&lt;i&gt;PostgreSQL&lt;/i&gt;&lt;/font&gt;" style="text;html=1;align=center;verticalAlign=middle;whiteSpace=wrap;rounded=1;shadow=0;fontSize=23;fontStyle=1" vertex="1" parent="b1pBMNL9U5uMwUAju9zj-618">
          <mxGeometry x="31" width="89" height="49" as="geometry" />
        </mxCell>
        <mxCell id="b1pBMNL9U5uMwUAju9zj-622" value="Сервис отчетов" style="text;html=1;align=center;verticalAlign=middle;whiteSpace=wrap;rounded=1;shadow=0;fontSize=23;fontStyle=1;movable=1;resizable=1;rotatable=1;deletable=1;editable=1;locked=0;connectable=1;" vertex="1" parent="1">
          <mxGeometry x="-410" y="2100" width="190" height="49" as="geometry" />
        </mxCell>
        <mxCell id="b1pBMNL9U5uMwUAju9zj-624" value="Платежный сервис" style="text;html=1;align=center;verticalAlign=middle;whiteSpace=wrap;rounded=1;shadow=0;fontSize=23;fontStyle=1" vertex="1" parent="1">
          <mxGeometry x="-1160" y="450" width="390" height="49" as="geometry" />
        </mxCell>
        <mxCell id="b1pBMNL9U5uMwUAju9zj-625" value="" style="strokeWidth=2;html=1;shape=mxgraph.flowchart.database;whiteSpace=wrap;rounded=1;movable=1;resizable=1;rotatable=1;deletable=1;editable=1;locked=0;connectable=1;" vertex="1" parent="1">
          <mxGeometry x="-700" y="470" width="360" height="400" as="geometry" />
        </mxCell>
        <mxCell id="b1pBMNL9U5uMwUAju9zj-626" value="" style="group" vertex="1" connectable="0" parent="1">
          <mxGeometry x="-604" y="514" width="151" height="49" as="geometry" />
        </mxCell>
        <mxCell id="b1pBMNL9U5uMwUAju9zj-627" value="&lt;p style=&quot;margin: 0px 0px 0px 13px; text-indent: -13px; font-variant-numeric: normal; font-variant-east-asian: normal; font-variant-alternates: normal; font-kerning: auto; font-optical-sizing: auto; font-feature-settings: normal; font-variation-settings: normal; font-variant-position: normal; font-stretch: normal; font-size: 14px; line-height: normal; color: rgb(14, 14, 14); text-align: start;&quot; class=&quot;p1&quot;&gt;&lt;br&gt;&lt;/p&gt;" style="rounded=1;whiteSpace=wrap;html=1;fillColor=#FF77BF;strokeColor=none;arcSize=50;" vertex="1" parent="b1pBMNL9U5uMwUAju9zj-626">
          <mxGeometry y="9" width="151" height="33" as="geometry" />
        </mxCell>
        <mxCell id="b1pBMNL9U5uMwUAju9zj-628" value="&lt;font style=&quot;font-size: 18px;&quot;&gt;&lt;i&gt;PostgreSQL&lt;/i&gt;&lt;/font&gt;" style="text;html=1;align=center;verticalAlign=middle;whiteSpace=wrap;rounded=1;shadow=0;fontSize=23;fontStyle=1" vertex="1" parent="b1pBMNL9U5uMwUAju9zj-626">
          <mxGeometry x="31" width="89" height="49" as="geometry" />
        </mxCell>
        <mxCell id="b1pBMNL9U5uMwUAju9zj-630" value="Сервис аукционов" style="text;html=1;align=center;verticalAlign=middle;whiteSpace=wrap;rounded=1;shadow=0;fontSize=23;fontStyle=1" vertex="1" parent="1">
          <mxGeometry x="-2010" y="2540" width="390" height="49" as="geometry" />
        </mxCell>
        <mxCell id="b1pBMNL9U5uMwUAju9zj-631" value="" style="strokeWidth=2;html=1;shape=mxgraph.flowchart.database;whiteSpace=wrap;rounded=1;movable=1;resizable=1;rotatable=1;deletable=1;editable=1;locked=0;connectable=1;" vertex="1" parent="1">
          <mxGeometry x="-1590" y="2550" width="360" height="400" as="geometry" />
        </mxCell>
        <mxCell id="b1pBMNL9U5uMwUAju9zj-632" value="" style="group" vertex="1" connectable="0" parent="1">
          <mxGeometry x="-1480" y="2590" width="151" height="49" as="geometry" />
        </mxCell>
        <mxCell id="b1pBMNL9U5uMwUAju9zj-633" value="&lt;p style=&quot;margin: 0px 0px 0px 13px; text-indent: -13px; font-variant-numeric: normal; font-variant-east-asian: normal; font-variant-alternates: normal; font-kerning: auto; font-optical-sizing: auto; font-feature-settings: normal; font-variation-settings: normal; font-variant-position: normal; font-stretch: normal; font-size: 14px; line-height: normal; color: rgb(14, 14, 14); text-align: start;&quot; class=&quot;p1&quot;&gt;&lt;br&gt;&lt;/p&gt;" style="rounded=1;whiteSpace=wrap;html=1;fillColor=#FF77BF;strokeColor=none;arcSize=50;" vertex="1" parent="b1pBMNL9U5uMwUAju9zj-632">
          <mxGeometry y="9" width="151" height="33" as="geometry" />
        </mxCell>
        <mxCell id="b1pBMNL9U5uMwUAju9zj-634" value="&lt;font style=&quot;font-size: 18px;&quot;&gt;&lt;i&gt;PostgreSQL&lt;/i&gt;&lt;/font&gt;" style="text;html=1;align=center;verticalAlign=middle;whiteSpace=wrap;rounded=1;shadow=0;fontSize=23;fontStyle=1" vertex="1" parent="b1pBMNL9U5uMwUAju9zj-632">
          <mxGeometry x="31" width="89" height="49" as="geometry" />
        </mxCell>
        <mxCell id="b1pBMNL9U5uMwUAju9zj-636" value="Сервис поддержки" style="text;html=1;align=center;verticalAlign=middle;whiteSpace=wrap;rounded=1;shadow=0;fontSize=23;fontStyle=1" vertex="1" parent="1">
          <mxGeometry x="-2580" y="450" width="390" height="49" as="geometry" />
        </mxCell>
        <mxCell id="b1pBMNL9U5uMwUAju9zj-637" value="" style="strokeWidth=2;html=1;shape=mxgraph.flowchart.database;whiteSpace=wrap;rounded=1;movable=1;resizable=1;rotatable=1;deletable=1;editable=1;locked=0;connectable=1;" vertex="1" parent="1">
          <mxGeometry x="-2160" y="460" width="360" height="400" as="geometry" />
        </mxCell>
        <mxCell id="b1pBMNL9U5uMwUAju9zj-638" value="" style="group" vertex="1" connectable="0" parent="1">
          <mxGeometry x="-2050" y="500" width="151" height="49" as="geometry" />
        </mxCell>
        <mxCell id="b1pBMNL9U5uMwUAju9zj-639" value="&lt;p style=&quot;margin: 0px 0px 0px 13px; text-indent: -13px; font-variant-numeric: normal; font-variant-east-asian: normal; font-variant-alternates: normal; font-kerning: auto; font-optical-sizing: auto; font-feature-settings: normal; font-variation-settings: normal; font-variant-position: normal; font-stretch: normal; font-size: 14px; line-height: normal; color: rgb(14, 14, 14); text-align: start;&quot; class=&quot;p1&quot;&gt;&lt;br&gt;&lt;/p&gt;" style="rounded=1;whiteSpace=wrap;html=1;fillColor=#FF77BF;strokeColor=none;arcSize=50;" vertex="1" parent="b1pBMNL9U5uMwUAju9zj-638">
          <mxGeometry y="9" width="151" height="33" as="geometry" />
        </mxCell>
        <mxCell id="b1pBMNL9U5uMwUAju9zj-640" value="&lt;font style=&quot;font-size: 18px;&quot;&gt;&lt;i&gt;PostgreSQL&lt;/i&gt;&lt;/font&gt;" style="text;html=1;align=center;verticalAlign=middle;whiteSpace=wrap;rounded=1;shadow=0;fontSize=23;fontStyle=1" vertex="1" parent="b1pBMNL9U5uMwUAju9zj-638">
          <mxGeometry x="31" width="89" height="49" as="geometry" />
        </mxCell>
        <mxCell id="b1pBMNL9U5uMwUAju9zj-645" value="" style="group" vertex="1" connectable="0" parent="1">
          <mxGeometry x="-2060" y="1810" width="151" height="36" as="geometry" />
        </mxCell>
        <mxCell id="b1pBMNL9U5uMwUAju9zj-646" value="&lt;p style=&quot;margin: 0px 0px 0px 13px; text-indent: -13px; font-variant-numeric: normal; font-variant-east-asian: normal; font-variant-alternates: normal; font-kerning: auto; font-optical-sizing: auto; font-feature-settings: normal; font-variation-settings: normal; font-variant-position: normal; font-stretch: normal; font-size: 14px; line-height: normal; color: rgb(14, 14, 14); text-align: start;&quot; class=&quot;p1&quot;&gt;&lt;br&gt;&lt;/p&gt;" style="rounded=1;whiteSpace=wrap;html=1;fillColor=#FF77BF;strokeColor=none;arcSize=33;" vertex="1" parent="b1pBMNL9U5uMwUAju9zj-645">
          <mxGeometry y="5" width="151" height="31" as="geometry" />
        </mxCell>
        <mxCell id="b1pBMNL9U5uMwUAju9zj-647" value="&lt;font style=&quot;font-size: 18px;&quot;&gt;&lt;i&gt;Django/Python&lt;/i&gt;&lt;/font&gt;" style="text;html=1;align=center;verticalAlign=middle;whiteSpace=wrap;rounded=1;shadow=0;fontSize=23;fontStyle=1" vertex="1" parent="b1pBMNL9U5uMwUAju9zj-645">
          <mxGeometry x="30" width="89" height="36" as="geometry" />
        </mxCell>
        <mxCell id="b1pBMNL9U5uMwUAju9zj-648" value="" style="group" vertex="1" connectable="0" parent="1">
          <mxGeometry x="-3640" y="400" width="151" height="36" as="geometry" />
        </mxCell>
        <mxCell id="b1pBMNL9U5uMwUAju9zj-649" value="&lt;p style=&quot;margin: 0px 0px 0px 13px; text-indent: -13px; font-variant-numeric: normal; font-variant-east-asian: normal; font-variant-alternates: normal; font-kerning: auto; font-optical-sizing: auto; font-feature-settings: normal; font-variation-settings: normal; font-variant-position: normal; font-stretch: normal; font-size: 14px; line-height: normal; color: rgb(14, 14, 14); text-align: start;&quot; class=&quot;p1&quot;&gt;&lt;br&gt;&lt;/p&gt;" style="rounded=1;whiteSpace=wrap;html=1;fillColor=#FF77BF;strokeColor=none;arcSize=33;" vertex="1" parent="b1pBMNL9U5uMwUAju9zj-648">
          <mxGeometry y="5" width="151" height="31" as="geometry" />
        </mxCell>
        <mxCell id="b1pBMNL9U5uMwUAju9zj-650" value="&lt;font style=&quot;font-size: 18px;&quot;&gt;&lt;i&gt;Django/Python&lt;/i&gt;&lt;/font&gt;" style="text;html=1;align=center;verticalAlign=middle;whiteSpace=wrap;rounded=1;shadow=0;fontSize=23;fontStyle=1" vertex="1" parent="b1pBMNL9U5uMwUAju9zj-648">
          <mxGeometry x="30" width="89" height="36" as="geometry" />
        </mxCell>
        <mxCell id="b1pBMNL9U5uMwUAju9zj-651" value="" style="group" vertex="1" connectable="0" parent="1">
          <mxGeometry x="-2020" y="1020" width="151" height="36" as="geometry" />
        </mxCell>
        <mxCell id="b1pBMNL9U5uMwUAju9zj-652" value="&lt;p style=&quot;margin: 0px 0px 0px 13px; text-indent: -13px; font-variant-numeric: normal; font-variant-east-asian: normal; font-variant-alternates: normal; font-kerning: auto; font-optical-sizing: auto; font-feature-settings: normal; font-variation-settings: normal; font-variant-position: normal; font-stretch: normal; font-size: 14px; line-height: normal; color: rgb(14, 14, 14); text-align: start;&quot; class=&quot;p1&quot;&gt;&lt;br&gt;&lt;/p&gt;" style="rounded=1;whiteSpace=wrap;html=1;fillColor=#FF77BF;strokeColor=none;arcSize=33;" vertex="1" parent="b1pBMNL9U5uMwUAju9zj-651">
          <mxGeometry y="5" width="151" height="31" as="geometry" />
        </mxCell>
        <mxCell id="b1pBMNL9U5uMwUAju9zj-653" value="&lt;font style=&quot;font-size: 18px;&quot;&gt;&lt;i&gt;Django/Python&lt;/i&gt;&lt;/font&gt;" style="text;html=1;align=center;verticalAlign=middle;whiteSpace=wrap;rounded=1;shadow=0;fontSize=23;fontStyle=1" vertex="1" parent="b1pBMNL9U5uMwUAju9zj-651">
          <mxGeometry x="30" width="89" height="36" as="geometry" />
        </mxCell>
        <mxCell id="b1pBMNL9U5uMwUAju9zj-654" value="" style="group" vertex="1" connectable="0" parent="1">
          <mxGeometry x="-1120" y="400" width="151" height="36" as="geometry" />
        </mxCell>
        <mxCell id="b1pBMNL9U5uMwUAju9zj-655" value="&lt;p style=&quot;margin: 0px 0px 0px 13px; text-indent: -13px; font-variant-numeric: normal; font-variant-east-asian: normal; font-variant-alternates: normal; font-kerning: auto; font-optical-sizing: auto; font-feature-settings: normal; font-variation-settings: normal; font-variant-position: normal; font-stretch: normal; font-size: 14px; line-height: normal; color: rgb(14, 14, 14); text-align: start;&quot; class=&quot;p1&quot;&gt;&lt;br&gt;&lt;/p&gt;" style="rounded=1;whiteSpace=wrap;html=1;fillColor=#FF77BF;strokeColor=none;arcSize=33;" vertex="1" parent="b1pBMNL9U5uMwUAju9zj-654">
          <mxGeometry y="5" width="151" height="31" as="geometry" />
        </mxCell>
        <mxCell id="b1pBMNL9U5uMwUAju9zj-656" value="&lt;font style=&quot;font-size: 18px;&quot;&gt;&lt;i&gt;Django/Python&lt;/i&gt;&lt;/font&gt;" style="text;html=1;align=center;verticalAlign=middle;whiteSpace=wrap;rounded=1;shadow=0;fontSize=23;fontStyle=1" vertex="1" parent="b1pBMNL9U5uMwUAju9zj-654">
          <mxGeometry x="30" width="89" height="36" as="geometry" />
        </mxCell>
        <mxCell id="b1pBMNL9U5uMwUAju9zj-657" value="" style="group" vertex="1" connectable="0" parent="1">
          <mxGeometry x="-2010" y="2490" width="151" height="36" as="geometry" />
        </mxCell>
        <mxCell id="b1pBMNL9U5uMwUAju9zj-658" value="&lt;p style=&quot;margin: 0px 0px 0px 13px; text-indent: -13px; font-variant-numeric: normal; font-variant-east-asian: normal; font-variant-alternates: normal; font-kerning: auto; font-optical-sizing: auto; font-feature-settings: normal; font-variation-settings: normal; font-variant-position: normal; font-stretch: normal; font-size: 14px; line-height: normal; color: rgb(14, 14, 14); text-align: start;&quot; class=&quot;p1&quot;&gt;&lt;br&gt;&lt;/p&gt;" style="rounded=1;whiteSpace=wrap;html=1;fillColor=#FF77BF;strokeColor=none;arcSize=33;" vertex="1" parent="b1pBMNL9U5uMwUAju9zj-657">
          <mxGeometry y="5" width="151" height="31" as="geometry" />
        </mxCell>
        <mxCell id="b1pBMNL9U5uMwUAju9zj-659" value="&lt;font style=&quot;font-size: 18px;&quot;&gt;&lt;i&gt;Django/Python&lt;/i&gt;&lt;/font&gt;" style="text;html=1;align=center;verticalAlign=middle;whiteSpace=wrap;rounded=1;shadow=0;fontSize=23;fontStyle=1" vertex="1" parent="b1pBMNL9U5uMwUAju9zj-657">
          <mxGeometry x="30" width="89" height="36" as="geometry" />
        </mxCell>
        <mxCell id="b1pBMNL9U5uMwUAju9zj-660" value="" style="group" vertex="1" connectable="0" parent="1">
          <mxGeometry x="-2570" y="400" width="151" height="36" as="geometry" />
        </mxCell>
        <mxCell id="b1pBMNL9U5uMwUAju9zj-661" value="&lt;p style=&quot;margin: 0px 0px 0px 13px; text-indent: -13px; font-variant-numeric: normal; font-variant-east-asian: normal; font-variant-alternates: normal; font-kerning: auto; font-optical-sizing: auto; font-feature-settings: normal; font-variation-settings: normal; font-variant-position: normal; font-stretch: normal; font-size: 14px; line-height: normal; color: rgb(14, 14, 14); text-align: start;&quot; class=&quot;p1&quot;&gt;&lt;br&gt;&lt;/p&gt;" style="rounded=1;whiteSpace=wrap;html=1;fillColor=#FF77BF;strokeColor=none;arcSize=33;" vertex="1" parent="b1pBMNL9U5uMwUAju9zj-660">
          <mxGeometry y="5" width="151" height="31" as="geometry" />
        </mxCell>
        <mxCell id="b1pBMNL9U5uMwUAju9zj-662" value="&lt;font style=&quot;font-size: 18px;&quot;&gt;&lt;i&gt;Django/Python&lt;/i&gt;&lt;/font&gt;" style="text;html=1;align=center;verticalAlign=middle;whiteSpace=wrap;rounded=1;shadow=0;fontSize=23;fontStyle=1" vertex="1" parent="b1pBMNL9U5uMwUAju9zj-660">
          <mxGeometry x="30" width="89" height="36" as="geometry" />
        </mxCell>
        <mxCell id="b1pBMNL9U5uMwUAju9zj-663" value="&lt;p style=&quot;margin: 0px 0px 0px 13px; text-indent: -13px; font-variant-numeric: normal; font-variant-east-asian: normal; font-variant-alternates: normal; font-kerning: auto; font-optical-sizing: auto; font-feature-settings: normal; font-variation-settings: normal; font-variant-position: normal; font-stretch: normal; line-height: normal; text-align: start;&quot; class=&quot;p1&quot;&gt;&lt;span style=&quot;text-align: center; text-indent: 0px;&quot;&gt;&lt;font style=&quot;font-size: 14px;&quot; face=&quot;Times New Roman&quot;&gt;[Транзакция.ID]&lt;/font&gt;&lt;/span&gt;&lt;br&gt;&lt;/p&gt;" style="rounded=1;whiteSpace=wrap;html=1;fillColor=#B8B8B8;strokeColor=#FFD966;" vertex="1" parent="1">
          <mxGeometry x="-665" y="630" width="104" height="21" as="geometry" />
        </mxCell>
        <mxCell id="b1pBMNL9U5uMwUAju9zj-664" value="&lt;p style=&quot;margin: 0px 0px 0px 13px; text-indent: -13px; font-variant-numeric: normal; font-variant-east-asian: normal; font-variant-alternates: normal; font-kerning: auto; font-optical-sizing: auto; font-feature-settings: normal; font-variation-settings: normal; font-variant-position: normal; font-stretch: normal; line-height: normal; text-align: start;&quot; class=&quot;p1&quot;&gt;&lt;span style=&quot;text-align: center; text-indent: 0px;&quot;&gt;&lt;font style=&quot;font-size: 14px;&quot; face=&quot;Times New Roman&quot;&gt;[Транзакция.Статус]&lt;/font&gt;&lt;/span&gt;&lt;br&gt;&lt;/p&gt;" style="rounded=1;whiteSpace=wrap;html=1;fillColor=#B8B8B8;strokeColor=#FFD966;" vertex="1" parent="1">
          <mxGeometry x="-670" y="660" width="125" height="21" as="geometry" />
        </mxCell>
        <mxCell id="Tz6aEU4ManMyac2rpAqn-7" value="&lt;p style=&quot;margin: 0px 0px 0px 13px; text-indent: -13px; font-variant-numeric: normal; font-variant-east-asian: normal; font-variant-alternates: normal; font-kerning: auto; font-optical-sizing: auto; font-feature-settings: normal; font-variation-settings: normal; font-variant-position: normal; font-stretch: normal; font-size: 14px; line-height: normal; color: rgb(14, 14, 14); text-align: start;&quot; class=&quot;p1&quot;&gt;&lt;font face=&quot;Times New Roman&quot;&gt;Заявка на аукцион.ID&lt;/font&gt;&lt;/p&gt;" style="rounded=1;whiteSpace=wrap;html=1;fillColor=#b1ddf0;strokeColor=#10739e;" parent="1" vertex="1">
          <mxGeometry x="-1560" y="2700" width="151" height="21" as="geometry" />
        </mxCell>
        <mxCell id="cKbgiC5qh_IXnBO1eU4K-46" value="&lt;p style=&quot;margin: 0px 0px 0px 13px; text-indent: -13px; font-variant-numeric: normal; font-variant-east-asian: normal; font-variant-alternates: normal; font-kerning: auto; font-optical-sizing: auto; font-feature-settings: normal; font-variation-settings: normal; font-variant-position: normal; font-stretch: normal; line-height: normal; color: rgb(14, 14, 14); text-align: start;&quot; class=&quot;p1&quot;&gt;&lt;font face=&quot;Times New Roman&quot;&gt;&lt;span style=&quot;font-size: 14px;&quot;&gt;JWT&lt;/span&gt;&lt;/font&gt;&lt;/p&gt;" style="rounded=1;whiteSpace=wrap;html=1;fillColor=#b1ddf0;strokeColor=#10739e;" parent="1" vertex="1">
          <mxGeometry x="-3170" y="672" width="49" height="21" as="geometry" />
        </mxCell>
        <mxCell id="cKbgiC5qh_IXnBO1eU4K-49" value="&lt;p style=&quot;margin: 0px 0px 0px 13px; text-indent: -13px; font-variant-numeric: normal; font-variant-east-asian: normal; font-variant-alternates: normal; font-kerning: auto; font-optical-sizing: auto; font-feature-settings: normal; font-variation-settings: normal; font-variant-position: normal; font-stretch: normal; font-size: 14px; line-height: normal; color: rgb(14, 14, 14); text-align: start;&quot; class=&quot;p1&quot;&gt;&lt;font face=&quot;Times New Roman&quot;&gt;Пользователь.Роль&lt;/font&gt;&lt;/p&gt;" style="rounded=1;whiteSpace=wrap;html=1;fillColor=#b1ddf0;strokeColor=#10739e;" parent="1" vertex="1">
          <mxGeometry x="-3170" y="701.5" width="151" height="21" as="geometry" />
        </mxCell>
        <mxCell id="cKbgiC5qh_IXnBO1eU4K-50" value="&lt;p style=&quot;margin: 0px 0px 0px 13px; text-indent: -13px; font-variant-numeric: normal; font-variant-east-asian: normal; font-variant-alternates: normal; font-kerning: auto; font-optical-sizing: auto; font-feature-settings: normal; font-variation-settings: normal; font-variant-position: normal; font-stretch: normal; font-size: 14px; line-height: normal; color: rgb(14, 14, 14); text-align: start;&quot; class=&quot;p1&quot;&gt;&lt;font face=&quot;Times New Roman&quot;&gt;Пользователь.ID&lt;/font&gt;&lt;/p&gt;" style="rounded=1;whiteSpace=wrap;html=1;fillColor=#b1ddf0;strokeColor=#10739e;" parent="1" vertex="1">
          <mxGeometry x="-3170" y="729.5" width="151" height="21" as="geometry" />
        </mxCell>
        <mxCell id="cKbgiC5qh_IXnBO1eU4K-70" value="&lt;p style=&quot;margin: 0px 0px 0px 13px; text-indent: -13px; font-variant-numeric: normal; font-variant-east-asian: normal; font-variant-alternates: normal; font-kerning: auto; font-optical-sizing: auto; font-feature-settings: normal; font-variation-settings: normal; font-variant-position: normal; font-stretch: normal; font-size: 14px; line-height: normal; color: rgb(14, 14, 14); text-align: start;&quot; class=&quot;p1&quot;&gt;&lt;font face=&quot;Times New Roman&quot;&gt;Пользователь.Электронная почта&lt;/font&gt;&lt;/p&gt;" style="rounded=1;whiteSpace=wrap;html=1;fillColor=#b1ddf0;strokeColor=#10739e;" parent="1" vertex="1">
          <mxGeometry x="-3170" y="760" width="209" height="21" as="geometry" />
        </mxCell>
        <mxCell id="cKbgiC5qh_IXnBO1eU4K-77" value="&lt;p style=&quot;margin: 0px 0px 0px 13px; text-indent: -13px; font-variant-numeric: normal; font-variant-east-asian: normal; font-variant-alternates: normal; font-kerning: auto; font-optical-sizing: auto; font-feature-settings: normal; font-variation-settings: normal; font-variant-position: normal; font-stretch: normal; font-size: 14px; line-height: normal; color: rgb(14, 14, 14); text-align: start;&quot; class=&quot;p1&quot;&gt;&lt;font face=&quot;Times New Roman&quot;&gt;Пользователь.Активен&lt;/font&gt;&lt;/p&gt;" style="rounded=1;whiteSpace=wrap;html=1;fillColor=#b1ddf0;strokeColor=#10739e;" parent="1" vertex="1">
          <mxGeometry x="-3117" y="672" width="147" height="21" as="geometry" />
        </mxCell>
        <mxCell id="b1pBMNL9U5uMwUAju9zj-668" value="" style="rounded=1;whiteSpace=wrap;html=1;arcSize=3;movable=1;resizable=1;rotatable=1;deletable=1;editable=1;locked=0;connectable=1;fillColor=#f5f5f5;strokeColor=#FF3333;strokeWidth=3;fontColor=#333333;" vertex="1" parent="1">
          <mxGeometry x="-3640" y="1080" width="850" height="520" as="geometry" />
        </mxCell>
        <mxCell id="b1pBMNL9U5uMwUAju9zj-669" value="" style="group" vertex="1" connectable="0" parent="1">
          <mxGeometry x="-3570" y="1170" width="309" height="39" as="geometry" />
        </mxCell>
        <mxCell id="b1pBMNL9U5uMwUAju9zj-670" value="" style="group" vertex="1" connectable="0" parent="b1pBMNL9U5uMwUAju9zj-669">
          <mxGeometry width="309" height="39" as="geometry" />
        </mxCell>
        <mxCell id="b1pBMNL9U5uMwUAju9zj-671" value="" style="rounded=1;whiteSpace=wrap;html=1;gradientColor=none;fillColor=#1C57CD;strokeColor=none;movable=1;resizable=1;rotatable=1;deletable=1;editable=1;locked=0;connectable=1;" vertex="1" parent="b1pBMNL9U5uMwUAju9zj-670">
          <mxGeometry width="309" height="39" as="geometry" />
        </mxCell>
        <mxCell id="b1pBMNL9U5uMwUAju9zj-672" value="" style="sketch=0;outlineConnect=0;dashed=0;verticalLabelPosition=bottom;verticalAlign=top;align=center;html=1;fontSize=12;fontStyle=0;aspect=fixed;pointerEvents=1;shape=mxgraph.aws4.gear;rounded=1;strokeColor=none;fillColor=default;" vertex="1" parent="b1pBMNL9U5uMwUAju9zj-670">
          <mxGeometry x="280" y="11" width="17" height="17" as="geometry" />
        </mxCell>
        <mxCell id="b1pBMNL9U5uMwUAju9zj-673" value="Управление данными профиля" style="text;html=1;align=center;verticalAlign=middle;whiteSpace=wrap;rounded=1;fontSize=13;fontColor=#FFFFFF;strokeColor=none;movable=1;resizable=1;rotatable=1;deletable=1;editable=1;locked=0;connectable=1;" vertex="1" parent="b1pBMNL9U5uMwUAju9zj-670">
          <mxGeometry x="3" y="4.5" width="207" height="30" as="geometry" />
        </mxCell>
        <mxCell id="b1pBMNL9U5uMwUAju9zj-674" value="" style="group" vertex="1" connectable="0" parent="1">
          <mxGeometry x="-3570" y="1220" width="309" height="39" as="geometry" />
        </mxCell>
        <mxCell id="b1pBMNL9U5uMwUAju9zj-675" value="" style="rounded=1;whiteSpace=wrap;html=1;fillColor=#1C57CD;strokeColor=none;" vertex="1" parent="b1pBMNL9U5uMwUAju9zj-674">
          <mxGeometry width="309" height="39" as="geometry" />
        </mxCell>
        <mxCell id="b1pBMNL9U5uMwUAju9zj-676" value="" style="sketch=0;outlineConnect=0;fontColor=#232F3E;gradientColor=none;fillColor=default;strokeColor=none;dashed=0;verticalLabelPosition=bottom;verticalAlign=top;align=center;html=1;fontSize=12;fontStyle=0;aspect=fixed;pointerEvents=1;shape=mxgraph.aws4.gear;rounded=1;" vertex="1" parent="b1pBMNL9U5uMwUAju9zj-674">
          <mxGeometry x="280" y="11" width="17" height="17" as="geometry" />
        </mxCell>
        <mxCell id="b1pBMNL9U5uMwUAju9zj-677" value="Хранение и редактирование настроек" style="text;html=1;align=center;verticalAlign=middle;whiteSpace=wrap;rounded=1;fontSize=13;fontColor=#FFFFFF;strokeColor=none;" vertex="1" parent="b1pBMNL9U5uMwUAju9zj-674">
          <mxGeometry x="2" y="4.5" width="258" height="30" as="geometry" />
        </mxCell>
        <mxCell id="b1pBMNL9U5uMwUAju9zj-678" value="" style="group" vertex="1" connectable="0" parent="1">
          <mxGeometry x="-3570" y="1270" width="309" height="39" as="geometry" />
        </mxCell>
        <mxCell id="b1pBMNL9U5uMwUAju9zj-679" value="" style="rounded=1;whiteSpace=wrap;html=1;fillColor=#1C57CD;strokeColor=none;" vertex="1" parent="b1pBMNL9U5uMwUAju9zj-678">
          <mxGeometry width="309" height="39" as="geometry" />
        </mxCell>
        <mxCell id="b1pBMNL9U5uMwUAju9zj-680" value="" style="sketch=0;outlineConnect=0;fontColor=#232F3E;gradientColor=none;fillColor=default;strokeColor=none;dashed=0;verticalLabelPosition=bottom;verticalAlign=top;align=center;html=1;fontSize=12;fontStyle=0;aspect=fixed;pointerEvents=1;shape=mxgraph.aws4.gear;rounded=1;" vertex="1" parent="b1pBMNL9U5uMwUAju9zj-678">
          <mxGeometry x="280" y="11" width="17" height="17" as="geometry" />
        </mxCell>
        <mxCell id="b1pBMNL9U5uMwUAju9zj-681" value="Редактирование персданных" style="text;html=1;align=center;verticalAlign=middle;whiteSpace=wrap;rounded=1;fontSize=13;fontColor=#FFFFFF;strokeColor=none;" vertex="1" parent="b1pBMNL9U5uMwUAju9zj-678">
          <mxGeometry x="3" y="5" width="207" height="30" as="geometry" />
        </mxCell>
        <mxCell id="b1pBMNL9U5uMwUAju9zj-686" value="Профиль пользователя" style="text;html=1;align=center;verticalAlign=middle;whiteSpace=wrap;rounded=1;shadow=0;fontSize=23;fontStyle=1" vertex="1" parent="1">
          <mxGeometry x="-3650" y="1100" width="390" height="49" as="geometry" />
        </mxCell>
        <mxCell id="b1pBMNL9U5uMwUAju9zj-687" value="" style="strokeWidth=2;html=1;shape=mxgraph.flowchart.database;whiteSpace=wrap;rounded=1;movable=1;resizable=1;rotatable=1;deletable=1;editable=1;locked=0;connectable=1;" vertex="1" parent="1">
          <mxGeometry x="-3200" y="1110" width="360" height="460" as="geometry" />
        </mxCell>
        <mxCell id="b1pBMNL9U5uMwUAju9zj-688" value="" style="group" vertex="1" connectable="0" parent="1">
          <mxGeometry x="-3104" y="1154" width="151" height="49" as="geometry" />
        </mxCell>
        <mxCell id="b1pBMNL9U5uMwUAju9zj-689" value="&lt;p style=&quot;margin: 0px 0px 0px 13px; text-indent: -13px; font-variant-numeric: normal; font-variant-east-asian: normal; font-variant-alternates: normal; font-kerning: auto; font-optical-sizing: auto; font-feature-settings: normal; font-variation-settings: normal; font-variant-position: normal; font-stretch: normal; font-size: 14px; line-height: normal; color: rgb(14, 14, 14); text-align: start;&quot; class=&quot;p1&quot;&gt;&lt;br&gt;&lt;/p&gt;" style="rounded=1;whiteSpace=wrap;html=1;fillColor=#FF77BF;strokeColor=none;arcSize=50;" vertex="1" parent="b1pBMNL9U5uMwUAju9zj-688">
          <mxGeometry y="9" width="151" height="33" as="geometry" />
        </mxCell>
        <mxCell id="b1pBMNL9U5uMwUAju9zj-690" value="&lt;font style=&quot;font-size: 18px;&quot;&gt;&lt;i&gt;PostgreSQL&lt;/i&gt;&lt;/font&gt;" style="text;html=1;align=center;verticalAlign=middle;whiteSpace=wrap;rounded=1;shadow=0;fontSize=23;fontStyle=1" vertex="1" parent="b1pBMNL9U5uMwUAju9zj-688">
          <mxGeometry x="31" width="89" height="49" as="geometry" />
        </mxCell>
        <mxCell id="b1pBMNL9U5uMwUAju9zj-691" value="" style="group" vertex="1" connectable="0" parent="1">
          <mxGeometry x="-3620" y="1050" width="151" height="36" as="geometry" />
        </mxCell>
        <mxCell id="b1pBMNL9U5uMwUAju9zj-692" value="&lt;p style=&quot;margin: 0px 0px 0px 13px; text-indent: -13px; font-variant-numeric: normal; font-variant-east-asian: normal; font-variant-alternates: normal; font-kerning: auto; font-optical-sizing: auto; font-feature-settings: normal; font-variation-settings: normal; font-variant-position: normal; font-stretch: normal; font-size: 14px; line-height: normal; color: rgb(14, 14, 14); text-align: start;&quot; class=&quot;p1&quot;&gt;&lt;br&gt;&lt;/p&gt;" style="rounded=1;whiteSpace=wrap;html=1;fillColor=#FF77BF;strokeColor=none;arcSize=33;" vertex="1" parent="b1pBMNL9U5uMwUAju9zj-691">
          <mxGeometry y="5" width="151" height="31" as="geometry" />
        </mxCell>
        <mxCell id="b1pBMNL9U5uMwUAju9zj-693" value="&lt;font style=&quot;font-size: 18px;&quot;&gt;&lt;i&gt;Django/Python&lt;/i&gt;&lt;/font&gt;" style="text;html=1;align=center;verticalAlign=middle;whiteSpace=wrap;rounded=1;shadow=0;fontSize=23;fontStyle=1" vertex="1" parent="b1pBMNL9U5uMwUAju9zj-691">
          <mxGeometry x="30" width="89" height="36" as="geometry" />
        </mxCell>
        <mxCell id="b1pBMNL9U5uMwUAju9zj-696" value="&lt;p style=&quot;margin: 0px 0px 0px 13px; text-indent: -13px; font-variant-numeric: normal; font-variant-east-asian: normal; font-variant-alternates: normal; font-kerning: auto; font-optical-sizing: auto; font-feature-settings: normal; font-variation-settings: normal; font-variant-position: normal; font-stretch: normal; font-size: 14px; line-height: normal; color: rgb(14, 14, 14); text-align: start;&quot; class=&quot;p1&quot;&gt;&lt;font face=&quot;Times New Roman&quot;&gt;Пользователь.ID&lt;/font&gt;&lt;/p&gt;" style="rounded=1;whiteSpace=wrap;html=1;fillColor=#b1ddf0;strokeColor=#10739e;" vertex="1" parent="1">
          <mxGeometry x="-3150" y="1330" width="151" height="21" as="geometry" />
        </mxCell>
        <mxCell id="b1pBMNL9U5uMwUAju9zj-697" value="&lt;p style=&quot;margin: 0px 0px 0px 13px; text-indent: -13px; font-variant-numeric: normal; font-variant-east-asian: normal; font-variant-alternates: normal; font-kerning: auto; font-optical-sizing: auto; font-feature-settings: normal; font-variation-settings: normal; font-variant-position: normal; font-stretch: normal; font-size: 14px; line-height: normal; color: rgb(14, 14, 14); text-align: start;&quot; class=&quot;p1&quot;&gt;&lt;font face=&quot;Times New Roman&quot;&gt;Пользователь.Имя&lt;/font&gt;&lt;/p&gt;" style="rounded=1;whiteSpace=wrap;html=1;fillColor=#b1ddf0;strokeColor=#10739e;" vertex="1" parent="1">
          <mxGeometry x="-3150" y="1270" width="119" height="21" as="geometry" />
        </mxCell>
        <mxCell id="b1pBMNL9U5uMwUAju9zj-698" value="&lt;p style=&quot;margin: 0px 0px 0px 13px; text-indent: -13px; font-variant-numeric: normal; font-variant-east-asian: normal; font-variant-alternates: normal; font-kerning: auto; font-optical-sizing: auto; font-feature-settings: normal; font-variation-settings: normal; font-variant-position: normal; font-stretch: normal; font-size: 14px; line-height: normal; color: rgb(14, 14, 14); text-align: start;&quot; class=&quot;p1&quot;&gt;&lt;font face=&quot;Times New Roman&quot;&gt;Пользователь.Фамилия&lt;/font&gt;&lt;/p&gt;" style="rounded=1;whiteSpace=wrap;html=1;fillColor=#b1ddf0;strokeColor=#10739e;" vertex="1" parent="1">
          <mxGeometry x="-3150" y="1357" width="151" height="21" as="geometry" />
        </mxCell>
        <mxCell id="b1pBMNL9U5uMwUAju9zj-699" value="&lt;p style=&quot;margin: 0px 0px 0px 13px; text-indent: -13px; font-variant-numeric: normal; font-variant-east-asian: normal; font-variant-alternates: normal; font-kerning: auto; font-optical-sizing: auto; font-feature-settings: normal; font-variation-settings: normal; font-variant-position: normal; font-stretch: normal; font-size: 14px; line-height: normal; color: rgb(14, 14, 14); text-align: start;&quot; class=&quot;p1&quot;&gt;&lt;font face=&quot;Times New Roman&quot;&gt;Пользователь.Адрес&lt;/font&gt;&lt;/p&gt;" style="rounded=1;whiteSpace=wrap;html=1;fillColor=#b1ddf0;strokeColor=#10739e;" vertex="1" parent="1">
          <mxGeometry x="-3150" y="1382.5" width="130" height="21" as="geometry" />
        </mxCell>
        <mxCell id="b1pBMNL9U5uMwUAju9zj-700" value="&lt;p style=&quot;margin: 0px 0px 0px 13px; text-indent: -13px; font-variant-numeric: normal; font-variant-east-asian: normal; font-variant-alternates: normal; font-kerning: auto; font-optical-sizing: auto; font-feature-settings: normal; font-variation-settings: normal; font-variant-position: normal; font-stretch: normal; font-size: 14px; line-height: normal; color: rgb(14, 14, 14); text-align: start;&quot; class=&quot;p1&quot;&gt;&lt;font face=&quot;Times New Roman&quot;&gt;Пользователь.Дата регистрации&lt;/font&gt;&lt;/p&gt;" style="rounded=1;whiteSpace=wrap;html=1;fillColor=#b1ddf0;strokeColor=#10739e;" vertex="1" parent="1">
          <mxGeometry x="-3150" y="1295.5" width="199" height="21" as="geometry" />
        </mxCell>
        <mxCell id="b1pBMNL9U5uMwUAju9zj-701" value="&lt;p style=&quot;margin: 0px 0px 0px 13px; text-indent: -13px; font-variant-numeric: normal; font-variant-east-asian: normal; font-variant-alternates: normal; font-kerning: auto; font-optical-sizing: auto; font-feature-settings: normal; font-variation-settings: normal; font-variant-position: normal; font-stretch: normal; font-size: 14px; line-height: normal; color: rgb(14, 14, 14); text-align: start;&quot; class=&quot;p1&quot;&gt;&lt;font face=&quot;Times New Roman&quot;&gt;Пользователь.Статус&lt;/font&gt;&lt;/p&gt;" style="rounded=1;whiteSpace=wrap;html=1;fillColor=#b1ddf0;strokeColor=#10739e;" vertex="1" parent="1">
          <mxGeometry x="-3150" y="1410.5" width="136" height="21" as="geometry" />
        </mxCell>
        <mxCell id="b1pBMNL9U5uMwUAju9zj-702" value="&lt;p style=&quot;margin: 0px 0px 0px 13px; text-indent: -13px; font-variant-numeric: normal; font-variant-east-asian: normal; font-variant-alternates: normal; font-kerning: auto; font-optical-sizing: auto; font-feature-settings: normal; font-variation-settings: normal; font-variant-position: normal; font-stretch: normal; font-size: 14px; line-height: normal; color: rgb(14, 14, 14); text-align: start;&quot; class=&quot;p1&quot;&gt;&lt;font face=&quot;Times New Roman&quot;&gt;Пользователь.Электронная почта&lt;/font&gt;&lt;/p&gt;" style="rounded=1;whiteSpace=wrap;html=1;fillColor=#b1ddf0;strokeColor=#10739e;" vertex="1" parent="1">
          <mxGeometry x="-3150" y="1469.25" width="209" height="21" as="geometry" />
        </mxCell>
        <mxCell id="b1pBMNL9U5uMwUAju9zj-703" value="&lt;p style=&quot;margin: 0px 0px 0px 13px; text-indent: -13px; font-variant-numeric: normal; font-variant-east-asian: normal; font-variant-alternates: normal; font-kerning: auto; font-optical-sizing: auto; font-feature-settings: normal; font-variation-settings: normal; font-variant-position: normal; font-stretch: normal; font-size: 14px; line-height: normal; color: rgb(14, 14, 14); text-align: start;&quot; class=&quot;p1&quot;&gt;&lt;font face=&quot;Times New Roman&quot;&gt;Пользователь.Номер телефона&lt;/font&gt;&lt;/p&gt;" style="rounded=1;whiteSpace=wrap;html=1;fillColor=#b1ddf0;strokeColor=#10739e;" vertex="1" parent="1">
          <mxGeometry x="-3150" y="1440.5" width="190" height="21" as="geometry" />
        </mxCell>
        <mxCell id="b1pBMNL9U5uMwUAju9zj-705" value="&lt;p style=&quot;margin: 0px 0px 0px 13px; text-indent: -13px; font-variant-numeric: normal; font-variant-east-asian: normal; font-variant-alternates: normal; font-kerning: auto; font-optical-sizing: auto; font-feature-settings: normal; font-variation-settings: normal; font-variant-position: normal; font-stretch: normal; font-size: 14px; line-height: normal; color: rgb(14, 14, 14); text-align: start;&quot; class=&quot;p1&quot;&gt;&lt;font face=&quot;Times New Roman&quot;&gt;Заказ.ID&lt;/font&gt;&lt;/p&gt;" style="rounded=1;whiteSpace=wrap;html=1;fillColor=#b1ddf0;strokeColor=#FF0000;shadow=0;" vertex="1" parent="1">
          <mxGeometry x="-1530" y="2040" width="78" height="21" as="geometry" />
        </mxCell>
        <mxCell id="b1pBMNL9U5uMwUAju9zj-706" value="&lt;p style=&quot;margin: 0px 0px 0px 13px; text-indent: -13px; font-variant-numeric: normal; font-variant-east-asian: normal; font-variant-alternates: normal; font-kerning: auto; font-optical-sizing: auto; font-feature-settings: normal; font-variation-settings: normal; font-variant-position: normal; font-stretch: normal; font-size: 14px; line-height: normal; color: rgb(14, 14, 14); text-align: start;&quot; class=&quot;p1&quot;&gt;&lt;font face=&quot;Times New Roman&quot;&gt;Заказ.Статус&lt;/font&gt;&lt;/p&gt;" style="rounded=1;whiteSpace=wrap;html=1;fillColor=#b1ddf0;strokeColor=#FF0000;" vertex="1" parent="1">
          <mxGeometry x="-1530" y="2070" width="111" height="21" as="geometry" />
        </mxCell>
        <mxCell id="b1pBMNL9U5uMwUAju9zj-708" value="&lt;p style=&quot;margin: 0px 0px 0px 13px; text-indent: -13px; font-variant-numeric: normal; font-variant-east-asian: normal; font-variant-alternates: normal; font-kerning: auto; font-optical-sizing: auto; font-feature-settings: normal; font-variation-settings: normal; font-variant-position: normal; font-stretch: normal; font-size: 14px; line-height: normal; color: rgb(14, 14, 14); text-align: start;&quot; class=&quot;p1&quot;&gt;&lt;font face=&quot;Times New Roman&quot;&gt;Пользователь.ID&lt;/font&gt;&lt;/p&gt;" style="rounded=1;whiteSpace=wrap;html=1;fillColor=#b1ddf0;strokeColor=#10739e;" vertex="1" parent="1">
          <mxGeometry x="-1530" y="2130" width="151" height="21" as="geometry" />
        </mxCell>
        <mxCell id="b1pBMNL9U5uMwUAju9zj-711" value="" style="endArrow=classic;html=1;rounded=1;dashed=1;strokeWidth=2;entryX=0.5;entryY=0;entryDx=0;entryDy=0;strokeColor=#FF0000;" edge="1" parent="1" source="b1pBMNL9U5uMwUAju9zj-727" target="b1pBMNL9U5uMwUAju9zj-578">
          <mxGeometry width="50" height="50" relative="1" as="geometry">
            <mxPoint x="-1870" y="190" as="sourcePoint" />
            <mxPoint x="-3835" y="700" as="targetPoint" />
            <Array as="points">
              <mxPoint x="-3215" y="-96" />
            </Array>
          </mxGeometry>
        </mxCell>
        <mxCell id="b1pBMNL9U5uMwUAju9zj-716" value="" style="group" vertex="1" connectable="0" parent="1">
          <mxGeometry x="-170" y="-280" width="535" height="220" as="geometry" />
        </mxCell>
        <mxCell id="b1pBMNL9U5uMwUAju9zj-717" value="" style="rounded=1;whiteSpace=wrap;html=1;arcSize=5;fillColor=#fff2cc;strokeColor=#d6b656;" vertex="1" parent="b1pBMNL9U5uMwUAju9zj-716">
          <mxGeometry x="17" width="518" height="220" as="geometry" />
        </mxCell>
        <mxCell id="b1pBMNL9U5uMwUAju9zj-718" value="TurboPay" style="text;html=1;align=center;verticalAlign=middle;whiteSpace=wrap;rounded=1;shadow=0;fontSize=23;fontStyle=1" vertex="1" parent="b1pBMNL9U5uMwUAju9zj-716">
          <mxGeometry width="177" height="49" as="geometry" />
        </mxCell>
        <mxCell id="b1pBMNL9U5uMwUAju9zj-719" value="" style="group" vertex="1" connectable="0" parent="1">
          <mxGeometry x="-120" y="-220" width="518" height="224" as="geometry" />
        </mxCell>
        <mxCell id="b1pBMNL9U5uMwUAju9zj-720" value="" style="rounded=1;whiteSpace=wrap;html=1;arcSize=5;fillColor=#fff2cc;strokeColor=#d6b656;" vertex="1" parent="b1pBMNL9U5uMwUAju9zj-719">
          <mxGeometry width="518" height="224" as="geometry" />
        </mxCell>
        <mxCell id="b1pBMNL9U5uMwUAju9zj-721" value="FastMoney" style="text;html=1;align=center;verticalAlign=middle;whiteSpace=wrap;rounded=1;shadow=0;fontSize=23;fontStyle=1" vertex="1" parent="b1pBMNL9U5uMwUAju9zj-719">
          <mxGeometry x="2" width="141" height="49" as="geometry" />
        </mxCell>
        <mxCell id="b1pBMNL9U5uMwUAju9zj-722" value="Яндекс.Pay" style="text;html=1;align=center;verticalAlign=middle;whiteSpace=wrap;rounded=1;shadow=0;fontSize=23;fontStyle=1" vertex="1" parent="1">
          <mxGeometry x="-90" y="-160" width="150" height="49" as="geometry" />
        </mxCell>
        <mxCell id="b1pBMNL9U5uMwUAju9zj-723" value="WAN" style="text;html=1;align=center;verticalAlign=middle;whiteSpace=wrap;rounded=1;shadow=0;fontSize=23;fontStyle=1" vertex="1" parent="1">
          <mxGeometry x="-2720" y="-300" width="85" height="49" as="geometry" />
        </mxCell>
        <mxCell id="b1pBMNL9U5uMwUAju9zj-724" value="" style="strokeWidth=2;html=1;shape=mxgraph.flowchart.database;whiteSpace=wrap;rounded=1;movable=1;resizable=1;rotatable=1;deletable=1;editable=1;locked=0;connectable=1;" vertex="1" parent="1">
          <mxGeometry x="190" y="-100" width="220" height="171" as="geometry" />
        </mxCell>
        <mxCell id="b1pBMNL9U5uMwUAju9zj-725" value="&lt;p style=&quot;margin: 0px 0px 0px 13px; text-indent: -13px; font-variant-numeric: normal; font-variant-east-asian: normal; font-variant-alternates: normal; font-kerning: auto; font-optical-sizing: auto; font-feature-settings: normal; font-variation-settings: normal; font-variant-position: normal; font-stretch: normal; font-size: 14px; line-height: normal; text-align: start;&quot; class=&quot;p1&quot;&gt;&lt;span style=&quot;font-size: 12px; text-align: center; text-indent: 0px;&quot;&gt;[Транзакция.Статус]&lt;/span&gt;&lt;br&gt;&lt;/p&gt;" style="rounded=1;whiteSpace=wrap;html=1;fillColor=#B8B8B8;strokeColor=#FFD966;" vertex="1" parent="1">
          <mxGeometry x="240" y="-10" width="119" height="21" as="geometry" />
        </mxCell>
        <mxCell id="b1pBMNL9U5uMwUAju9zj-726" value="&lt;p style=&quot;margin: 0px 0px 0px 13px; text-indent: -13px; font-variant-numeric: normal; font-variant-east-asian: normal; font-variant-alternates: normal; font-kerning: auto; font-optical-sizing: auto; font-feature-settings: normal; font-variation-settings: normal; font-variant-position: normal; font-stretch: normal; font-size: 14px; line-height: normal; text-align: start;&quot; class=&quot;p1&quot;&gt;&lt;span style=&quot;font-size: 12px; text-align: center; text-indent: 0px;&quot;&gt;[Транзакция.ID]&lt;/span&gt;&lt;br&gt;&lt;/p&gt;" style="rounded=1;whiteSpace=wrap;html=1;fillColor=#B8B8B8;strokeColor=#FFD966;" vertex="1" parent="1">
          <mxGeometry x="240" y="20" width="119" height="21" as="geometry" />
        </mxCell>
        <mxCell id="b1pBMNL9U5uMwUAju9zj-727" value="Клиент" style="shape=umlActor;verticalLabelPosition=bottom;verticalAlign=top;html=1;outlineConnect=0;rounded=1;" vertex="1" parent="1">
          <mxGeometry x="-1727" y="-167" width="65" height="141" as="geometry" />
        </mxCell>
        <mxCell id="b1pBMNL9U5uMwUAju9zj-728" value="" style="group" vertex="1" connectable="0" parent="1">
          <mxGeometry x="-100" y="-110" width="260" height="39" as="geometry" />
        </mxCell>
        <mxCell id="b1pBMNL9U5uMwUAju9zj-729" value="" style="rounded=1;whiteSpace=wrap;html=1;fillColor=#ffe6cc;strokeColor=#d79b00;" vertex="1" parent="b1pBMNL9U5uMwUAju9zj-728">
          <mxGeometry x="10" width="250" height="39" as="geometry" />
        </mxCell>
        <mxCell id="b1pBMNL9U5uMwUAju9zj-730" value="" style="sketch=0;outlineConnect=0;fontColor=#232F3E;gradientColor=none;fillColor=#232F3D;strokeColor=none;dashed=0;verticalLabelPosition=bottom;verticalAlign=top;align=center;html=1;fontSize=12;fontStyle=0;aspect=fixed;pointerEvents=1;shape=mxgraph.aws4.gear;rounded=1;" vertex="1" parent="b1pBMNL9U5uMwUAju9zj-728">
          <mxGeometry x="230" y="11" width="17" height="17" as="geometry" />
        </mxCell>
        <mxCell id="b1pBMNL9U5uMwUAju9zj-731" value="Инициировать платёж" style="text;html=1;align=center;verticalAlign=middle;whiteSpace=wrap;rounded=1;fontSize=13;" vertex="1" parent="b1pBMNL9U5uMwUAju9zj-728">
          <mxGeometry y="4.5" width="170" height="30" as="geometry" />
        </mxCell>
        <mxCell id="b1pBMNL9U5uMwUAju9zj-732" value="" style="group" vertex="1" connectable="0" parent="1">
          <mxGeometry x="-100" y="-60" width="260" height="39" as="geometry" />
        </mxCell>
        <mxCell id="b1pBMNL9U5uMwUAju9zj-733" value="" style="rounded=1;whiteSpace=wrap;html=1;fillColor=#ffe6cc;strokeColor=#d79b00;" vertex="1" parent="b1pBMNL9U5uMwUAju9zj-732">
          <mxGeometry x="10" width="250" height="39" as="geometry" />
        </mxCell>
        <mxCell id="b1pBMNL9U5uMwUAju9zj-734" value="" style="sketch=0;outlineConnect=0;fontColor=#232F3E;gradientColor=none;fillColor=#232F3D;strokeColor=none;dashed=0;verticalLabelPosition=bottom;verticalAlign=top;align=center;html=1;fontSize=12;fontStyle=0;aspect=fixed;pointerEvents=1;shape=mxgraph.aws4.gear;rounded=1;" vertex="1" parent="b1pBMNL9U5uMwUAju9zj-732">
          <mxGeometry x="230" y="11" width="17" height="17" as="geometry" />
        </mxCell>
        <mxCell id="b1pBMNL9U5uMwUAju9zj-735" value="Подтвердить платёж" style="text;html=1;align=center;verticalAlign=middle;whiteSpace=wrap;rounded=1;fontSize=13;" vertex="1" parent="b1pBMNL9U5uMwUAju9zj-732">
          <mxGeometry y="4.5" width="170" height="30" as="geometry" />
        </mxCell>
        <mxCell id="b1pBMNL9U5uMwUAju9zj-736" value="" style="group" vertex="1" connectable="0" parent="1">
          <mxGeometry x="-90" y="-10" width="250" height="39" as="geometry" />
        </mxCell>
        <mxCell id="b1pBMNL9U5uMwUAju9zj-737" value="" style="rounded=1;whiteSpace=wrap;html=1;fillColor=#ffe6cc;strokeColor=#d79b00;" vertex="1" parent="b1pBMNL9U5uMwUAju9zj-736">
          <mxGeometry width="250" height="39" as="geometry" />
        </mxCell>
        <mxCell id="b1pBMNL9U5uMwUAju9zj-738" value="" style="sketch=0;outlineConnect=0;fontColor=#232F3E;gradientColor=none;fillColor=#232F3D;strokeColor=none;dashed=0;verticalLabelPosition=bottom;verticalAlign=top;align=center;html=1;fontSize=12;fontStyle=0;aspect=fixed;pointerEvents=1;shape=mxgraph.aws4.gear;rounded=1;" vertex="1" parent="b1pBMNL9U5uMwUAju9zj-736">
          <mxGeometry x="220" y="11" width="17" height="17" as="geometry" />
        </mxCell>
        <mxCell id="b1pBMNL9U5uMwUAju9zj-739" value="Предоставить статус платежа" style="text;html=1;align=center;verticalAlign=middle;whiteSpace=wrap;rounded=1;fontSize=13;" vertex="1" parent="b1pBMNL9U5uMwUAju9zj-736">
          <mxGeometry y="4.5" width="200" height="30" as="geometry" />
        </mxCell>
        <mxCell id="b1pBMNL9U5uMwUAju9zj-743" value="" style="endArrow=classic;html=1;rounded=1;curved=0;entryX=1.001;entryY=0.222;entryDx=0;entryDy=0;entryPerimeter=0;" edge="1" parent="1">
          <mxGeometry width="50" height="50" relative="1" as="geometry">
            <mxPoint x="115" y="96" as="sourcePoint" />
            <mxPoint x="-269" y="586" as="targetPoint" />
            <Array as="points">
              <mxPoint x="115" y="586" />
            </Array>
          </mxGeometry>
        </mxCell>
        <mxCell id="b1pBMNL9U5uMwUAju9zj-744" value="&lt;p style=&quot;margin: 0px 0px 0px 21px; text-indent: -21px; font-variant-numeric: normal; font-variant-east-asian: normal; font-variant-alternates: normal; font-kerning: auto; font-optical-sizing: auto; font-feature-settings: normal; font-variation-settings: normal; font-variant-position: normal; font-stretch: normal; line-height: normal; color: rgb(14, 14, 14); text-align: start; text-wrap: wrap;&quot; class=&quot;p1&quot;&gt;&lt;font style=&quot;font-size: 12px;&quot; face=&quot;Helvetica&quot;&gt;Подтверждение платежа&lt;/font&gt;&lt;/p&gt;" style="edgeLabel;html=1;align=center;verticalAlign=middle;resizable=0;points=[];rounded=1;" vertex="1" connectable="0" parent="b1pBMNL9U5uMwUAju9zj-743">
          <mxGeometry x="0.1936" y="1" relative="1" as="geometry">
            <mxPoint x="-269" y="39" as="offset" />
          </mxGeometry>
        </mxCell>
        <mxCell id="b1pBMNL9U5uMwUAju9zj-745" value="" style="endArrow=classic;html=1;rounded=1;exitX=1.001;exitY=0.325;exitDx=0;exitDy=0;exitPerimeter=0;curved=0;entryX=0.68;entryY=1.001;entryDx=0;entryDy=0;entryPerimeter=0;" edge="1" parent="1">
          <mxGeometry width="50" height="50" relative="1" as="geometry">
            <mxPoint x="-269" y="666" as="sourcePoint" />
            <mxPoint x="195" y="90" as="targetPoint" />
            <Array as="points">
              <mxPoint x="195" y="666" />
            </Array>
          </mxGeometry>
        </mxCell>
        <mxCell id="b1pBMNL9U5uMwUAju9zj-746" value="&lt;font style=&quot;font-size: 12px;&quot;&gt;Предоставить статус платежа&lt;/font&gt;" style="edgeLabel;html=1;align=center;verticalAlign=middle;resizable=0;points=[];rounded=1;" vertex="1" connectable="0" parent="b1pBMNL9U5uMwUAju9zj-745">
          <mxGeometry x="0.1936" y="1" relative="1" as="geometry">
            <mxPoint x="-209" y="46" as="offset" />
          </mxGeometry>
        </mxCell>
        <mxCell id="b1pBMNL9U5uMwUAju9zj-747" value="" style="endArrow=classic;html=1;rounded=1;curved=0;entryX=1;entryY=0.532;entryDx=0;entryDy=0;entryPerimeter=0;" edge="1" parent="1">
          <mxGeometry width="50" height="50" relative="1" as="geometry">
            <mxPoint x="355" y="96" as="sourcePoint" />
            <mxPoint x="-270" y="825" as="targetPoint" />
            <Array as="points">
              <mxPoint x="355" y="826" />
            </Array>
          </mxGeometry>
        </mxCell>
        <mxCell id="b1pBMNL9U5uMwUAju9zj-748" value="&lt;font style=&quot;font-size: 12px;&quot;&gt;Подтверждение отмены&amp;nbsp;&lt;/font&gt;&lt;div&gt;&lt;font style=&quot;font-size: 12px;&quot;&gt;платежа&lt;/font&gt;&lt;/div&gt;" style="edgeLabel;html=1;align=center;verticalAlign=middle;resizable=0;points=[];rounded=1;" vertex="1" connectable="0" parent="b1pBMNL9U5uMwUAju9zj-747">
          <mxGeometry x="0.1936" y="1" relative="1" as="geometry">
            <mxPoint x="-262" y="-41" as="offset" />
          </mxGeometry>
        </mxCell>
        <mxCell id="b1pBMNL9U5uMwUAju9zj-749" value="" style="endArrow=classic;html=1;rounded=1;exitX=1;exitY=0.117;exitDx=0;exitDy=0;exitPerimeter=0;curved=0;entryX=0.214;entryY=1.007;entryDx=0;entryDy=0;entryPerimeter=0;" edge="1" parent="1">
          <mxGeometry width="50" height="50" relative="1" as="geometry">
            <mxPoint x="-270" y="505" as="sourcePoint" />
            <mxPoint x="-45" y="92" as="targetPoint" />
            <Array as="points">
              <mxPoint x="-45" y="506" />
            </Array>
          </mxGeometry>
        </mxCell>
        <mxCell id="b1pBMNL9U5uMwUAju9zj-750" value="&lt;span style=&quot;text-wrap: wrap;&quot;&gt;&lt;font style=&quot;font-size: 12px;&quot;&gt;Инициировать платёж&lt;/font&gt;&lt;/span&gt;" style="edgeLabel;html=1;align=center;verticalAlign=middle;resizable=0;points=[];rounded=1;" vertex="1" connectable="0" parent="b1pBMNL9U5uMwUAju9zj-749">
          <mxGeometry x="0.1936" y="1" relative="1" as="geometry">
            <mxPoint x="-119" y="87" as="offset" />
          </mxGeometry>
        </mxCell>
        <mxCell id="b1pBMNL9U5uMwUAju9zj-751" value="&lt;font style=&quot;font-size: 12px;&quot;&gt;[Транзакция.ID]&lt;/font&gt;" style="text;html=1;align=center;verticalAlign=middle;whiteSpace=wrap;rounded=1;fontSize=13;labelBackgroundColor=none;fontColor=#B8B8B8;" vertex="1" parent="1">
          <mxGeometry x="-115" y="556" width="100" height="30" as="geometry" />
        </mxCell>
        <mxCell id="b1pBMNL9U5uMwUAju9zj-752" value="&lt;font style=&quot;font-size: 12px;&quot;&gt;[Транзакция.Статус]&lt;/font&gt;" style="text;html=1;align=center;verticalAlign=middle;whiteSpace=wrap;rounded=1;fontSize=13;labelBackgroundColor=none;fontColor=#B8B8B8;" vertex="1" parent="1">
          <mxGeometry x="-35" y="556" width="160" height="30" as="geometry" />
        </mxCell>
        <mxCell id="b1pBMNL9U5uMwUAju9zj-753" value="&lt;font style=&quot;font-size: 12px;&quot;&gt;[Пользователь.ID]&lt;/font&gt;" style="text;html=1;align=center;verticalAlign=middle;whiteSpace=wrap;rounded=1;fontSize=13;labelBackgroundColor=none;fontColor=#007575;" vertex="1" parent="1">
          <mxGeometry x="-245" y="456" width="160" height="30" as="geometry" />
        </mxCell>
        <mxCell id="b1pBMNL9U5uMwUAju9zj-754" value="&lt;font style=&quot;font-size: 12px;&quot;&gt;[Заказ.Сумма]&lt;/font&gt;" style="text;html=1;align=center;verticalAlign=middle;whiteSpace=wrap;rounded=1;fontSize=13;labelBackgroundColor=none;fontColor=#007575;" vertex="1" parent="1">
          <mxGeometry x="-215" y="476" width="160" height="30" as="geometry" />
        </mxCell>
        <mxCell id="b1pBMNL9U5uMwUAju9zj-755" value="&lt;font style=&quot;font-size: 12px;&quot;&gt;[Транзакция.ID]&lt;/font&gt;" style="text;html=1;align=center;verticalAlign=middle;whiteSpace=wrap;rounded=1;fontSize=13;labelBackgroundColor=none;fontColor=#B8B8B8;" vertex="1" parent="1">
          <mxGeometry x="-235" y="636" width="100" height="30" as="geometry" />
        </mxCell>
        <mxCell id="b1pBMNL9U5uMwUAju9zj-756" value="" style="endArrow=classic;html=1;rounded=1;exitX=1;exitY=0.429;exitDx=0;exitDy=0;exitPerimeter=0;curved=0;entryX=0.837;entryY=1.005;entryDx=0;entryDy=0;entryPerimeter=0;" edge="1" parent="1">
          <mxGeometry width="50" height="50" relative="1" as="geometry">
            <mxPoint x="-262" y="746" as="sourcePoint" />
            <mxPoint x="275" y="91" as="targetPoint" />
            <Array as="points">
              <mxPoint x="275" y="746" />
            </Array>
          </mxGeometry>
        </mxCell>
        <mxCell id="b1pBMNL9U5uMwUAju9zj-757" value="&lt;font style=&quot;font-size: 12px;&quot;&gt;Запросить статус платежа&lt;/font&gt;" style="edgeLabel;html=1;align=center;verticalAlign=middle;resizable=0;points=[];rounded=1;" vertex="1" connectable="0" parent="b1pBMNL9U5uMwUAju9zj-756">
          <mxGeometry x="-0.4407" y="-1" relative="1" as="geometry">
            <mxPoint x="-246" y="-31" as="offset" />
          </mxGeometry>
        </mxCell>
        <mxCell id="b1pBMNL9U5uMwUAju9zj-758" value="&lt;font style=&quot;font-size: 12px;&quot;&gt;[Транзакция.ID]&lt;/font&gt;" style="text;html=1;align=center;verticalAlign=middle;whiteSpace=wrap;rounded=1;fontSize=13;labelBackgroundColor=none;fontColor=#B8B8B8;" vertex="1" parent="1">
          <mxGeometry x="-235" y="716" width="100" height="30" as="geometry" />
        </mxCell>
        <mxCell id="b1pBMNL9U5uMwUAju9zj-759" value="&lt;font style=&quot;font-size: 12px;&quot;&gt;[Транзакция.Статус]&lt;/font&gt;" style="text;html=1;align=center;verticalAlign=middle;whiteSpace=wrap;rounded=1;fontSize=13;labelBackgroundColor=none;fontColor=#B8B8B8;" vertex="1" parent="1">
          <mxGeometry x="-75" y="796" width="160" height="30" as="geometry" />
        </mxCell>
        <mxCell id="b1pBMNL9U5uMwUAju9zj-760" value="" style="group" vertex="1" connectable="0" parent="1">
          <mxGeometry x="-100" y="40" width="260" height="39" as="geometry" />
        </mxCell>
        <mxCell id="b1pBMNL9U5uMwUAju9zj-761" value="" style="rounded=1;whiteSpace=wrap;html=1;fillColor=#ffe6cc;strokeColor=#d79b00;" vertex="1" parent="b1pBMNL9U5uMwUAju9zj-760">
          <mxGeometry x="10" width="250" height="39" as="geometry" />
        </mxCell>
        <mxCell id="b1pBMNL9U5uMwUAju9zj-762" value="" style="sketch=0;outlineConnect=0;fontColor=#232F3E;gradientColor=none;fillColor=#232F3D;strokeColor=none;dashed=0;verticalLabelPosition=bottom;verticalAlign=top;align=center;html=1;fontSize=12;fontStyle=0;aspect=fixed;pointerEvents=1;shape=mxgraph.aws4.gear;rounded=1;" vertex="1" parent="b1pBMNL9U5uMwUAju9zj-760">
          <mxGeometry x="230" y="11" width="17" height="17" as="geometry" />
        </mxCell>
        <mxCell id="b1pBMNL9U5uMwUAju9zj-763" value="Подтвердить отмену платежа" style="text;html=1;align=center;verticalAlign=middle;whiteSpace=wrap;rounded=1;fontSize=13;" vertex="1" parent="b1pBMNL9U5uMwUAju9zj-760">
          <mxGeometry y="4.5" width="210" height="30" as="geometry" />
        </mxCell>
        <mxCell id="b1pBMNL9U5uMwUAju9zj-765" style="edgeStyle=orthogonalEdgeStyle;rounded=0;orthogonalLoop=1;jettySize=auto;html=1;entryX=0.533;entryY=1.009;entryDx=0;entryDy=0;entryPerimeter=0;exitX=1;exitY=0.5;exitDx=0;exitDy=0;strokeColor=#FF0000;" edge="1" parent="1" source="b1pBMNL9U5uMwUAju9zj-838" target="b1pBMNL9U5uMwUAju9zj-623">
          <mxGeometry relative="1" as="geometry" />
        </mxCell>
        <mxCell id="b1pBMNL9U5uMwUAju9zj-773" style="edgeStyle=orthogonalEdgeStyle;rounded=0;orthogonalLoop=1;jettySize=auto;html=1;strokeColor=#FF0000;exitX=1.005;exitY=0.47;exitDx=0;exitDy=0;exitPerimeter=0;" edge="1" parent="1" source="b1pBMNL9U5uMwUAju9zj-598" target="b1pBMNL9U5uMwUAju9zj-629">
          <mxGeometry relative="1" as="geometry">
            <Array as="points">
              <mxPoint x="-800" y="1271" />
              <mxPoint x="-800" y="2755" />
            </Array>
          </mxGeometry>
        </mxCell>
        <mxCell id="b1pBMNL9U5uMwUAju9zj-776" value="" style="endArrow=classic;html=1;rounded=1;dashed=1;strokeWidth=2;strokeColor=#FF0000;" edge="1" parent="1" target="b1pBMNL9U5uMwUAju9zj-635">
          <mxGeometry width="50" height="50" relative="1" as="geometry">
            <mxPoint x="-1717" y="-90" as="sourcePoint" />
            <mxPoint x="-3205" y="440" as="targetPoint" />
            <Array as="points">
              <mxPoint x="-2160" y="-90" />
            </Array>
          </mxGeometry>
        </mxCell>
        <mxCell id="b1pBMNL9U5uMwUAju9zj-781" value="&lt;font style=&quot;font-size: 12px;&quot;&gt;[Пользователь.Адрес]&lt;/font&gt;" style="text;html=1;align=center;verticalAlign=middle;whiteSpace=wrap;rounded=1;fontSize=13;labelBackgroundColor=none;fontColor=#007575;" vertex="1" parent="1">
          <mxGeometry x="-2560" y="2060" width="160" height="30" as="geometry" />
        </mxCell>
        <mxCell id="b1pBMNL9U5uMwUAju9zj-782" value="&lt;span style=&quot;color: rgb(0, 0, 0); font-family: Helvetica; font-size: 12px; font-style: normal; font-variant-ligatures: normal; font-variant-caps: normal; font-weight: 400; letter-spacing: normal; orphans: 2; text-align: center; text-indent: 0px; text-transform: none; widows: 2; word-spacing: 0px; -webkit-text-stroke-width: 0px; white-space: normal; background-color: rgb(255, 255, 255); text-decoration-thickness: initial; text-decoration-style: initial; text-decoration-color: initial; display: inline !important; float: none;&quot;&gt;Получение данных пользователя для заказа&lt;/span&gt;" style="text;whiteSpace=wrap;html=1;" vertex="1" parent="1">
          <mxGeometry x="-2490" y="2020" width="280" height="40" as="geometry" />
        </mxCell>
        <mxCell id="b1pBMNL9U5uMwUAju9zj-783" value="&lt;font style=&quot;font-size: 12px;&quot;&gt;[Пользователь.ФИО]&lt;/font&gt;" style="text;html=1;align=center;verticalAlign=middle;whiteSpace=wrap;rounded=1;fontSize=13;labelBackgroundColor=none;fontColor=#007575;" vertex="1" parent="1">
          <mxGeometry x="-2420" y="2060" width="160" height="30" as="geometry" />
        </mxCell>
        <mxCell id="b1pBMNL9U5uMwUAju9zj-784" value="&lt;font style=&quot;font-size: 12px;&quot;&gt;[Пользователь.Номер телефона]&lt;/font&gt;" style="text;html=1;align=center;verticalAlign=middle;whiteSpace=wrap;rounded=1;fontSize=13;labelBackgroundColor=none;fontColor=#007575;" vertex="1" parent="1">
          <mxGeometry x="-2280" y="2060" width="200" height="30" as="geometry" />
        </mxCell>
        <mxCell id="b1pBMNL9U5uMwUAju9zj-786" value="&lt;font style=&quot;font-size: 12px;&quot;&gt;[Пользователь.ID]&lt;/font&gt;" style="text;html=1;align=center;verticalAlign=middle;whiteSpace=wrap;rounded=1;fontSize=13;labelBackgroundColor=none;fontColor=#007575;" vertex="1" parent="1">
          <mxGeometry x="-2490" y="2170" width="160" height="30" as="geometry" />
        </mxCell>
        <mxCell id="b1pBMNL9U5uMwUAju9zj-787" value="&lt;span style=&quot;color: rgb(0, 0, 0); font-family: Helvetica; font-size: 12px; font-style: normal; font-variant-ligatures: normal; font-variant-caps: normal; font-weight: 400; letter-spacing: normal; orphans: 2; text-align: center; text-indent: 0px; text-transform: none; widows: 2; word-spacing: 0px; -webkit-text-stroke-width: 0px; white-space: normal; background-color: rgb(255, 255, 255); text-decoration-thickness: initial; text-decoration-style: initial; text-decoration-color: initial; display: inline !important; float: none;&quot;&gt;Отправка уведомления о статусе заказа&lt;/span&gt;" style="text;whiteSpace=wrap;html=1;" vertex="1" parent="1">
          <mxGeometry x="-2460" y="2140" width="280" height="40" as="geometry" />
        </mxCell>
        <mxCell id="b1pBMNL9U5uMwUAju9zj-788" value="&lt;span style=&quot;font-size: 12px;&quot;&gt;[Заказ.Статус]&lt;/span&gt;" style="text;html=1;align=center;verticalAlign=middle;whiteSpace=wrap;rounded=1;fontSize=13;labelBackgroundColor=none;fontColor=#007575;" vertex="1" parent="1">
          <mxGeometry x="-2360" y="2170" width="160" height="30" as="geometry" />
        </mxCell>
        <mxCell id="b1pBMNL9U5uMwUAju9zj-791" value="&lt;span style=&quot;color: rgb(0, 0, 0); font-family: Helvetica; font-size: 12px; font-style: normal; font-variant-ligatures: normal; font-variant-caps: normal; font-weight: 400; letter-spacing: normal; orphans: 2; text-align: center; text-indent: 0px; text-transform: none; widows: 2; word-spacing: 0px; -webkit-text-stroke-width: 0px; white-space: normal; background-color: rgb(255, 255, 255); text-decoration-thickness: initial; text-decoration-style: initial; text-decoration-color: initial; display: inline !important; float: none;&quot;&gt;Отправка уведомления&amp;nbsp;&lt;/span&gt;&lt;div&gt;&lt;span style=&quot;color: rgb(0, 0, 0); font-family: Helvetica; font-size: 12px; font-style: normal; font-variant-ligatures: normal; font-variant-caps: normal; font-weight: 400; letter-spacing: normal; orphans: 2; text-align: center; text-indent: 0px; text-transform: none; widows: 2; word-spacing: 0px; -webkit-text-stroke-width: 0px; white-space: normal; background-color: rgb(255, 255, 255); text-decoration-thickness: initial; text-decoration-style: initial; text-decoration-color: initial; display: inline !important; float: none;&quot;&gt;о регистрации&lt;/span&gt;&lt;/div&gt;" style="text;whiteSpace=wrap;html=1;" vertex="1" parent="1">
          <mxGeometry x="-2840" y="1970" width="150" height="40" as="geometry" />
        </mxCell>
        <mxCell id="b1pBMNL9U5uMwUAju9zj-792" value="&lt;font style=&quot;font-size: 12px;&quot;&gt;[Пользователь.Электронная почта]&lt;/font&gt;" style="text;html=1;align=center;verticalAlign=middle;whiteSpace=wrap;rounded=1;fontSize=13;labelBackgroundColor=none;fontColor=#007575;" vertex="1" parent="1">
          <mxGeometry x="-3160" y="3180" width="160" height="30" as="geometry" />
        </mxCell>
        <mxCell id="b1pBMNL9U5uMwUAju9zj-794" value="&lt;font style=&quot;font-size: 12px;&quot;&gt;[Пользователь.Электронная почта]&lt;/font&gt;" style="text;html=1;align=center;verticalAlign=middle;whiteSpace=wrap;rounded=1;fontSize=13;labelBackgroundColor=none;fontColor=#007575;" vertex="1" parent="1">
          <mxGeometry x="-2850" y="2010" width="160" height="30" as="geometry" />
        </mxCell>
        <mxCell id="b1pBMNL9U5uMwUAju9zj-795" value="&lt;span style=&quot;color: rgb(0, 0, 0); font-family: Helvetica; font-size: 12px; font-style: normal; font-variant-ligatures: normal; font-variant-caps: normal; font-weight: 400; letter-spacing: normal; orphans: 2; text-align: center; text-indent: 0px; text-transform: none; widows: 2; word-spacing: 0px; -webkit-text-stroke-width: 0px; white-space: normal; background-color: rgb(255, 255, 255); text-decoration-thickness: initial; text-decoration-style: initial; text-decoration-color: initial; display: inline !important; float: none;&quot;&gt;Получение метаданных пользователя для отправки уведомления&lt;/span&gt;" style="text;whiteSpace=wrap;html=1;" vertex="1" parent="1">
          <mxGeometry x="-3110" y="3140" width="280" height="40" as="geometry" />
        </mxCell>
        <mxCell id="b1pBMNL9U5uMwUAju9zj-796" value="&lt;font style=&quot;font-size: 12px;&quot;&gt;[Пользователь.Номер телефона]&lt;/font&gt;" style="text;html=1;align=center;verticalAlign=middle;whiteSpace=wrap;rounded=1;fontSize=13;labelBackgroundColor=none;fontColor=#007575;" vertex="1" parent="1">
          <mxGeometry x="-3000" y="3180" width="160" height="30" as="geometry" />
        </mxCell>
        <mxCell id="b1pBMNL9U5uMwUAju9zj-797" style="edgeStyle=orthogonalEdgeStyle;rounded=0;orthogonalLoop=1;jettySize=auto;html=1;exitX=0.5;exitY=1;exitDx=0;exitDy=0;" edge="1" parent="1" source="b1pBMNL9U5uMwUAju9zj-792" target="b1pBMNL9U5uMwUAju9zj-792">
          <mxGeometry relative="1" as="geometry" />
        </mxCell>
        <mxCell id="b1pBMNL9U5uMwUAju9zj-798" value="&lt;font style=&quot;font-size: 12px;&quot;&gt;[Пользователь.ID]&lt;/font&gt;" style="text;html=1;align=center;verticalAlign=middle;whiteSpace=wrap;rounded=1;fontSize=13;labelBackgroundColor=none;fontColor=#007575;" vertex="1" parent="1">
          <mxGeometry x="-2440" y="2720" width="160" height="30" as="geometry" />
        </mxCell>
        <mxCell id="b1pBMNL9U5uMwUAju9zj-799" value="&lt;span style=&quot;color: rgb(0, 0, 0); font-family: Helvetica; font-size: 12px; font-style: normal; font-variant-ligatures: normal; font-variant-caps: normal; font-weight: 400; letter-spacing: normal; orphans: 2; text-align: center; text-indent: 0px; text-transform: none; widows: 2; word-spacing: 0px; -webkit-text-stroke-width: 0px; white-space: normal; background-color: rgb(255, 255, 255); text-decoration-thickness: initial; text-decoration-style: initial; text-decoration-color: initial; display: inline !important; float: none;&quot;&gt;Отправка уведомления о статусе аукциона&lt;/span&gt;" style="text;whiteSpace=wrap;html=1;" vertex="1" parent="1">
          <mxGeometry x="-2420" y="2690" width="280" height="40" as="geometry" />
        </mxCell>
        <mxCell id="b1pBMNL9U5uMwUAju9zj-800" value="&lt;span style=&quot;font-size: 12px;&quot;&gt;[&lt;/span&gt;&lt;span style=&quot;color: rgb(14, 14, 14); font-family: &amp;quot;Times New Roman&amp;quot;; font-size: 14px; text-align: start; text-indent: -13px;&quot;&gt;Заявка на аукцион&lt;/span&gt;&lt;span style=&quot;font-size: 12px;&quot;&gt;]&lt;/span&gt;" style="text;html=1;align=center;verticalAlign=middle;whiteSpace=wrap;rounded=1;fontSize=13;labelBackgroundColor=none;fontColor=#007575;" vertex="1" parent="1">
          <mxGeometry x="-2310" y="2720" width="160" height="30" as="geometry" />
        </mxCell>
        <mxCell id="b1pBMNL9U5uMwUAju9zj-801" value="&lt;p style=&quot;margin: 0px 0px 0px 13px; text-indent: -13px; font-variant-numeric: normal; font-variant-east-asian: normal; font-variant-alternates: normal; font-kerning: auto; font-optical-sizing: auto; font-feature-settings: normal; font-variation-settings: normal; font-variant-position: normal; font-stretch: normal; font-size: 14px; line-height: normal; color: rgb(14, 14, 14); text-align: start;&quot; class=&quot;p1&quot;&gt;&lt;font face=&quot;Times New Roman&quot;&gt;Заявка на аукцион.Статус&lt;/font&gt;&lt;/p&gt;" style="rounded=1;whiteSpace=wrap;html=1;fillColor=#b1ddf0;strokeColor=#FF0000;" vertex="1" parent="1">
          <mxGeometry x="-1560" y="2730" width="190" height="21" as="geometry" />
        </mxCell>
        <mxCell id="b1pBMNL9U5uMwUAju9zj-802" value="&lt;font style=&quot;font-size: 12px;&quot;&gt;[Товар.ID] [Товар.Название]&lt;/font&gt;" style="text;html=1;align=center;verticalAlign=middle;whiteSpace=wrap;rounded=1;fontSize=13;labelBackgroundColor=none;fontColor=#007575;" vertex="1" parent="1">
          <mxGeometry x="-1160" y="2710" width="160" height="30" as="geometry" />
        </mxCell>
        <mxCell id="b1pBMNL9U5uMwUAju9zj-803" value="&lt;span style=&quot;color: rgb(0, 0, 0); font-family: Helvetica; font-size: 12px; font-style: normal; font-variant-ligatures: normal; font-variant-caps: normal; font-weight: 400; letter-spacing: normal; orphans: 2; text-align: center; text-indent: 0px; text-transform: none; widows: 2; word-spacing: 0px; -webkit-text-stroke-width: 0px; white-space: normal; background-color: rgb(255, 255, 255); text-decoration-thickness: initial; text-decoration-style: initial; text-decoration-color: initial; display: inline !important; float: none;&quot;&gt;Получение данных о товарах и услугах&lt;/span&gt;" style="text;whiteSpace=wrap;html=1;" vertex="1" parent="1">
          <mxGeometry x="-1130" y="2670" width="280" height="40" as="geometry" />
        </mxCell>
        <mxCell id="b1pBMNL9U5uMwUAju9zj-804" value="&lt;font style=&quot;font-size: 12px;&quot;&gt;[Услуга.ID], [Услуга.Название]&lt;/font&gt;" style="text;html=1;align=center;verticalAlign=middle;whiteSpace=wrap;rounded=1;fontSize=13;labelBackgroundColor=none;fontColor=#007575;" vertex="1" parent="1">
          <mxGeometry x="-1010" y="2710" width="160" height="30" as="geometry" />
        </mxCell>
        <mxCell id="b1pBMNL9U5uMwUAju9zj-805" value="&lt;font style=&quot;font-size: 12px;&quot;&gt;[Товар.ID]&amp;nbsp;&lt;/font&gt;" style="text;html=1;align=center;verticalAlign=middle;whiteSpace=wrap;rounded=1;fontSize=13;labelBackgroundColor=none;fontColor=#007575;" vertex="1" parent="1">
          <mxGeometry x="-1620" y="1680" width="160" height="30" as="geometry" />
        </mxCell>
        <mxCell id="b1pBMNL9U5uMwUAju9zj-806" value="&lt;span style=&quot;color: rgb(0, 0, 0); font-family: Helvetica; font-size: 12px; font-style: normal; font-variant-ligatures: normal; font-variant-caps: normal; font-weight: 400; letter-spacing: normal; orphans: 2; text-align: center; text-indent: 0px; text-transform: none; widows: 2; word-spacing: 0px; -webkit-text-stroke-width: 0px; white-space: normal; background-color: rgb(255, 255, 255); text-decoration-thickness: initial; text-decoration-style: initial; text-decoration-color: initial; display: inline !important; float: none;&quot;&gt;Добавление товара и услуги в заказ&lt;/span&gt;" style="text;whiteSpace=wrap;html=1;" vertex="1" parent="1">
          <mxGeometry x="-1590" y="1640" width="280" height="40" as="geometry" />
        </mxCell>
        <mxCell id="b1pBMNL9U5uMwUAju9zj-807" value="&lt;font style=&quot;font-size: 12px;&quot;&gt;[Услуга.ID]&lt;/font&gt;" style="text;html=1;align=center;verticalAlign=middle;whiteSpace=wrap;rounded=1;fontSize=13;labelBackgroundColor=none;fontColor=#007575;" vertex="1" parent="1">
          <mxGeometry x="-1540" y="1680" width="160" height="30" as="geometry" />
        </mxCell>
        <mxCell id="b1pBMNL9U5uMwUAju9zj-809" value="&lt;span style=&quot;color: rgb(0, 0, 0); font-family: Helvetica; font-size: 12px; font-style: normal; font-variant-ligatures: normal; font-variant-caps: normal; font-weight: 400; letter-spacing: normal; orphans: 2; text-align: center; text-indent: 0px; text-transform: none; widows: 2; word-spacing: 0px; -webkit-text-stroke-width: 0px; white-space: normal; background-color: rgb(255, 255, 255); text-decoration-thickness: initial; text-decoration-style: initial; text-decoration-color: initial; display: inline !important; float: none;&quot;&gt;Получение данных о товарах и услугах с учетом поискового запроса и фильтров&lt;/span&gt;" style="text;whiteSpace=wrap;html=1;" vertex="1" parent="1">
          <mxGeometry x="-1590" y="890" width="280" height="40" as="geometry" />
        </mxCell>
        <mxCell id="b1pBMNL9U5uMwUAju9zj-811" value="&lt;font style=&quot;font-size: 12px;&quot;&gt;[Товар.ID] [Товар.Название]&lt;/font&gt;&lt;div&gt;&lt;span style=&quot;font-size: 12px;&quot;&gt;[Товар.Описание]&lt;/span&gt;&lt;/div&gt;" style="text;html=1;align=center;verticalAlign=middle;whiteSpace=wrap;rounded=1;fontSize=13;labelBackgroundColor=none;fontColor=#007575;" vertex="1" parent="1">
          <mxGeometry x="-1600" y="950" width="160" height="30" as="geometry" />
        </mxCell>
        <mxCell id="b1pBMNL9U5uMwUAju9zj-812" value="&lt;font style=&quot;font-size: 12px;&quot;&gt;[Услуга.ID] [Услуга.Название]&lt;/font&gt;&lt;div&gt;&lt;span style=&quot;font-size: 12px;&quot;&gt;[Услуга.&lt;/span&gt;&lt;span style=&quot;font-size: 12px; background-color: initial;&quot;&gt;&amp;nbsp;Описание&lt;/span&gt;&lt;span style=&quot;font-size: 12px; background-color: initial;&quot;&gt;]&lt;/span&gt;&lt;/div&gt;" style="text;html=1;align=center;verticalAlign=middle;whiteSpace=wrap;rounded=1;fontSize=13;labelBackgroundColor=none;fontColor=#007575;" vertex="1" parent="1">
          <mxGeometry x="-1450" y="950" width="160" height="30" as="geometry" />
        </mxCell>
        <mxCell id="b1pBMNL9U5uMwUAju9zj-813" value="&lt;span style=&quot;color: rgb(0, 0, 0); font-family: Helvetica; font-size: 12px; font-style: normal; font-variant-ligatures: normal; font-variant-caps: normal; font-weight: 400; letter-spacing: normal; orphans: 2; text-align: center; text-indent: 0px; text-transform: none; widows: 2; word-spacing: 0px; -webkit-text-stroke-width: 0px; white-space: normal; background-color: rgb(255, 255, 255); text-decoration-thickness: initial; text-decoration-style: initial; text-decoration-color: initial; display: inline !important; float: none;&quot;&gt;Регистрация пользователя&lt;/span&gt;" style="text;whiteSpace=wrap;html=1;" vertex="1" parent="1">
          <mxGeometry x="-2780" y="-170" width="280" height="40" as="geometry" />
        </mxCell>
        <mxCell id="b1pBMNL9U5uMwUAju9zj-814" value="[Пользователь. Электронная почта]" style="text;html=1;align=center;verticalAlign=middle;whiteSpace=wrap;rounded=1;fontSize=13;labelBackgroundColor=none;fontColor=#007575;" vertex="1" parent="1">
          <mxGeometry x="-2850" y="-140" width="160" height="30" as="geometry" />
        </mxCell>
        <mxCell id="b1pBMNL9U5uMwUAju9zj-816" value="[Пользователь. Пароль]" style="text;html=1;align=center;verticalAlign=middle;whiteSpace=wrap;rounded=1;fontSize=13;labelBackgroundColor=none;fontColor=#007575;" vertex="1" parent="1">
          <mxGeometry x="-2710" y="-140" width="160" height="30" as="geometry" />
        </mxCell>
        <mxCell id="b1pBMNL9U5uMwUAju9zj-817" value="&lt;div style=&quot;text-align: center;&quot;&gt;&lt;span style=&quot;background-color: initial;&quot;&gt;Запрос в поддержку&lt;/span&gt;&lt;/div&gt;" style="text;whiteSpace=wrap;html=1;" vertex="1" parent="1">
          <mxGeometry x="-2140" y="190" width="280" height="40" as="geometry" />
        </mxCell>
        <mxCell id="b1pBMNL9U5uMwUAju9zj-818" value="[Пользователь. Электронная почта]" style="text;html=1;align=center;verticalAlign=middle;whiteSpace=wrap;rounded=1;fontSize=13;labelBackgroundColor=none;fontColor=#007575;" vertex="1" parent="1">
          <mxGeometry x="-2160" y="220" width="160" height="30" as="geometry" />
        </mxCell>
        <mxCell id="b1pBMNL9U5uMwUAju9zj-819" value="&lt;font style=&quot;font-size: 12px;&quot;&gt;[Заказ.ID]&amp;nbsp;&lt;/font&gt;" style="text;html=1;align=center;verticalAlign=middle;whiteSpace=wrap;rounded=1;fontSize=13;labelBackgroundColor=none;fontColor=#007575;" vertex="1" parent="1">
          <mxGeometry x="-1150" y="2040" width="160" height="30" as="geometry" />
        </mxCell>
        <mxCell id="b1pBMNL9U5uMwUAju9zj-820" value="&lt;span style=&quot;color: rgb(0, 0, 0); font-family: Helvetica; font-size: 12px; font-style: normal; font-variant-ligatures: normal; font-variant-caps: normal; font-weight: 400; letter-spacing: normal; orphans: 2; text-align: center; text-indent: 0px; text-transform: none; widows: 2; word-spacing: 0px; -webkit-text-stroke-width: 0px; white-space: normal; background-color: rgb(255, 255, 255); text-decoration-thickness: initial; text-decoration-style: initial; text-decoration-color: initial; display: inline !important; float: none;&quot;&gt;Отправка заказа на оплату&lt;/span&gt;" style="text;whiteSpace=wrap;html=1;" vertex="1" parent="1">
          <mxGeometry x="-1110" y="2010" width="280" height="40" as="geometry" />
        </mxCell>
        <mxCell id="b1pBMNL9U5uMwUAju9zj-821" value="&lt;font style=&quot;font-size: 12px;&quot;&gt;[Заказ.Цена]&lt;/font&gt;" style="text;html=1;align=center;verticalAlign=middle;whiteSpace=wrap;rounded=1;fontSize=13;labelBackgroundColor=none;fontColor=#007575;" vertex="1" parent="1">
          <mxGeometry x="-1070" y="2040" width="160" height="30" as="geometry" />
        </mxCell>
        <mxCell id="b1pBMNL9U5uMwUAju9zj-822" value="&lt;p style=&quot;margin: 0px 0px 0px 13px; text-indent: -13px; font-variant-numeric: normal; font-variant-east-asian: normal; font-variant-alternates: normal; font-kerning: auto; font-optical-sizing: auto; font-feature-settings: normal; font-variation-settings: normal; font-variant-position: normal; font-stretch: normal; font-size: 14px; line-height: normal; color: rgb(14, 14, 14); text-align: start;&quot; class=&quot;p1&quot;&gt;&lt;font face=&quot;Times New Roman&quot;&gt;Заказ.Цена&lt;/font&gt;&lt;/p&gt;" style="rounded=1;whiteSpace=wrap;html=1;fillColor=#b1ddf0;strokeColor=#FF0000;" vertex="1" parent="1">
          <mxGeometry x="-1530" y="2100" width="111" height="21" as="geometry" />
        </mxCell>
        <mxCell id="b1pBMNL9U5uMwUAju9zj-823" value="&lt;span style=&quot;color: rgb(0, 0, 0); font-family: Helvetica; font-size: 12px; font-style: normal; font-variant-ligatures: normal; font-variant-caps: normal; font-weight: 400; letter-spacing: normal; orphans: 2; text-align: center; text-indent: 0px; text-transform: none; widows: 2; word-spacing: 0px; -webkit-text-stroke-width: 0px; white-space: normal; background-color: rgb(255, 255, 255); text-decoration-thickness: initial; text-decoration-style: initial; text-decoration-color: initial; display: inline !important; float: none;&quot;&gt;Передача всех данных сервиса для построения отчета&lt;/span&gt;" style="text;whiteSpace=wrap;html=1;" vertex="1" parent="1">
          <mxGeometry x="-790" y="2160" width="280" height="40" as="geometry" />
        </mxCell>
        <mxCell id="b1pBMNL9U5uMwUAju9zj-824" value="&lt;span style=&quot;color: rgb(0, 0, 0); font-family: Helvetica; font-size: 12px; font-style: normal; font-variant-ligatures: normal; font-variant-caps: normal; font-weight: 400; letter-spacing: normal; orphans: 2; text-align: center; text-indent: 0px; text-transform: none; widows: 2; word-spacing: 0px; -webkit-text-stroke-width: 0px; white-space: normal; background-color: rgb(255, 255, 255); text-decoration-thickness: initial; text-decoration-style: initial; text-decoration-color: initial; display: inline !important; float: none;&quot;&gt;Передача всех данных сервиса для построения отчета&lt;/span&gt;" style="text;whiteSpace=wrap;html=1;" vertex="1" parent="1">
          <mxGeometry x="-620" y="1360" width="280" height="40" as="geometry" />
        </mxCell>
        <mxCell id="b1pBMNL9U5uMwUAju9zj-826" value="1" style="ellipse;whiteSpace=wrap;html=1;aspect=fixed;rounded=1;fillColor=#FF77BF;" vertex="1" parent="1">
          <mxGeometry x="-3230" y="420" width="23" height="23" as="geometry" />
        </mxCell>
        <mxCell id="b1pBMNL9U5uMwUAju9zj-827" value="3" style="ellipse;whiteSpace=wrap;html=1;aspect=fixed;rounded=1;fillColor=#FF77BF;" vertex="1" parent="1">
          <mxGeometry x="-2790" y="3210" width="23" height="23" as="geometry" />
        </mxCell>
        <mxCell id="b1pBMNL9U5uMwUAju9zj-828" value="2" style="ellipse;whiteSpace=wrap;html=1;aspect=fixed;rounded=1;fillColor=#FF77BF;" vertex="1" parent="1">
          <mxGeometry x="-2690" y="3080" width="23" height="23" as="geometry" />
        </mxCell>
        <mxCell id="b1pBMNL9U5uMwUAju9zj-829" value="4" style="ellipse;whiteSpace=wrap;html=1;aspect=fixed;rounded=1;fillColor=#FF77BF;" vertex="1" parent="1">
          <mxGeometry x="-2600" y="3080" width="23" height="23" as="geometry" />
        </mxCell>
        <mxCell id="b1pBMNL9U5uMwUAju9zj-830" value="5" style="ellipse;whiteSpace=wrap;html=1;aspect=fixed;rounded=1;fillColor=#FF77BF;" vertex="1" parent="1">
          <mxGeometry x="-2500" y="3080" width="23" height="23" as="geometry" />
        </mxCell>
        <mxCell id="b1pBMNL9U5uMwUAju9zj-831" value="6" style="ellipse;whiteSpace=wrap;html=1;aspect=fixed;rounded=1;fillColor=#FF77BF;" vertex="1" parent="1">
          <mxGeometry x="-2070" y="2090" width="23" height="23" as="geometry" />
        </mxCell>
        <mxCell id="b1pBMNL9U5uMwUAju9zj-833" value="" style="edgeStyle=orthogonalEdgeStyle;rounded=0;orthogonalLoop=1;jettySize=auto;html=1;strokeColor=#FF0000;exitX=0.5;exitY=1;exitDx=0;exitDy=0;" edge="1" parent="1" source="b1pBMNL9U5uMwUAju9zj-596" target="b1pBMNL9U5uMwUAju9zj-832">
          <mxGeometry relative="1" as="geometry">
            <mxPoint x="-1475" y="690" as="sourcePoint" />
            <mxPoint x="-1610" y="1050" as="targetPoint" />
          </mxGeometry>
        </mxCell>
        <mxCell id="b1pBMNL9U5uMwUAju9zj-832" value="8" style="ellipse;whiteSpace=wrap;html=1;aspect=fixed;rounded=1;fillColor=#FF77BF;" vertex="1" parent="1">
          <mxGeometry x="-1620" y="1040" width="23" height="23" as="geometry" />
        </mxCell>
        <mxCell id="b1pBMNL9U5uMwUAju9zj-835" value="" style="edgeStyle=orthogonalEdgeStyle;rounded=0;orthogonalLoop=1;jettySize=auto;html=1;strokeColor=#FF0000;" edge="1" parent="1" source="b1pBMNL9U5uMwUAju9zj-598" target="b1pBMNL9U5uMwUAju9zj-834">
          <mxGeometry relative="1" as="geometry">
            <mxPoint x="-1610" y="1520" as="sourcePoint" />
            <mxPoint x="-1610" y="1840" as="targetPoint" />
          </mxGeometry>
        </mxCell>
        <mxCell id="b1pBMNL9U5uMwUAju9zj-834" value="9" style="ellipse;whiteSpace=wrap;html=1;aspect=fixed;rounded=1;fillColor=#FF77BF;" vertex="1" parent="1">
          <mxGeometry x="-1620" y="1830" width="23" height="23" as="geometry" />
        </mxCell>
        <mxCell id="b1pBMNL9U5uMwUAju9zj-836" value="7" style="ellipse;whiteSpace=wrap;html=1;aspect=fixed;rounded=1;fillColor=#FF77BF;" vertex="1" parent="1">
          <mxGeometry x="-2170" y="420" width="23" height="23" as="geometry" />
        </mxCell>
        <mxCell id="b1pBMNL9U5uMwUAju9zj-837" value="10" style="ellipse;whiteSpace=wrap;html=1;aspect=fixed;rounded=1;fillColor=#FF77BF;" vertex="1" parent="1">
          <mxGeometry x="-1170" y="2750" width="23" height="23" as="geometry" />
        </mxCell>
        <mxCell id="b1pBMNL9U5uMwUAju9zj-839" value="" style="edgeStyle=orthogonalEdgeStyle;rounded=0;orthogonalLoop=1;jettySize=auto;html=1;entryX=0.533;entryY=1.009;entryDx=0;entryDy=0;entryPerimeter=0;exitX=1;exitY=0.5;exitDx=0;exitDy=0;strokeColor=#FF0000;" edge="1" parent="1" source="b1pBMNL9U5uMwUAju9zj-576" target="b1pBMNL9U5uMwUAju9zj-838">
          <mxGeometry relative="1" as="geometry">
            <mxPoint x="-1160" y="2085" as="sourcePoint" />
            <mxPoint x="-682" y="904" as="targetPoint" />
          </mxGeometry>
        </mxCell>
        <mxCell id="b1pBMNL9U5uMwUAju9zj-838" value="11" style="ellipse;whiteSpace=wrap;html=1;aspect=fixed;rounded=1;fillColor=#FF77BF;" vertex="1" parent="1">
          <mxGeometry x="-690" y="890" width="23" height="23" as="geometry" />
        </mxCell>
        <mxCell id="b1pBMNL9U5uMwUAju9zj-841" value="" style="edgeStyle=orthogonalEdgeStyle;rounded=0;orthogonalLoop=1;jettySize=auto;html=1;entryX=0.5;entryY=0;entryDx=0;entryDy=0;exitX=1;exitY=0.75;exitDx=0;exitDy=0;strokeColor=#FF0000;" edge="1" parent="1" source="b1pBMNL9U5uMwUAju9zj-598" target="b1pBMNL9U5uMwUAju9zj-840">
          <mxGeometry relative="1" as="geometry">
            <mxPoint x="-1180" y="1403" as="sourcePoint" />
            <mxPoint x="-255" y="2080" as="targetPoint" />
          </mxGeometry>
        </mxCell>
        <mxCell id="b1pBMNL9U5uMwUAju9zj-840" value="12" style="ellipse;whiteSpace=wrap;html=1;aspect=fixed;rounded=1;fillColor=#FF77BF;" vertex="1" parent="1">
          <mxGeometry x="-270" y="2070" width="23" height="23" as="geometry" />
        </mxCell>
        <mxCell id="b1pBMNL9U5uMwUAju9zj-842" value="13" style="ellipse;whiteSpace=wrap;html=1;aspect=fixed;rounded=1;fillColor=#FF77BF;" vertex="1" parent="1">
          <mxGeometry x="-460" y="2190" width="23" height="23" as="geometry" />
        </mxCell>
      </root>
    </mxGraphModel>
  </diagram>
</mxfile>
